<svg width="41" height="41" viewBox="0 0 41 41" fill="none" xmlns="http://www.w3.org/2000/svg">
<circle cx="20.9259" cy="20.2775" r="12.8889" stroke="white" stroke-width="1.07407"/>
<path d="M21.1281 14.808C20.5028 14.808 19.9429 14.9316 19.4485 15.1788C18.9687 15.426 18.5615 15.7823 18.2271 16.2476C17.8926 16.6984 17.6381 17.2509 17.4636 17.9053C17.3037 18.5597 17.2237 19.294 17.2237 20.1083C17.2237 21.2135 17.3546 22.1586 17.6163 22.9439C17.8926 23.7146 18.3216 24.3035 18.9032 24.7106C19.4849 25.1178 20.2265 25.3214 21.1281 25.3214C21.7679 25.3214 22.4004 25.2487 23.0257 25.1033C23.6655 24.9578 24.3562 24.7543 25.0978 24.4925V27.2626C24.4144 27.5389 23.7382 27.7425 23.0693 27.8734C22.4004 28.0042 21.6515 28.0697 20.8227 28.0697C19.2231 28.0697 17.8999 27.7425 16.8529 27.0881C15.8205 26.4192 15.0571 25.4886 14.5627 24.2962C14.0683 23.0893 13.8211 21.686 13.8211 20.0865C13.8211 18.9087 13.981 17.8326 14.3009 16.8583C14.6208 15.8695 15.0861 15.0189 15.6969 14.3063C16.3222 13.5938 17.0856 13.0412 17.9871 12.6486C18.9032 12.256 19.9502 12.0597 21.1281 12.0597C21.8987 12.0597 22.6694 12.1615 23.4401 12.3651C24.2254 12.5541 24.9742 12.8158 25.6868 13.1503L24.618 15.8332C24.0363 15.5569 23.4474 15.317 22.8512 15.1134C22.2696 14.9098 21.6952 14.808 21.1281 14.808Z" fill="white"/>
</svg>
