<svg width="80" height="81" viewBox="0 0 80 81" fill="none" xmlns="http://www.w3.org/2000/svg">
<g id="DECISION ICON">
<g id="Group 40">
<circle id="Ellipse 68" cx="40.8569" cy="40.9897" r="35.4286" stroke="#0F5C30" stroke-width="0.571429"/>
<g id="Group 43">
<circle id="Ellipse 69" cx="67.9989" cy="15.5614" r="7.42857" fill="#0F5C30"/>
<path id="Vector 138" d="M65.1406 15.0354L67.4035 17.2982L71.4263 13.2754" stroke="white" stroke-width="1.00571"/>
</g>
</g>
<g id="g10">
<path id="path14" d="M21.8912 28.5531C22.1093 28.5516 22.3595 28.5789 22.6214 28.6262C22.3129 28.9304 21.7833 29.4872 21.8588 29.4786C21.6562 29.5179 21.207 28.9142 21.3444 28.6888C21.4148 28.5732 21.7704 28.5541 21.8912 28.5531ZM24.9259 32.6042C25.6965 32.8094 26.6183 33.27 26.9967 33.4474C27.168 33.5277 27.3218 33.6009 27.4683 33.665L26.2766 33.8051C26.2577 33.7938 26.2369 33.7843 26.2142 33.7769C26.0969 33.7388 25.8278 33.8017 25.4566 33.7406C25.5846 33.3775 25.1566 32.8642 24.9259 32.6042ZM17.1218 48.3741L17.7655 48.2987C18.5088 48.4183 19.2245 48.6409 19.9058 48.8989C19.2894 49.3951 18.3253 49.8966 17.5996 50.1244C17.2238 50.2423 16.3121 50.4554 15.9355 50.1377C15.9221 50.1085 15.91 50.0783 15.8992 50.0476C15.5886 49.1665 16.3464 48.5761 17.1218 48.3741ZM17.1896 46.2697C17.711 46.7725 18.2337 47.3931 18.791 47.8777L18.3871 47.7773C17.903 47.6658 17.0852 47.586 16.6748 47.4478C16.5558 47.4044 16.4506 47.3153 16.3592 47.2298C16.021 46.9073 15.7287 46.3895 15.6636 45.8995C15.6921 45.7859 15.7477 45.6832 15.8432 45.6076C15.9267 45.5423 16.0531 45.5092 16.1338 45.5136C16.4367 45.5637 16.9752 46.063 17.1896 46.2697ZM24.2642 32.694C24.4828 32.8443 24.8296 33.3112 24.9178 33.4931C24.8519 33.487 24.7749 33.471 24.7001 33.4524C24.5239 33.3767 24.291 32.9621 24.2642 32.694ZM17.358 42.0313C17.6193 42.1828 17.8976 42.3829 18.1514 42.6006C17.8897 42.5338 17.6392 42.4415 17.3797 42.3266C17.3735 42.2316 17.3659 42.1327 17.358 42.0313ZM17.1233 41.9061C17.1398 42.0151 17.1555 42.1229 17.1681 42.2289C16.8075 42.0561 16.4493 41.8386 16.1105 41.6022C16.4759 41.6513 16.801 41.749 17.1233 41.9061ZM17.9362 39.6662C18.5035 39.2892 19.1448 39.341 19.6499 39.776C20.3064 40.3413 20.4246 41.7313 19.7908 42.39C19.5955 42.593 19.374 42.6789 19.1196 42.7074C18.9217 42.4688 18.5142 42.1204 18.3348 41.9768C18.0212 41.7259 17.6367 41.4952 17.3124 41.3456C17.2836 40.6406 17.3092 40.0826 17.9362 39.6662ZM23.2371 32.6555C23.4506 32.7257 23.6149 32.6989 23.7473 32.6521C23.7469 32.8136 23.7913 32.9847 23.8481 33.1266C23.6257 33.0058 23.4235 32.8563 23.2371 32.6555ZM23.1532 31.9563C23.8189 32.0059 24.1716 31.4325 25.0803 31.5142C25.5369 31.5667 25.8814 31.7452 26.2689 31.9706C26.6642 32.2008 27.514 32.7836 28.1476 33.2771C27.7764 33.1791 26.9401 32.7645 26.5793 32.6005C26.008 32.3408 25.4361 32.1076 24.7622 31.9681C23.9256 31.8437 24.1206 31.9517 23.5081 32.1252C23.4064 32.1341 23.2354 32.0253 23.1532 31.9563ZM25.321 29.6828C25.663 30.0044 26.1116 30.4274 26.2062 30.5273C26.7149 31.0738 27.1931 31.6394 27.6952 32.1869C26.8867 31.6134 25.9749 30.965 25.1346 30.8983C24.4503 30.8526 24.1722 30.979 23.5669 31.2486C23.2347 31.3917 23.0723 31.3514 22.7493 31.1649C22.6704 31.117 22.5944 31.0681 22.5213 31.0178C22.4803 30.9506 22.4169 30.9044 22.3406 30.886C21.9339 30.5708 21.625 30.1989 21.3874 29.7246L21.7021 29.8994C21.8472 29.9369 21.9304 29.9283 22.0668 29.8674C22.2278 29.7707 22.8341 29.0372 23.1868 28.7532C23.6744 28.8818 24.1521 29.0551 24.4957 29.2176C24.793 29.361 25.0508 29.5039 25.321 29.6828ZM26.7364 27.6376C26.9074 27.7565 27.0918 27.8876 27.2798 28.0272C26.5532 27.7516 25.772 27.5527 25.0708 27.5338C24.2881 27.5124 23.5321 27.849 22.9333 28.3417C22.5766 28.2504 22.2096 28.1848 21.8949 28.1767C21.783 28.174 21.6545 28.1767 21.5283 28.1959C21.6988 27.9028 21.9165 27.6416 22.1978 27.4619C22.9458 27.0146 23.6067 26.8742 24.473 26.9009C25.3402 26.962 26.0011 27.1719 26.7364 27.6376ZM57.1077 34.9852C57.2442 34.9533 58.0443 34.5485 58.5218 34.4373C58.3355 34.7895 58.1987 35.3878 58.4157 35.7983C58.1744 35.7418 57.1762 35.0787 57.1077 34.9852ZM41.944 54.1129C43.2343 55.2709 44.5236 56.4301 45.8124 57.5896L45.648 57.5066C44.6365 56.8892 43.1871 56.0123 41.8711 55.0402C41.8919 54.7303 41.9162 54.4213 41.944 54.1129ZM40.2584 52.5035C40.6048 52.8698 40.9831 53.2378 41.413 53.6327C41.3781 53.962 41.3477 54.2917 41.3217 54.6221C40.7305 54.1576 40.1863 53.6774 39.7463 53.1982C39.9219 52.9753 40.0927 52.7431 40.2584 52.5035ZM39.8003 51.9985L39.8573 52.0636C39.6965 52.2953 39.5303 52.5214 39.3587 52.7394C39.2973 52.6599 39.2392 52.5803 39.1851 52.501C39.3968 52.3378 39.6022 52.1701 39.8003 51.9985ZM37.8588 49.2372C38.4256 50.1929 38.9286 50.9377 39.4837 51.6214C39.3067 51.78 39.1233 51.9344 38.933 52.0874C38.4386 51.2009 37.9646 50.0471 37.7235 49.0892C37.6496 48.7843 37.7883 49.1179 37.8588 49.2372ZM55.9233 34.8792C55.9525 34.8396 58.2579 33.3696 58.7339 33.7835C58.168 33.8304 56.5922 34.5792 55.9233 34.8792ZM59.8482 52.4119C60.0323 52.4112 60.0424 52.3265 60.3826 52.6537C60.8139 53.0691 61.383 53.7523 61.0005 54.3771C60.9298 54.4927 60.7413 54.532 60.6252 54.532C59.8767 54.532 58.9219 53.0944 57.8396 52.5965C58.2211 52.419 58.6396 52.4266 59.07 52.4291C59.1981 52.4298 59.2465 52.4102 59.3697 52.4107L59.8482 52.4119ZM58.7339 51.8456C58.9767 51.6936 60.7666 50.9215 60.9134 50.8611C61.138 50.7735 61.4596 50.6439 61.7566 50.6439C61.7112 50.8383 61.4505 51.1177 61.3192 51.2493C60.972 51.5962 60.7828 51.7076 60.2621 51.783C59.9996 51.8208 59.2938 51.8289 58.9809 51.8277C58.8679 51.8272 58.836 51.8456 58.7339 51.8456ZM59.7694 43.9734C60.3669 43.5632 61.3636 43.4218 61.8831 44.0667C62.0625 44.2898 62.3161 44.7531 62.3222 45.0236C61.9842 45.1024 61.3769 45.4594 61.0494 45.6776C60.809 45.8379 60.4484 46.0164 60.4484 46.2432C60.4484 46.3078 60.4644 46.2852 60.4661 46.3669H60.307C59.9422 46.3669 59.6348 46.0215 59.4814 45.7608C59.1529 45.2011 59.2077 44.3593 59.7694 43.9734ZM59.6302 33.1774C60.1523 33.0912 61.1507 33.0522 61.5975 33.2886L60.8375 34.3135C60.5694 34.1343 60.5819 34.0685 60.2191 33.8891C60.0146 33.7882 59.6591 33.7128 59.3525 33.7128C59.1917 33.4089 59.0697 33.3785 59.0167 33.3063C59.1183 33.2574 59.4794 33.2022 59.6302 33.1774ZM41.8296 55.7278C42.444 56.1552 43.0617 56.5487 43.6263 56.9118C44.2111 57.2874 44.7959 57.6632 45.3806 58.0391L46.6788 58.7913C46.3633 59.3868 46.0894 59.7941 45.7584 60.3632C45.403 60.9744 45.0605 61.6699 44.7517 62.4044C44.2371 63.529 43.8556 64.6705 43.5637 65.9825C43.4128 66.7327 43.3018 67.4881 43.237 68.2505C43.1921 68.8424 43.1673 69.4218 43.1692 69.9989C42.9596 69.2092 42.7745 68.4172 42.6036 67.5944C42.0311 64.6742 41.7562 62.0875 41.7422 59.1109C41.7429 58.9422 41.7441 58.7736 41.7459 58.6052C41.7559 57.637 41.7793 56.6788 41.8296 55.7278ZM38.7121 52.8511C38.7941 52.9702 38.881 53.0878 38.9723 53.2034C38.2049 54.0876 37.4318 54.7745 36.3347 55.3171C34.8876 55.9492 33.3574 56.3773 31.8324 56.7765C29.7558 57.2975 27.3552 57.838 25.0526 58.1702C26.2293 57.839 27.3768 57.473 28.5335 57.0728C29.512 56.7372 30.4918 56.4316 31.4752 56.1139C31.9959 55.9448 32.5124 55.7698 33.0223 55.5726C33.4865 55.4366 33.9378 55.2871 34.4025 55.116C35.8293 54.5877 37.3675 53.8073 38.7121 52.8511ZM41.4935 52.9456C41.1776 52.6437 40.8746 52.3319 40.5847 52.0108C41.059 51.265 41.478 50.4684 41.8144 49.6852C41.8716 49.5532 41.574 48.9473 41.2112 49.6249C40.8061 50.2376 40.3797 50.7512 39.9108 51.2183C38.9222 49.9823 38.1109 48.6198 37.4795 47.1343C37.4542 47.0737 37.426 46.9998 37.3982 46.9507C37.1461 46.5056 36.7447 46.7978 36.7445 47.003C36.7447 47.2114 36.7847 47.4216 36.8154 47.604C37.0145 48.7723 37.2251 49.727 37.6852 50.8241C37.9189 51.3799 38.1587 51.9308 38.4609 52.4534C38.3564 52.5317 38.2501 52.61 38.1413 52.6886C36.9642 53.5075 35.8668 54.1122 34.5601 54.697C34.4742 54.7348 34.3701 54.7858 34.2837 54.8163C33.7883 55.0227 33.2975 55.2103 32.7994 55.3892C32.4167 55.4963 32.0337 55.6013 31.6498 55.7037C30.5465 55.9971 29.4767 56.285 28.386 56.6295C26.6702 57.171 23.3021 58.2036 21.5637 58.2752C20.3687 58.3057 19.8704 58.0108 19.4917 58.0474C19.4426 58.0302 19.4051 58.016 19.3986 58.0108C18.4846 57.6419 17.8401 57.2204 17.2567 56.4134C16.6725 55.5633 16.7196 54.5394 16.9846 53.5841C17.129 53.088 17.4049 52.4888 17.4583 51.9931C17.4981 51.4076 16.8335 51.0998 16.3435 50.6579C17.5936 50.831 19.5303 49.8649 20.4072 49.0978L20.6915 49.1881C20.8076 49.1783 20.8982 49.1439 20.9636 49.0359C21.0368 48.9154 21.017 48.7467 20.9286 48.6601L20.8154 48.5633C20.3757 48.2017 19.8979 47.9037 19.4231 47.5927C18.7642 47.1611 17.614 45.709 16.6542 45.1999C16.3962 45.0631 16.1649 44.9954 15.8844 45.0887C16.27 44.6509 17.1267 44.3451 17.3116 43.9692C17.3977 43.7807 17.4377 43.6194 17.4583 43.4282C17.9558 43.4954 18.3869 43.4719 18.9341 43.3071L19.1295 43.2168C19.3082 43.1996 19.4835 43.1591 19.6491 43.085C20.9298 42.5127 20.9715 40.4472 19.9909 39.5172C19.6932 39.2347 19.2471 39.0429 18.8358 39.0255C18.3988 39.0179 18.0901 39.1286 17.7326 39.3758C17.0791 39.8327 16.9641 40.4923 17.032 41.2305C16.523 41.0459 15.9858 40.9774 15.3237 40.9975C15.3473 40.9968 15.2763 40.9975 15.2542 40.9988C14.9261 41.0189 14.8837 41.3879 15.0676 41.5199C15.5492 41.9073 15.9989 42.2164 16.5405 42.5162L16.7812 42.6323L16.2627 42.4725C15.0468 41.9869 13.9889 41.0847 13.913 39.7099C13.8899 39.2916 13.949 38.9526 14.1666 38.6028C14.6159 37.8805 15.4608 37.5162 15.923 37.0449C16.5598 36.3902 17.1054 35.6664 17.7449 35.0012C18.5368 34.2033 20.4257 33.2277 20.6414 32.0206C20.7387 31.3986 20.8048 30.7804 20.9088 30.1586C21.1882 30.6653 21.5414 31.0664 22.0014 31.4121C22.0344 31.6649 22.1181 31.8871 22.2345 32.1338C22.4854 32.6516 22.843 33.1232 23.3222 33.4472C23.592 33.6299 24.015 33.8201 24.3223 33.9058C24.3298 33.9077 24.3463 33.9136 24.3463 33.9136C24.4345 33.9379 24.5241 33.9635 24.6143 33.9843L24.7015 34.0263C23.9107 34.205 23.1549 34.5458 22.6904 35.2383C22.6302 35.3321 22.5842 35.4212 22.5503 35.5277C22.4845 35.7435 22.7279 35.9905 22.9859 35.7985C23.9527 35.187 25.1097 34.6516 26.2048 34.3248C26.2852 34.3003 26.3419 34.2512 26.3754 34.192C26.6512 34.1611 26.922 34.1297 27.1798 34.0889L28.2902 33.9146C28.4822 33.9411 28.6926 33.9475 28.9408 33.9298C29.0731 33.9205 29.1703 33.8456 29.2211 33.7479L29.3503 33.7241C29.431 33.705 29.5516 33.7278 29.6122 33.6136C29.6765 33.4934 29.5849 33.4025 29.4848 33.348C29.0984 33.1354 28.8205 32.9039 28.4982 32.6076C27.6159 31.7872 27.0518 31.0632 26.1127 30.1974C25.93 29.9428 25.4194 29.5149 25.2666 29.4017C24.7351 29.0087 24.1417 28.7281 23.515 28.5153C23.9726 28.2197 24.4998 28.0255 25.0527 28.0484C25.7859 28.0972 26.3466 28.2538 27.0289 28.5153C27.5324 28.7104 27.9028 28.8968 28.3732 29.1531L28.8716 29.416C28.9076 29.427 28.9678 29.4285 28.9639 29.429C29.162 29.4204 29.229 29.2866 29.2383 29.1049C29.2287 29.0517 29.2145 29.0149 29.1823 28.9721C28.6302 28.2911 27.7892 27.6536 27.0725 27.1449C26.2391 26.6066 25.4942 26.3628 24.5059 26.2874C23.4976 26.2509 22.7329 26.4171 21.8614 26.9353C21.4629 27.2048 21.223 27.4815 20.9869 27.8799C20.9325 26.1679 21.5664 24.1261 22.2012 22.5898C22.7884 21.1827 23.3796 19.844 24.092 18.4936C24.5527 17.6285 25.2219 16.634 26.0121 16.0229C27.7155 19.2192 30.8456 24.1148 33.2612 26.7048C35.1188 28.6778 37.0408 30.1171 39.0953 31.8402C41.3806 33.8073 42.9196 35.3912 44.0162 38.2608C44.4983 39.7443 44.5103 40.8336 44.2494 42.3581C44.0086 43.6935 43.4746 45.1667 43.0703 46.4651C42.9225 46.9465 42.7877 47.4034 42.6657 47.8436C42.5891 48.0724 42.5135 48.3017 42.4401 48.5319C41.9796 49.9879 41.6835 51.4597 41.4935 52.9456ZM53.6323 20.6345C54.7054 19.2065 55.6562 17.817 56.5728 16.2841C56.8016 15.9017 57.0228 15.5219 57.2379 15.1313C58.6855 16.5787 59.6719 18.09 60.417 20.0139C60.4892 20.2005 60.5508 20.3912 60.6151 20.581C60.9848 21.6994 61.2546 22.7455 61.5217 23.8178C61.7021 24.7224 61.8725 25.6273 62.103 26.5442C62.389 27.6813 62.8172 29.2206 62.8172 30.4078C62.7256 30.3466 62.6151 30.1871 62.4963 30.0923C62.3802 29.9995 62.2658 29.8836 62.1384 29.7962C61.6469 29.4592 61.4336 29.3283 60.8841 29.1238C58.5404 28.2973 54.9361 29.3983 53.0638 31.0303C52.8507 31.2159 52.6148 31.3843 52.451 31.6195C52.2274 31.9411 52.532 32.1751 52.7417 32.1751C52.7959 32.1751 53.1882 31.9649 53.2717 31.9274C53.7971 31.6914 54.4341 31.4518 55.0086 31.3313C55.9478 31.1283 56.7422 30.9557 57.7441 30.9557C57.8835 30.9557 57.9535 30.9749 58.0797 30.9736C59.0083 30.965 59.9618 31.3475 60.6919 31.8964C60.9053 32.057 61.4937 32.6216 61.5445 32.8114C61.3491 32.7176 60.7712 32.6523 60.4661 32.6523C59.0012 32.6523 57.4244 33.2228 56.1825 33.9011C55.9363 34.0354 55.1986 34.5097 55.1986 34.7731C55.1986 34.9437 55.2791 35.0522 55.446 35.0913L54.9278 35.3505C54.8117 35.4043 54.5252 35.4821 54.5517 35.7391C54.5991 36.195 55.1779 35.9495 55.3601 35.8889L56.2215 35.584C56.6686 35.4349 56.6735 35.3966 57.0221 35.6539C57.6618 36.1228 58.2841 36.478 59.0776 36.6064C59.4168 36.6558 60.0023 36.699 60.3301 36.619C60.6156 36.5492 60.8169 36.2362 60.5108 36.0789C60.374 36.0087 59.9093 36.015 59.7414 36.0104C59.7627 35.7541 60.1693 34.9101 59.9005 34.4019C60.319 34.4994 60.8139 35.4229 61.4031 34.5433C61.4326 34.5671 61.3967 34.6295 61.3825 34.7174L61.3741 34.7733C61.26 35.5216 61.4223 36.1707 61.7031 36.8613C61.8988 37.3422 62.1781 37.9665 62.4246 38.4174C62.5908 38.7216 62.7558 39.0014 62.9166 39.3137C63.2183 39.899 63.4925 40.401 63.8394 40.9622C64.1244 41.4237 64.3971 41.8091 64.7087 42.2488C65.4753 43.3405 65.9356 44.0424 64.8194 45.1169C64.7371 45.1959 64.3996 45.4603 64.3019 45.4832C63.8637 45.0592 63.6229 44.8999 62.9232 44.8999C62.8157 44.8999 62.7943 44.9176 62.6934 44.9176C62.6436 44.7037 62.5285 44.4634 62.4293 44.2979C62.1749 43.8735 61.9206 43.6788 61.4635 43.4964C60.9163 43.2784 60.4175 43.2659 59.8779 43.4809C59.4384 43.6562 59.1765 43.9054 58.9634 44.3343C58.5066 45.2541 59.0783 46.6559 60.0991 46.8753C60.5927 46.9814 61.0317 46.7992 61.462 46.5849C61.7758 46.4286 61.7029 46.473 62.0571 46.473C61.6466 47.0857 61.1908 47.5193 61.1908 48.364C61.1908 49.194 61.5752 49.6921 61.6496 50.0066C61.6675 50.0815 61.5499 50.0589 61.4834 50.0704C60.7805 50.1914 59.8104 50.6834 59.2173 50.9682C58.8365 51.1508 58.4501 51.2994 58.0875 51.5176C57.9186 51.6192 57.2315 52.0729 57.2315 52.3405C57.2315 52.5514 57.3879 52.773 57.5784 52.8592C58.7167 53.3728 58.8991 53.9541 59.5568 54.4515C59.7691 54.6118 60.2248 54.9677 60.5014 54.9739C60.4801 55.0544 60.3382 55.1131 60.2645 55.1433C59.8298 55.3217 59.327 55.5211 58.9563 55.8103C58.5738 56.1085 58.5179 56.3081 58.5844 56.765C58.7408 57.8373 58.9767 58.5789 58.8544 59.7023C58.6848 61.1789 57.6768 61.9846 56.2164 61.9888C54.6347 61.993 51.7106 60.7788 50.2858 60.045C50.0052 59.8979 49.2663 59.5486 49.0438 59.4133C48.5209 59.1143 47.8184 58.7824 47.3117 58.4765C47.1297 58.3668 47.159 58.371 47.0428 58.1974C46.6356 57.5881 45.6362 56.7441 45.0477 56.1802C44.9729 56.1093 44.898 56.0383 44.8224 55.9679C43.9045 55.1116 42.9463 54.2767 42.0122 53.426C42.186 51.8343 42.4676 50.256 42.9225 48.6775C43.1034 48.054 43.2996 47.4356 43.482 46.8125C43.6386 46.298 43.8065 45.7824 43.97 45.2659C44.3012 44.3087 44.6424 43.2853 44.7971 42.4612C45.0877 40.8316 45.0755 39.6596 44.5673 38.0696C43.4412 35.0768 41.8679 33.4241 39.495 31.3699C37.4728 29.6652 35.5543 28.2253 33.7249 26.2811C32.2449 24.6787 30.7039 22.511 29.5307 20.6991C29.4656 20.5987 29.389 20.4902 29.3294 20.3878C28.3131 18.8026 27.3672 17.2487 26.4864 15.582C26.4491 15.5086 26.4448 15.4738 26.3901 15.3979C26.266 15.2359 26.0552 15.2312 25.8818 15.3469C24.9936 15.963 24.3651 16.7962 23.8102 17.7117C23.0625 18.9998 22.1924 20.9721 21.6225 22.3495C21.1803 23.4282 20.8525 24.4107 20.6005 25.5519C20.5895 25.6045 20.5213 25.916 20.5239 25.9442C20.3387 27.0548 20.2694 28.0213 20.5071 29.0605C20.2459 29.9934 20.172 30.9636 20.0233 31.9178C19.9742 32.1616 19.8325 32.356 19.6767 32.5438C19.0412 33.2943 17.9455 33.9109 17.2982 34.5632C16.6592 35.2278 16.1134 35.952 15.4799 36.6027C15.1451 36.9207 14.6596 37.2133 14.2811 37.5351C13.5916 38.1336 13.2478 38.7766 13.2838 39.6947C13.3487 41.3469 14.5637 42.4693 16.0363 43.0511L17.0993 43.367C17.0687 43.504 17.0239 43.6344 16.9499 43.7623L16.6413 43.9839C16.2253 44.2179 15.8103 44.3944 15.4703 44.7555C15.0551 45.1964 15.0071 45.7527 15.1543 46.3257C15.3026 46.9031 15.7268 47.6049 16.2361 47.9229L16.0611 48.2609C15.4253 48.703 15.0774 49.4132 15.3574 50.2344C15.5365 50.76 15.9253 51.0946 16.3513 51.4219C16.4673 51.511 16.8764 51.7938 16.8619 51.9637C16.8143 52.3294 16.5178 53.021 16.3974 53.4221C16.0745 54.5548 16.0525 55.7572 16.7404 56.7645C17.3628 57.6306 18.0387 58.1135 18.9821 58.5178C19.3445 58.8077 20.0792 58.9415 20.7483 59.0058C21.1967 59.0733 21.6476 59.0996 22.1514 59.0935L22.9708 59.0436C24.4471 58.957 25.8407 58.7137 27.302 58.5409C28.5797 58.395 30.113 58.3322 31.2548 59.0174C32.4172 59.7347 33.1753 60.6401 33.9694 61.7332C34.9698 63.162 35.7615 64.6057 36.5709 66.1457C37.7488 68.3956 39.5782 72.3355 41.262 74.1431C41.3045 74.1887 41.6629 74.5656 41.7073 74.5253C41.7419 74.4865 41.3037 73.8831 41.3018 73.8802C39.7296 71.5752 38.4769 68.7374 37.2303 66.2329C36.444 64.6534 35.4755 62.8058 34.472 61.3773C33.6171 60.1854 32.8137 59.2329 31.5472 58.4608C31.0223 58.1498 30.4007 57.9726 29.8538 57.895C30.6045 57.7249 31.336 57.5481 32.0335 57.3731C33.5808 56.9678 35.1291 56.5291 36.594 55.878C37.7505 55.2984 38.5606 54.5882 39.3621 53.6602C39.9172 54.2646 40.5813 54.8192 41.2718 55.3286C41.2053 56.395 41.1768 57.4683 41.1658 58.548C41.1638 58.735 41.1626 58.9219 41.1616 59.1089C41.1788 62.1363 41.4586 64.769 42.0402 67.7392C42.3417 69.1898 42.6888 70.5331 43.1432 71.9437C43.1916 72.0915 43.2385 72.2393 43.2885 72.3866C43.3153 72.4629 43.3634 72.5201 43.4339 72.5599C43.6639 72.6817 43.9278 72.4953 43.89 72.2376C43.688 70.9102 43.6681 69.6265 43.7456 68.2888C43.7957 67.5448 43.891 66.8061 44.023 66.0723C44.227 65.0967 44.4794 64.2265 44.7912 63.3871C45.0769 62.6772 45.4027 61.9858 45.7592 61.3007C45.9664 60.903 46.3754 60.2424 46.5902 59.9048C46.7019 59.7295 47.05 59.1904 47.0853 59.0387C47.9595 59.4985 49.0112 60.0762 49.9016 60.4996C51.7681 61.3643 55.228 63.0098 57.2553 62.3745C59.1036 61.7757 59.4902 60.1923 59.3105 58.4365C59.2477 57.8216 59.0847 57.2886 59.0047 56.6982C58.9752 56.479 58.9448 56.381 59.1034 56.2205C59.6481 55.6686 60.4653 55.6782 61.0467 54.9709C61.176 54.8072 61.2949 54.86 61.4917 54.4615C61.8116 53.8139 61.4733 53.0988 61.0697 52.6032C60.986 52.5003 60.8517 52.3884 60.7842 52.2875C60.8279 52.2666 60.8795 52.2543 60.9254 52.2342C61.4286 52.0142 61.8268 51.6644 62.1312 51.2129C62.2341 51.0605 62.3576 50.8054 62.3576 50.6085C62.3576 49.5465 61.1412 48.693 62.0674 47.2787C62.1875 47.0953 62.5191 46.6794 62.5697 46.4907C63.5205 46.4907 64.1713 46.3475 64.8903 45.8065C65.509 45.341 66.0343 44.6794 66.0341 43.8573C66.0341 43.0462 65.3202 42.2488 64.9534 41.7566C63.8843 40.3212 63.0614 39.1755 62.3451 37.5135C61.8828 36.4417 61.422 35.311 61.9746 34.178C62.0657 33.9971 62.1936 33.6767 62.365 33.5611C62.5825 33.4143 62.9775 32.2151 63.1051 31.8974C63.3081 31.3912 63.2107 31.3615 63.2419 31.1516C63.3619 30.3444 63.2649 29.4936 63.0923 28.7185L62.513 26.382C62.2979 25.5586 62.1227 24.73 61.941 23.9045C61.708 22.7421 61.4522 21.6599 61.0697 20.4312C61.0074 20.2371 60.9436 20.0439 60.8775 19.8509C60.1113 17.7701 59.0719 16.156 57.4885 14.603C57.4185 14.5365 57.393 14.4965 57.3019 14.4474C57.2366 14.4182 57.1728 14.412 57.1031 14.429C56.9897 14.4619 56.9379 14.5281 56.8839 14.6271C56.8596 14.6715 56.8353 14.7174 56.811 14.7621C56.5819 15.1819 56.3457 15.5909 56.1007 16.0013C55.1912 17.5065 54.2637 18.8778 53.2062 20.283C51.773 22.171 50.1996 23.9715 48.4797 25.604C47.3252 26.6999 46.0967 27.7209 44.8035 28.6491C44.4036 28.9363 43.9965 29.2137 43.5893 29.4904C43.5316 29.5296 43.031 29.8581 43.0541 29.9001C43.0772 29.9421 43.4908 29.7408 43.5407 29.7167C43.9683 29.5088 44.382 29.2716 44.787 29.023C46.2239 28.1409 47.5586 27.0875 48.8055 25.9548C50.5769 24.3451 52.1871 22.541 53.6323 20.6345ZM59.052 29.4359C59.5737 29.4359 60.3325 29.5422 60.8122 29.726C61.2151 29.8802 61.7893 30.2151 62.088 30.5182C62.3176 30.751 62.6404 31.0402 62.6404 31.3976C62.6404 31.6912 62.0929 32.521 62.0748 32.5993C61.9987 32.5789 61.9793 32.5008 61.8956 32.3896C61.7016 32.1331 61.3847 31.7619 61.1304 31.564C60.457 31.0402 59.8217 30.6756 58.9563 30.5214C57.6302 30.285 56.1795 30.4466 54.891 30.7718C54.7493 30.8077 54.6369 30.8401 54.4987 30.8745C54.3565 30.9098 54.234 30.9604 54.1027 30.9911C55.447 30.0749 57.3535 29.4359 59.052 29.4359Z" fill="#333333"/>
</g>
</g>
</svg>
