<svg width="80" height="81" viewBox="0 0 80 81" fill="none" xmlns="http://www.w3.org/2000/svg">
<g id="WOMAN ICON">
<g id="Group 40">
<circle id="Ellipse 68" cx="39.7143" cy="40.9907" r="35.4286" stroke="black" stroke-width="0.571429"/>
<g id="Group 43">
<circle id="Ellipse 69" cx="66.8583" cy="15.5624" r="7.42857" fill="#70C5A3"/>
<path id="Vector 138" d="M64.002 15.0364L66.2648 17.2992L70.2877 13.2764" stroke="white" stroke-width="1.00571"/>
</g>
</g>
<g id="Group 77">
<circle id="Ellipse 79" cx="39.4732" cy="41.1305" r="3.90431" stroke="black" stroke-width="0.571429"/>
<path id="Vector 165" d="M18.5224 31.8589C17.8984 29.3033 19.4852 24.9588 30.825 28.0255C44.9998 31.8589 62.5622 46.4794 60.2443 51.9175C57.9264 57.3557 40.7206 51.6501 36.4414 48.0841" stroke="black" stroke-width="0.571429"/>
<path id="Vector 166" d="M42.3413 63.0256C40.44 64.8438 35.8841 65.6419 32.8701 54.2879C29.1026 40.0955 32.9831 17.5758 38.8516 16.864C44.7201 16.1523 48.3818 33.9058 47.4332 39.3947" stroke="black" stroke-width="0.571429"/>
<path id="Vector 167" d="M57.4234 26.8137C59.9487 27.5511 62.9178 31.0976 54.592 39.3848C44.1847 49.7438 22.7418 57.6431 19.1912 52.9166C15.6406 48.1902 29.1847 36.1423 34.4125 34.2194" stroke="black" stroke-width="0.571429"/>
<circle id="Ellipse 80" cx="19.9484" cy="34.4436" r="1.31898" stroke="black" stroke-width="0.571429"/>
<circle id="Ellipse 81" cx="54.5383" cy="27.134" r="1.31898" stroke="black" stroke-width="0.571429"/>
<circle id="Ellipse 82" cx="44.1984" cy="60.6535" r="1.31898" stroke="black" stroke-width="0.571429"/>
<path id="Star 25" d="M40.114 40.0661L40.1406 40.2897L40.3641 40.3162L46.146 41.0022L40.3641 41.6883L40.1406 41.7148L40.114 41.9383L39.428 47.7202L38.742 41.9383L38.7155 41.7148L38.4919 41.6883L32.7101 41.0022L38.4919 40.3162L38.7155 40.2897L38.742 40.0661L39.428 34.2843L40.114 40.0661Z" stroke="black" stroke-width="0.571429"/>
</g>
</g>
</svg>
