<svg width="80" height="81" viewBox="0 0 80 81" fill="none" xmlns="http://www.w3.org/2000/svg">
<circle cx="40.2885" cy="40.9897" r="35.4286" stroke="black" stroke-width="0.571429"/>
<path d="M43.1224 25.0756C43.0162 30.1362 34.9804 28.77 31.5568 33.4112C30.529 34.8045 33.2761 36.2123 35.8863 38.2262C37.8575 39.7472 39.7506 41.6139 39.8808 44.0814C40.0392 47.0783 26.2834 47.3857 25.8204 53.9913C25.5702 57.5601 42.0325 62.6456 31.32 63.3534C0.589323 65.3835 23.8023 58.589 24.3086 58.323C34.7077 52.862 32.2546 53.0213 20.5479 42.5689C8.86502 32.1378 30.4822 37.8791 29.5754 30.6412C28.9457 25.6149 25.0407 22.9254 34.2132 19.2914C39.0529 17.3741 43.5974 16.7543 47.4416 21.3341C48.9482 23.1286 47.835 24.8974 51.7406 24.5911C51.7872 24.5873 48.7463 30.1337 52.4296 31.3645C54.8771 32.1824 59.4 29.8633 56.7286 28.0143C55.0142 26.8278 48.3284 33.8849 57.5973 38.9273C69.0889 45.1789 62.8011 43.7932 58.8306 46.9439C52.5976 51.89 57.9005 57.3477 65.144 57.8608M35.9213 38.2372C37.0506 38.0521 38.3343 38.0268 39.4604 38.1312C41.8871 39.1539 42.8401 45.2344 40.8205 46.4765C38.2119 48.0808 42.4563 46.5453 44.4825 47.5114C45.3562 47.9278 42.394 50.55 40.2566 50.55C40.2566 49.8001 45.79 49.7804 46.0999 50.7006C47.3033 54.2736 40.1992 55.1804 40.4885 51.5122C40.5528 50.6966 39.7771 51.339 40.1082 51.3453C41.4262 51.3706 45.4234 51.326 46.5491 50.3542M43.9506 38.1415C45.5818 35.2674 53.9902 35.2654 57.611 35.2654M45.8039 40.2576C51.5494 37.4886 56.5661 41.9209 45.7413 42.1058C45.634 42.1076 47.6 42.7742 50.0061 42.313C52.7341 41.79 55.9443 40.1313 55.8151 40.1313M35.0732 46.83C37.6459 53.3397 41.2568 58.7302 44.7873 56.846C51.0245 53.517 55.1993 39.9285 53.7238 33.5071C53.6228 33.0675 53.4939 32.6906 53.1529 32.3995" stroke="black" stroke-width="0.346521" stroke-miterlimit="22.9256" stroke-linecap="round" stroke-linejoin="round"/>
<circle cx="65.1454" cy="13.8475" r="7.42857" fill="#70C5A3"/>
<path d="M62.2871 13.3215L64.55 15.5844L68.5728 11.5615" stroke="white" stroke-width="1.00571"/>
</svg>
