<svg width="80" height="81" viewBox="0 0 80 81" fill="none" xmlns="http://www.w3.org/2000/svg">
<circle cx="40.2846" cy="40.9907" r="35.4286" stroke="#E42769" stroke-width="0.571429"/>
<path d="M17.7957 69.8818C17.7957 69.8818 15.9808 69.8818 29.3422 69.8818C29.46 69.3376 30.5336 63.8629 30.4657 63.8556C26.339 63.4132 28.5408 60.8734 27.1697 67.1078C26.978 67.9794 26.8734 70.6713 27.4704 67.7143C27.6277 66.9347 28.7712 63.1635 27.4654 62.9635C26.7727 62.8574 24.2088 61.8935 24.3161 61.2488C24.6741 59.0953 31.4939 55.4845 31.3578 55.3355C30.9637 54.9049 29.0715 53.4252 28.5583 53.7492C27.7058 54.2877 22.3384 58.4573 23.1486 59.5932C23.709 60.3786 25.6222 63.1298 24.2569 60.3821C21.6101 55.0552 17.8863 42.3589 20.5468 37.2567C21.1742 36.0532 25.7214 39.8908 26.524 40.9669C26.8293 41.3761 28.3369 43.5504 28.3369 43.9824C29.5389 47.0118 27.5774 53.4383 32.2395 55.5825C37.3144 57.9165 32.9811 55.7119 34.5896 50.014C35.663 46.2117 37.0454 32.9922 29.8252 40.7151C27.9618 42.708 29.4544 44.5811 27.3214 42.6327C27.2302 42.5492 25.1679 41.4062 24.4577 40.8285C22.8143 39.4909 20.6188 39.1242 20.7139 37.1487C20.7555 36.284 23.6804 33.8565 24.4341 33.1023C24.9292 32.6374 25.2674 32.1619 25.9048 31.5946C26.6214 30.9569 26.8397 30.6493 27.2894 29.8821C26.9223 29.9823 29.9923 31.998 29.9384 32.0676C29.7037 32.3712 27.6702 35.5659 27.4989 34.7851C27.2625 33.708 27.5185 29.4594 26.7775 28.791C26.3324 28.3894 25.686 27.6588 25.203 27.1598C24.7111 26.3988 24.1736 26.0014 23.757 25.2482C22.2126 22.4559 20.2517 22.5533 20.4997 17.8399C20.6728 14.5506 21.981 14.2497 24.311 12.3552C25.186 11.6437 27.9651 11.3056 28.9774 11.7778C30.9841 12.7151 31.2431 12.7774 32.592 14.7495C33.2479 15.709 34.1614 16.9396 33.8955 18.1423C33.6622 19.1975 33.8686 21.755 34.9303 22.4217C35.7737 22.9513 34.6323 17.7426 34.4496 17.5561C33.2728 16.354 34.9951 21.2356 33.0675 19.0807C31.4246 17.244 32.0383 14.3331 28.2231 17.2949C25.7965 19.1789 23.8313 18.5619 22.5101 19.6011C21.8655 20.1083 22.7593 24.155 22.0421 23.0105C21.5954 22.2977 22.4413 22.0074 21.7414 20.7069C20.7228 18.8146 22.7588 17.3742 24.529 17.0381C27.3197 16.5086 27.2594 16.1921 29.6583 15.1139C30.704 14.6437 30.9867 15.5883 31.7642 16.3658C33.0648 17.6665 33.5866 19.5347 33.903 21.2787C34.0399 22.0331 35.1777 24.2975 35.1669 24.3216C35.189 23.7637 36.0979 25.9419 35.1909 27.7017C33.9269 30.1543 34.4525 33.2159 30.8947 32.2598C28.1465 31.5214 30.4024 32.5259 31.599 34.2316C32.7815 35.9166 32.5558 35.9261 33.3882 37.6999C33.5613 38.0686 35.3361 36.7953 36.4683 36.5021C36.7136 36.4387 37.925 35.8618 37.9903 35.8668C38.0452 35.9234 41.2466 44.7696 42.1296 46.2741C43.2835 48.2406 43.3984 49.3024 44.8934 51.5366C46.1542 53.421 45.8485 59.0083 45.1401 53.2516C44.9652 51.8298 47.8853 48.6228 48.5901 46.4751C48.5922 46.4684 49.2577 44.9358 49.3436 44.8548C50.7014 45.5666 50.6585 44.0978 51.4876 46.2352C52.2242 48.1345 54.2321 48.1284 55.8429 49.6446C56.225 50.004 57.3352 50.639 57.7148 50.3101C60.329 48.0466 55.8186 48.5064 57.5088 42.7599C58.6359 38.9293 54.3855 13.8321 47.6583 16.6044C44.6093 17.861 43.3662 15.8801 41.3955 20.0645C40.0902 22.8359 38.9097 21.2658 38.5471 25.4302C38.3245 27.9851 35.7236 24.0905 35.3201 23.1343C35.0836 22.5737 35.9633 24.0395 36.9606 24.6074C37.9867 25.1921 38.6735 25.8024 37.9067 26.6722C36.9923 27.709 37.2551 30.4419 37.6262 31.5953C37.6833 31.7722 37.9102 32.8642 37.9017 32.9991C38.2385 33.2727 39.1594 35.0303 38.2566 35.5571C37.5983 35.9409 39.6009 34.6541 40.0456 34.0094C41.2586 32.2508 38.7375 32.8313 39.9324 28.441C40.754 25.4222 39.4137 26.3641 41.6708 22.7693C42.5869 21.3106 43.9348 19.7332 45.6529 19.3448C46.2397 19.2122 47.3338 15.615 45.9773 18.8177C45.924 18.9435 44.5916 19.207 43.7557 19.8128C41.705 21.2991 42.3908 22.1893 40.843 24.0601C39.8454 25.2659 38.6573 30.0933 39.493 31.6238C43.0682 38.1725 50.0095 36.0849 50.7923 29.387C50.9285 28.2213 51.5658 27.9699 50.3783 26.2632C49.1062 24.4349 49.5138 19.7726 46.4166 19.404C45.4619 19.2904 49.8305 19.0426 49.7331 21.8181C49.5879 25.9508 53.5925 27.2131 50.7923 30.8857C50.3333 31.4877 50.1173 33.0026 48.9492 34.5365C47.5461 36.3789 48.6157 37.5274 47.7765 39.8736C47.2565 41.3276 47.1782 42.9496 48.1314 44.2342C49.2735 47.1687 50.5308 44.9952 51.4632 48.3328C51.9235 49.9811 55.6995 49.3878 57.3864 50.5898C57.9026 50.9578 60.2039 49.45 56.795 47.0724C54.2565 45.3019 57.2704 40.8835 57.464 38.5573C57.5127 37.9733 59.4385 43.3129 60.9141 44.7172C63.386 47.0709 65.3966 53.252 61.573 50.3939C59.4969 48.8424 58.5737 49.0145 58.4304 47.0724C58.4241 46.9847 56.2067 45.0903 60.1641 46.2851C69.1093 48.9858 56.8565 57.9142 53.6898 60.0814C51.1178 60.462 51.4607 58.6465 49.6046 57.3461C47.6048 55.9448 52.0447 55.0448 53.5766 53.261C53.776 53.0288 56.4627 51.2492 55.9857 50.2166C55.9682 50.2129 54.291 52.3306 53.9703 52.6459C52.7137 53.8811 49.2048 57.3432 47.2444 56.4592C45.0837 55.4847 37.8032 55.7652 40.0895 56.5774C41.8198 57.1921 39.8729 55.3047 39.6115 56.5876C39.4463 57.3983 42.0623 57.4073 42.5731 57.5388C42.8139 57.3977 43.3743 57.5704 43.5245 57.8959C44.113 59.1736 41.3333 61.3585 40.5729 62.2498C40.5719 62.2512 40.4793 62.297 40.4741 62.2987C40.7627 62.0007 41.1791 61.1937 41.7851 60.584C42.376 59.9895 44.5467 57.555 42.4551 57.5979C41.6966 57.6135 39.9493 57.3809 39.506 56.738C39.5001 56.7293 37.1136 56.661 36.8992 56.6298C35.2652 56.3926 33.9388 57.1159 32.3038 56.2455C31.4679 55.8004 32.6014 57.4012 33.0042 56.7133C33.1293 56.4995 31.4982 55.7902 31.9196 56.7405C32.4931 58.0342 36.1801 57.6066 36.0147 57.7458C34.9139 58.6718 32.874 59.1575 31.5055 59.936C31.2233 60.0968 28.5539 61.2359 28.6849 61.5894C29.0535 62.5827 30.0183 60.964 28.7365 61.4195C28.7159 61.4267 28.5108 62.8901 30.5696 61.4786C31.5526 60.8045 35.437 59.9897 33.6714 61.4634C32.6011 62.3567 31.9564 63.3625 30.9836 64.0433C30.1993 64.5918 31.9317 65.3999 31.1686 64.2822C30.7431 63.6592 30.7127 65.5726 31.6339 64.8659C32.0451 64.5506 37.3754 60.075 34.3861 62.9096C34.0673 63.2118 32.3662 64.653 32.4297 65.0806C32.5479 65.8768 33.6168 65.3988 32.7008 64.817C32.3435 64.5898 31.9627 66.9181 34.5237 64.435C34.7156 64.2491 36.7057 62.3024 36.6627 63.0946C36.6192 63.8941 33.1472 65.7619 35.3001 65.8466C35.7281 65.8635 35.2851 64.8859 34.7164 65.7656C34.3256 66.3698 36.085 65.3076 36.2538 65.1885C37.5154 64.2995 37.1255 64.252 38.6901 63.6022C38.8716 63.5268 39.0328 63.3298 39.321 63.2153C40.6258 62.5411 40.5667 61.9076 39.3404 63.5582C39.0693 63.9233 37.8128 65.029 38.0792 65.4379C38.8926 66.6859 39.7793 65.7022 38.3156 65.1962C37.762 65.0047 38.2839 67.3317 40.7105 64.349C40.9756 64.0231 43.0545 62.3825 43.032 62.6832C43.0026 63.0724 43.9386 63.1105 42.4372 64.2578C41.5861 64.9079 41.7666 65.2403 40.5602 65.9548C40.0196 66.2751 40.5531 67.6073 42.3047 66.8327C42.7115 66.6526 43.6781 65.5137 43.8985 65.0509C43.9029 65.0421 46.0917 62.8857 44.5643 64.2595C44.3419 64.4595 41.2007 67.3571 43.1325 67.2954C43.82 67.2735 43.7894 67.7461 44.5516 66.613C45.3014 65.4982 45.4675 65.5601 46.4759 64.812C46.4836 64.8062 45.1936 65.7101 44.7214 66.4033C44.5252 66.6915 44.2126 66.9957 44.6106 67.3301C44.9623 67.6254 46.0441 66.839 46.2612 66.5242C46.8894 65.6138 48.3082 65.762 49.642 64.1191C50.6696 62.8535 50.7372 63.4365 51.214 61.71C51.2803 61.4702 51.5854 61.0746 51.6203 60.9388C52.8054 59.7535 51.729 60.3755 51.9506 60.9683C52.0257 61.1691 53.0801 61.8444 53.3596 61.5647C53.7141 61.2103 56.0933 59.1028 56.617 59.4528C57.2559 59.88 56.7247 60.5259 56.1786 59.7832C55.7786 59.2393 57.2642 59.2726 56.7648 60.1083C56.3546 60.795 56.7149 60.4102 56.036 61.0622C54.7165 62.3287 56.411 62.7704 57.0952 60.1455C57.5333 59.9937 57.3406 61.9255 57.063 62.5082C56.2383 64.2401 56.9265 62.6137 57.1687 62.3182C57.3231 62.1299 57.548 63.784 56.9076 63.3953C56.292 63.0216 53.8022 62.7598 53.0861 61.7125C53.0652 61.6821 56.7161 63.6134 57.7456 63.7476C58.4578 63.8404 58.7565 65.0542 56.6247 64.822C54.169 64.5544 55.6203 65.9742 56.4321 66.0512C56.6939 66.0759 56.4471 67.8911 55.4962 67.3546C54.2383 66.6451 53.8018 67.3682 54.5796 68.1207C54.9429 68.4723 54.6225 69.385 53.9164 68.9782C52.168 67.9706 53.7377 69.7265 51.8865 69.4485C51.6203 69.4086 48.4765 68.0901 48.2846 67.8275C48.0185 67.4637 46.2712 66.4678 47.8832 67.2142C49.3823 67.9084 47.9997 67.7432 47.2691 67.7904C45.7168 67.8907 43.2517 67.4027 41.4076 67.4136C38.9415 67.4283 35.9753 67.2103 33.6791 66.2801C33.041 66.0215 32.027 65.7078 31.4566 65.2848C33.4337 67.0005 36.2026 67.1085 38.8187 67.6054C41.0306 68.0256 46.7818 67.8526 48.1666 68.3995C48.7 68.0516 51.6141 69.7519 52.0642 69.8676C71.2143 69.8772 63.6807 69.8818 63.6807 69.8818" stroke="black" stroke-width="0.571429" stroke-miterlimit="2.6131" stroke-linecap="round" stroke-linejoin="round"/>
<circle cx="64.5712" cy="13.8465" r="7.42857" fill="#E42769"/>
<path d="M61.7148 13.3205L63.9777 15.5834L68.0006 11.5605" stroke="white" stroke-width="1.00571"/>
</svg>
