<svg width="24" height="23" viewBox="0 0 24 23" fill="none" xmlns="http://www.w3.org/2000/svg">
<path id="Star 3" d="M11.3469 0.899291C11.6292 0.382989 12.3708 0.38299 12.6531 0.899292L16.138 7.27114C16.2063 7.39605 16.309 7.49875 16.4339 7.56706L22.8058 11.0519C23.3221 11.3343 23.3221 12.0758 22.8058 12.3582L16.4339 15.8431C16.309 15.9114 16.2063 16.0141 16.138 16.139L12.6531 22.5109C12.3708 23.0272 11.6292 23.0272 11.3469 22.5109L7.86198 16.139C7.79367 16.0141 7.69097 15.9114 7.56606 15.8431L1.19421 12.3582C0.677911 12.0758 0.677912 11.3343 1.19421 11.0519L7.56606 7.56706C7.69097 7.49875 7.79367 7.39605 7.86198 7.27114L11.3469 0.899291Z" fill="#EFCE6B"/>
</svg>
