<svg width="43" height="42" viewBox="0 0 43 42" fill="none" xmlns="http://www.w3.org/2000/svg">
<path d="M11.1547 10.2423L13.1955 8.39295L15.3425 6.77166C15.608 6.57115 15.9316 6.46268 16.2643 6.46268H30.5385C31.3834 6.46268 32.0683 7.14757 32.0683 7.99244V31.0319C32.0683 31.8768 31.3834 32.5617 30.5385 32.5617H12.1819C11.337 32.5617 10.6521 31.8768 10.6521 31.0319V11.3759C10.6521 10.944 10.8347 10.5323 11.1547 10.2423Z" stroke="#151F39" stroke-width="0.437074"/>
<path d="M12.6783 12.6295L14.7817 10.5261L16.9102 8.7523C17.1852 8.5232 17.5317 8.39774 17.8896 8.39774H32.1171C32.9619 8.39774 33.6468 9.08263 33.6468 9.9275V35.7148C33.6468 36.5597 32.9619 37.2446 32.1171 37.2446H13.76C12.9152 37.2446 12.2303 36.5597 12.2303 35.7148V13.7112C12.2303 13.3055 12.3914 12.9164 12.6783 12.6295Z" stroke="#151F39" stroke-width="0.437074"/>
<path d="M10.972 6.43043L13.1541 4.97649C13.4412 4.78519 13.7785 4.68311 14.1235 4.68311H28.4545C29.4201 4.68311 30.2028 5.46584 30.2028 6.4314V26.349C30.2028 27.3145 29.4201 28.0973 28.4545 28.0973H10.0979C9.13235 28.0973 8.34961 27.3145 8.34961 26.349V9.36778C8.34961 8.83652 8.59118 8.33407 9.00611 8.00231L10.972 6.43043Z" fill="#151F39"/>
<rect x="16.3809" y="9.05322" width="10.9266" height="3.05945" rx="0.874148" fill="white"/>
<rect x="11.5742" y="14.2979" width="15.7343" height="0.874129" rx="0.437065" fill="white"/>
<rect x="11.5742" y="16.4839" width="15.7343" height="0.874129" rx="0.437065" fill="white"/>
<rect x="19.0059" y="18.6689" width="8.30423" height="0.874129" rx="0.437065" fill="white"/>
</svg>
