<svg width="43" height="42" viewBox="0 0 43 42" fill="none" xmlns="http://www.w3.org/2000/svg">
<circle cx="14.5933" cy="15.7286" r="12.0855" fill="#151F39"/>
<path d="M17.3169 19.0784H17.3992L17.4267 21.7271L17.3443 21.8095H11.1685V21.6997L14.7917 19.2568L14.778 19.2156C14.5584 19.2568 14.38 19.2843 14.2839 19.2843C11.7998 19.2843 9.98828 17.1433 9.98828 14.4671C9.98828 10.446 13.6526 9.62256 14.2564 9.62256C16.6993 9.62256 18.5383 11.7635 18.5383 14.4397C18.5383 16.759 17.3169 18.0079 16.1778 18.6667L16.2327 18.6392L14.0094 20.094V20.1214L15.9033 20.1351C16.9601 20.1351 17.1797 19.4901 17.3169 19.0784ZM12.7468 14.7004C13.7212 17.2668 14.9838 18.749 15.8896 18.4745C16.6307 18.2275 16.6444 16.4708 15.574 13.8084C14.6133 11.4067 13.4742 10.1852 12.6233 10.4323C11.9096 10.6656 11.7724 12.1341 12.7468 14.7004Z" fill="white"/>
<circle cx="28.4058" cy="25.3961" r="11.7402" stroke="#151F39" stroke-width="0.690601"/>
<path d="M26.7855 20.2651H29.8697L33.2834 30.2815V30.3714H29.2259V30.2815L29.9895 29.503L29.0912 26.8679H26.6357C26.6657 28.2902 27.04 29.518 27.7137 30.2815V30.3714H23.8809V30.2815L27.4293 22.1666L26.7855 20.355V20.2651ZM26.6357 26.5984H29.0014L27.6389 22.5858H27.5491L27.2047 23.559C26.8454 24.5921 26.6657 25.6402 26.6357 26.5984Z" fill="#151F39"/>
</svg>
