<svg width="42" height="42" viewBox="0 0 42 42" fill="none" xmlns="http://www.w3.org/2000/svg">
<rect x="8.91329" y="7.1169" width="24.5546" height="26.8711" rx="0.694941" stroke="#151F39" stroke-width="0.463294"/>
<rect x="8.91329" y="10.3596" width="24.5546" height="26.8711" rx="0.694941" stroke="#151F39" stroke-width="0.463294"/>
<rect x="8.91329" y="3.87374" width="24.5546" height="26.8711" rx="0.694941" fill="#151F39" stroke="#151F39" stroke-width="0.463294"/>
<rect x="12.1555" y="8.96993" width="17.6052" height="2.77977" rx="0.694941" stroke="white" stroke-width="0.463294"/>
<circle cx="17.0203" cy="5.95882" r="0.694942" stroke="white" stroke-width="0.463294"/>
<circle cx="24.8973" cy="5.95882" r="0.694942" stroke="white" stroke-width="0.463294"/>
<path d="M26.73 16.1676L26.7146 25.3896L27.5152 26.2518V26.3441H22.9119V26.2518L23.7125 25.3896V17.4917L22.6348 17.3069V17.2145L26.6376 15.752H26.73V16.1676Z" fill="white"/>
<path d="M22.1661 15.9526V16.0296L18.7483 19.6784V19.7554C20.7189 19.663 22.1507 20.5713 22.1507 22.2341C22.1507 23.9122 20.334 27.1607 14.4375 26.1907L14.4529 22.8191L14.5453 22.8037C16.4697 24.4972 18.2556 25.1592 19.3487 25.1592C20.0107 25.1592 20.8575 24.9745 20.8575 24.0969C20.8575 23.3887 20.2417 22.2187 16.3773 22.1263L16.3158 22.0031L19.5027 18.4005H16.4851C15.6076 18.4005 14.9763 18.8624 14.7146 19.8477H14.6222V16.045L14.6992 15.9526H22.1661Z" fill="white"/>
</svg>
