<svg width="64" height="60" viewBox="0 0 64 60" fill="none" xmlns="http://www.w3.org/2000/svg">
<path d="M20.9416 22.6404L33.0159 32L44.9148 21.9378C46.1263 20.9133 47.9635 21.1948 48.8128 22.5349L62.3199 43.8489C63.1942 45.2285 62.604 47.0632 61.0893 47.6743L33.9641 58.6174C33.3544 58.8634 32.6745 58.8707 32.0596 58.6379L3.22825 47.7222C1.60757 47.1086 1.02093 45.1171 2.05018 43.7229L17.2351 23.1541C18.1073 21.9727 19.781 21.7407 20.9416 22.6404Z" stroke="white" stroke-width="0.871795"/>
<path d="M33 32L33 59" stroke="white" stroke-width="0.871795"/>
<path d="M33 0L34.6971 14.3029L49 16L34.6971 17.6971L33 32L31.3029 17.6971L17 16L31.3029 14.3029L33 0Z" fill="white"/>
</svg>
