<svg width="116" height="77" viewBox="0 0 116 77" fill="none" xmlns="http://www.w3.org/2000/svg">
<rect x="0.0302734" y="76.9553" width="22.9851" height="22.9851" rx="1.72388" transform="rotate(-90 0.0302734 76.9553)" fill="#D9D9D9" fill-opacity="0.2"/>
<rect x="0.0302734" y="49.9702" width="22.9851" height="22.9851" rx="1.72388" transform="rotate(-90 0.0302734 49.9702)" fill="#D9D9D9" fill-opacity="0.2"/>
<rect x="0.0302734" y="22.9851" width="22.9851" height="22.9851" rx="1.72388" transform="rotate(-90 0.0302734 22.9851)" fill="#B1E1C0"/>
<rect x="31.0156" y="76.9553" width="22.9851" height="22.9851" rx="1.72388" transform="rotate(-90 31.0156 76.9553)" fill="#D9D9D9" fill-opacity="0.2"/>
<rect x="31.0156" y="49.9702" width="22.9851" height="22.9851" rx="1.72388" transform="rotate(-90 31.0156 49.9702)" fill="#D9D9D9" fill-opacity="0.2"/>
<rect x="31.0156" y="22.9851" width="22.9851" height="22.9851" rx="1.72388" transform="rotate(-90 31.0156 22.9851)" fill="#B1E1C0"/>
<rect x="62" y="76.9553" width="22.9851" height="22.9851" rx="1.72388" transform="rotate(-90 62 76.9553)" fill="#D9D9D9" fill-opacity="0.2"/>
<rect x="62" y="49.9702" width="22.9851" height="22.9851" rx="1.72388" transform="rotate(-90 62 49.9702)" fill="#D9D9D9" fill-opacity="0.2"/>
<rect x="62" y="22.9851" width="22.9851" height="22.9851" rx="1.72388" transform="rotate(-90 62 22.9851)" fill="#B1E1C0"/>
<rect x="92.9854" y="76.9553" width="22.9851" height="22.9851" rx="1.72388" transform="rotate(-90 92.9854 76.9553)" fill="#D9D9D9" fill-opacity="0.2"/>
<rect x="92.9854" y="49.9702" width="22.9851" height="22.9851" rx="1.72388" transform="rotate(-90 92.9854 49.9702)" fill="#D9D9D9" fill-opacity="0.2"/>
<rect x="92.9854" y="22.9851" width="22.9851" height="22.9851" rx="1.72388" transform="rotate(-90 92.9854 22.9851)" fill="#D9D9D9" fill-opacity="0.2"/>
</svg>
