<svg width="65" height="65" viewBox="0 0 65 65" fill="none" xmlns="http://www.w3.org/2000/svg">
<path d="M29.868 11.4187L33.0645 6.27432L35.8676 11.6432L35.9419 11.7855L36.0631 11.6802L40.6339 7.70652L41.73 13.6631L41.759 13.821L41.9058 13.756L47.4449 11.3062L46.7365 17.3212L46.7177 17.4807L46.8772 17.4619L52.8922 16.7535L50.4424 22.2926L50.3774 22.4394L50.5353 22.4684L56.4919 23.5645L52.5182 28.1353L52.4129 28.2565L52.5552 28.3308L57.9241 31.1339L52.7797 34.3304L52.6434 34.4151L52.7574 34.528L57.0616 38.7891L51.2035 40.3273L51.0483 40.3681L51.124 40.5096L53.9809 45.8501L47.9298 45.5932L47.7694 45.5864L47.8 45.744L48.9559 51.6892L43.2493 49.6602L43.098 49.6064L43.0809 49.766L42.433 55.7879L37.578 52.1669L37.4493 52.0709L37.3859 52.2184L34.9918 57.7817L31.4198 52.8906L31.3251 52.761L31.221 52.8832L27.2935 57.4937L25.3218 51.767L25.2696 51.6152L25.1341 51.7013L20.0221 54.9493L19.826 48.8959L19.8208 48.7354L19.666 48.7778L13.8237 50.3747L15.4206 44.5324L15.463 44.3776L15.3025 44.3724L9.24911 44.1763L12.4971 39.0643L12.5832 38.9288L12.4314 38.8766L6.70474 36.9049L11.3152 32.9774L11.4374 32.8733L11.3078 32.7786L6.41669 29.2066L11.98 26.8125L12.1275 26.7491L12.0315 26.6204L8.41055 21.7654L14.4324 21.1175L14.592 21.1004L14.5382 20.9491L12.5092 15.2425L18.4544 16.3984L18.612 16.429L18.6052 16.2686L18.3483 10.2175L23.6888 13.0744L23.8303 13.1501L23.8711 12.9949L25.4093 7.13686L29.6704 11.441L29.7833 11.555L29.868 11.4187Z" fill="#A4332B"/>
<path d="M29.868 11.4187L33.0645 6.27432L35.8676 11.6432L35.9419 11.7855L36.0631 11.6802L40.6339 7.70652L41.73 13.6631L41.759 13.821L41.9058 13.756L47.4449 11.3062L46.7365 17.3212L46.7177 17.4807L46.8772 17.4619L52.8922 16.7535L50.4424 22.2926L50.3774 22.4394L50.5353 22.4684L56.4919 23.5645L52.5182 28.1353L52.4129 28.2565L52.5552 28.3308L57.9241 31.1339L52.7797 34.3304L52.6434 34.4151L52.7574 34.528L57.0616 38.7891L51.2035 40.3273L51.0483 40.3681L51.124 40.5096L53.9809 45.8501L47.9298 45.5932L47.7694 45.5864L47.8 45.744L48.9559 51.6892L43.2493 49.6602L43.098 49.6064L43.0809 49.766L42.433 55.7879L37.578 52.1669L37.4493 52.0709L37.3859 52.2184L34.9918 57.7817L31.4198 52.8906L31.3251 52.761L31.221 52.8832L27.2935 57.4937L25.3218 51.767L25.2696 51.6152L25.1341 51.7013L20.0221 54.9493L19.826 48.8959L19.8208 48.7354L19.666 48.7778L13.8237 50.3747L15.4206 44.5324L15.463 44.3776L15.3025 44.3724L9.24911 44.1763L12.4971 39.0643L12.5832 38.9288L12.4314 38.8766L6.70474 36.9049L11.3152 32.9774L11.4374 32.8733L11.3078 32.7786L6.41669 29.2066L11.98 26.8125L12.1275 26.7491L12.0315 26.6204L8.41055 21.7654L14.4324 21.1175L14.592 21.1004L14.5382 20.9491L12.5092 15.2425L18.4544 16.3984L18.612 16.429L18.6052 16.2686L18.3483 10.2175L23.6888 13.0744L23.8303 13.1501L23.8711 12.9949L25.4093 7.13686L29.6704 11.441L29.7833 11.555L29.868 11.4187Z" fill="black" fill-opacity="0.2"/>
<path d="M29.868 11.4187L33.0645 6.27432L35.8676 11.6432L35.9419 11.7855L36.0631 11.6802L40.6339 7.70652L41.73 13.6631L41.759 13.821L41.9058 13.756L47.4449 11.3062L46.7365 17.3212L46.7177 17.4807L46.8772 17.4619L52.8922 16.7535L50.4424 22.2926L50.3774 22.4394L50.5353 22.4684L56.4919 23.5645L52.5182 28.1353L52.4129 28.2565L52.5552 28.3308L57.9241 31.1339L52.7797 34.3304L52.6434 34.4151L52.7574 34.528L57.0616 38.7891L51.2035 40.3273L51.0483 40.3681L51.124 40.5096L53.9809 45.8501L47.9298 45.5932L47.7694 45.5864L47.8 45.744L48.9559 51.6892L43.2493 49.6602L43.098 49.6064L43.0809 49.766L42.433 55.7879L37.578 52.1669L37.4493 52.0709L37.3859 52.2184L34.9918 57.7817L31.4198 52.8906L31.3251 52.761L31.221 52.8832L27.2935 57.4937L25.3218 51.767L25.2696 51.6152L25.1341 51.7013L20.0221 54.9493L19.826 48.8959L19.8208 48.7354L19.666 48.7778L13.8237 50.3747L15.4206 44.5324L15.463 44.3776L15.3025 44.3724L9.24911 44.1763L12.4971 39.0643L12.5832 38.9288L12.4314 38.8766L6.70474 36.9049L11.3152 32.9774L11.4374 32.8733L11.3078 32.7786L6.41669 29.2066L11.98 26.8125L12.1275 26.7491L12.0315 26.6204L8.41055 21.7654L14.4324 21.1175L14.592 21.1004L14.5382 20.9491L12.5092 15.2425L18.4544 16.3984L18.612 16.429L18.6052 16.2686L18.3483 10.2175L23.6888 13.0744L23.8303 13.1501L23.8711 12.9949L25.4093 7.13686L29.6704 11.441L29.7833 11.555L29.868 11.4187Z" stroke="#A4332B" stroke-width="0.253394"/>
<path d="M28.8744 15.7008L29.0909 16.1301L29.1141 15.6498L29.2916 11.9686L30.598 15.4148L30.7685 15.8644L30.8417 15.3892L31.4031 11.7466L32.3421 15.3106L32.4647 15.7755L32.5872 15.3106L33.5262 11.7466L34.0876 15.3892L34.1608 15.8644L34.3313 15.4148L35.6377 11.9686L35.8152 15.6498L35.8384 16.1301L36.0549 15.7008L37.7144 12.41L37.5062 16.0897L37.479 16.5697L37.7392 16.1654L39.7336 13.0661L39.1419 16.7038L39.0647 17.1784L39.3657 16.8035L41.6731 13.9296L40.7044 17.4856L40.578 17.9495L40.9166 17.6081L43.5118 14.9912L42.1767 18.4264L42.0025 18.8746L42.3749 18.5704L45.2294 16.2391L43.5426 19.5159L43.3225 19.9435L43.7247 19.6799L46.8072 17.6597L44.7871 20.7423L44.5235 21.1445L44.951 20.9244L48.2279 19.2375L45.8965 22.092L45.5924 22.4645L46.0406 22.2903L49.4758 20.9551L46.8589 23.5503L46.5174 23.8889L46.9814 23.7625L50.5373 22.7938L47.6635 25.1012L47.2885 25.4023L47.7631 25.3251L51.4009 24.7334L48.3016 26.7278L47.8972 26.988L48.3773 26.9608L52.057 26.7526L48.7662 28.4121L48.3368 28.6286L48.8171 28.6517L52.4984 28.8293L49.0521 30.1357L48.6025 30.3061L49.0778 30.3794L52.7203 30.9407L49.1564 31.8798L48.6914 32.0023L49.1564 32.1248L52.7203 33.0639L49.0778 33.6252L48.6025 33.6985L49.0521 33.8689L52.4984 35.1753L48.8171 35.3529L48.3368 35.376L48.7662 35.5925L52.057 37.252L48.3773 37.0438L47.8972 37.0166L48.3016 37.2769L51.4009 39.2712L47.7631 38.6795L47.2885 38.6023L47.6635 38.9034L50.5373 41.2108L46.9814 40.2421L46.5174 40.1157L46.8589 40.4543L49.4758 43.0495L46.0406 41.7143L45.5924 41.5401L45.8965 41.9126L48.2279 44.7671L44.951 43.0802L44.5235 42.8601L44.7871 43.2623L46.8072 46.3449L43.7247 44.3247L43.3225 44.0611L43.5426 44.4887L45.2294 47.7655L42.3749 45.4342L42.0025 45.13L42.1767 45.5782L43.5118 49.0134L40.9166 46.3965L40.578 46.0551L40.7044 46.519L41.6731 50.075L39.3657 47.2011L39.0647 46.8262L39.1419 47.3008L39.7336 50.9385L37.7392 47.8392L37.479 47.4349L37.5062 47.9149L37.7144 51.5946L36.0549 48.3038L35.8384 47.8745L35.8152 48.3548L35.6377 52.036L34.3313 48.5898L34.1608 48.1402L34.0876 48.6154L33.5262 52.258L32.5872 48.694L32.4647 48.2291L32.3421 48.694L31.4031 52.258L30.8417 48.6154L30.7685 48.1402L30.598 48.5898L29.2916 52.036L29.1141 48.3548L29.0909 47.8745L28.8744 48.3038L27.2149 51.5946L27.4231 47.9149L27.4503 47.4349L27.1901 47.8392L25.1957 50.9385L25.7874 47.3008L25.8646 46.8262L25.5636 47.2011L23.2562 50.075L24.2249 46.519L24.3513 46.0551L24.0127 46.3965L21.4175 49.0134L22.7526 45.5782L22.9268 45.13L22.5544 45.4342L19.6999 47.7655L21.3867 44.4887L21.6068 44.0611L21.2047 44.3247L18.1221 46.3449L20.1423 43.2623L20.4058 42.8601L19.9783 43.0802L16.7015 44.7671L19.0328 41.9126L19.3369 41.5401L18.8887 41.7143L15.4535 43.0495L18.0704 40.4543L18.4119 40.1157L17.9479 40.2421L14.392 41.2108L17.2658 38.9034L17.6408 38.6023L17.1662 38.6795L13.5284 39.2712L16.6277 37.2769L17.0321 37.0166L16.552 37.0438L12.8723 37.252L16.1631 35.5925L16.5925 35.376L16.1122 35.3529L12.4309 35.1753L15.8772 33.8689L16.3268 33.6985L15.8515 33.6252L12.209 33.0639L15.7729 32.1248L16.2379 32.0023L15.7729 31.8798L12.209 30.9407L15.8515 30.3794L16.3268 30.3061L15.8772 30.1357L12.4309 28.8293L16.1122 28.6517L16.5925 28.6286L16.1631 28.4121L12.8723 26.7526L16.552 26.9608L17.0321 26.988L16.6277 26.7278L13.5284 24.7334L17.1662 25.3251L17.6408 25.4023L17.2658 25.1012L14.392 22.7938L17.9479 23.7625L18.4119 23.8889L18.0704 23.5503L15.4535 20.9551L18.8887 22.2903L19.3369 22.4645L19.0328 22.092L16.7015 19.2375L19.9783 20.9244L20.4058 21.1445L20.1423 20.7423L18.1221 17.6597L21.2047 19.6799L21.6068 19.9435L21.3867 19.5159L19.6999 16.2391L22.5544 18.5704L22.9268 18.8746L22.7526 18.4264L21.4175 14.9912L24.0127 17.6081L24.3513 17.9495L24.2249 17.4856L23.2562 13.9296L25.5636 16.8035L25.8646 17.1784L25.7874 16.7038L25.1957 13.0661L27.1901 16.1654L27.4503 16.5697L27.4231 16.0897L27.2149 12.41L28.8744 15.7008Z" stroke="#A4332B" stroke-width="0.253394"/>
<circle cx="32.0198" cy="32.0554" r="14.8236" transform="rotate(-15 32.0198 32.0554)" fill="#A4332B" stroke="black" stroke-width="0.126697"/>
<path d="M25.274 38.2648L25.7595 37.8343L25.7999 37.8641C25.52 38.6374 25.3424 39.2777 24.8727 39.4035C24.5091 39.501 24.1679 39.3488 24.0026 38.4593C23.6818 39.2923 23.3934 39.7918 23.151 39.8568C22.3025 40.0841 21.8391 39.5668 21.6442 38.8396L20.981 36.3946L20.5473 36.1698L20.5351 36.1244L22.2245 35.6717L22.9532 38.3914C23.0547 38.7702 23.2745 38.8331 23.5018 38.7722C23.6912 38.7214 23.8067 38.5768 23.8742 38.4044L23.178 35.806L22.7366 35.5832L22.7245 35.5377L24.4214 35.083L25.274 38.2648ZM29.2943 35.0846L29.9409 37.5584L30.3761 37.7584L30.3883 37.8039L28.3504 38.3499L28.3382 38.3045L28.6075 37.9156L27.9701 35.5368C27.8687 35.1581 27.6564 35.0931 27.4291 35.154C27.2321 35.2068 27.1166 35.3514 27.0512 35.5314L27.7515 38.145L28.1791 38.3471L28.1913 38.3925L26.1534 38.9386L26.1413 38.8931L26.4182 38.5023L25.659 35.6689L25.1659 36.1015L25.1254 36.0717C25.415 35.304 25.5926 34.6637 26.0547 34.5398C26.4183 34.4424 26.7575 34.587 26.9207 35.4689L26.9283 35.4669C27.2491 34.6339 27.5375 34.1344 27.7799 34.0694C28.6209 33.8441 29.0994 34.3573 29.2943 35.0846ZM30.3946 32.9872C29.9931 33.0948 29.6533 32.9179 29.5539 32.5467C29.4564 32.1831 29.6642 31.8676 30.0657 31.76C30.4521 31.6564 30.7746 31.8298 30.8721 32.1935C30.9715 32.5647 30.7809 32.8837 30.3946 32.9872ZM30.8479 37.3153L29.9643 33.9876L29.5306 33.7628L29.5184 33.7173L31.2078 33.2646L31.3052 33.6283L32.1812 36.9581L32.6089 37.1601L32.621 37.2056L30.5832 37.7516L30.571 37.7062L30.8479 37.3153ZM35.778 33.2986L36.9594 37.7077L37.3946 37.9077L37.4068 37.9532L35.3689 38.4992L35.3567 38.4538L35.626 38.0649L34.9846 35.671C34.6585 36.3024 34.4368 36.8084 34.3267 36.8216C33.277 36.9649 32.6335 36.2604 32.3575 35.2301C31.8459 33.321 33.249 32.5878 33.7036 32.466C34.1278 32.3523 34.5164 32.3781 34.8343 32.504L35.3529 31.8941L35.4135 31.8779L35.778 33.2986ZM34.6134 35.7705C34.7346 35.738 34.8643 35.6464 34.9399 35.5043L34.4182 33.5574C34.2213 32.8225 33.8927 32.6264 33.6276 32.6974C33.3624 32.7685 33.194 33.0491 33.4762 34.1021C33.7725 35.2082 34.1361 35.8984 34.6134 35.7705ZM40.7213 34.1257L41.2068 33.6952L41.2473 33.725C40.9673 34.4983 40.7897 35.1386 40.3201 35.2644C39.9564 35.3619 39.6152 35.2097 39.45 34.3202C39.1291 35.1532 38.8408 35.6527 38.5983 35.7177C37.7499 35.945 37.2865 35.4277 37.0916 34.7005L36.4284 32.2555L35.9946 32.0307L35.9824 31.9853L37.6718 31.5326L38.4006 34.2523C38.5021 34.6311 38.7219 34.694 38.9492 34.6331C39.1386 34.5823 39.2541 34.4377 39.3216 34.2653L38.6253 31.6669L38.184 31.4441L38.1718 31.3986L39.8688 30.9439L40.7213 34.1257ZM44.8378 32.7385L44.8858 32.7663C44.4306 33.6434 44.0151 34.2744 43.7575 34.3434C42.5454 34.6682 41.3949 34.132 41.0519 32.8517C40.5708 31.0563 42.1167 30.2198 42.541 30.1061C43.4955 29.8504 44.1104 30.327 44.374 31.0684C44.4308 31.2805 43.5471 32.0126 43.2289 32.0978L42.2592 32.3577C42.71 32.9189 43.4022 33.3506 44.1825 33.1415C44.3946 33.0846 44.5774 32.9788 44.8378 32.7385ZM41.9904 30.6271C41.7707 30.686 41.6402 30.9565 41.762 31.411C41.833 31.6761 41.9748 31.9629 42.1697 32.2355L43.1621 31.9696C42.9115 31.0949 42.4071 30.5155 41.9904 30.6271Z" fill="#FFD8BA"/>
<path d="M21.9983 27.7226L23.4496 33.1754L24.0593 33.5582L24.0739 33.6128L21.3533 34.3418L21.3387 34.2872L21.6753 33.6508L20.4245 28.983L19.7583 29.0445L19.7437 28.9899L21.8779 27.4916L21.9325 27.4769L21.9983 27.7226ZM27.1283 32.9407C25.5632 33.36 24.1176 32.187 23.6568 30.4672C22.901 27.6465 25.0024 26.6446 25.3663 26.5471C26.9314 26.1277 28.377 27.3008 28.8427 29.0387C29.5936 31.8412 27.4831 32.8456 27.1283 32.9407ZM27.9465 32.1363C28.3163 31.8421 28.0273 30.6908 26.8925 29.1126C25.8471 27.6861 24.9774 27.0609 24.5233 27.3679C24.1644 27.6298 24.35 28.6138 25.4065 30.1545C26.4787 31.6811 27.4857 32.4548 27.9465 32.1363ZM32.7796 31.4264C31.2146 31.8457 29.769 30.6727 29.3082 28.953C28.5524 26.1322 30.6538 25.1303 31.0177 25.0328C32.5828 24.6134 34.0284 25.7865 34.494 27.5244C35.245 30.3269 33.1345 31.3313 32.7796 31.4264ZM33.5979 30.622C33.9677 30.3278 33.6787 29.1765 32.5439 27.5983C31.4985 26.1718 30.6288 25.5466 30.1747 25.8536C29.8157 26.1156 30.0014 27.0996 31.0579 28.6402C32.1301 30.1668 33.1371 30.9405 33.5979 30.622ZM36.4047 27.227C35.5403 27.4586 34.7326 26.8461 34.4961 25.9635C34.0938 24.4621 35.3171 23.9686 35.5082 23.9174C36.3726 23.6857 37.1779 24.2891 37.4144 25.1718C37.8167 26.6731 36.5958 27.1758 36.4047 27.227ZM38.3103 26.4043L38.2344 26.3759L38.605 23.1363L39.7969 22.8169L39.8116 22.8715L38.3103 26.4043ZM36.9182 26.7773C37.1049 26.6005 36.9002 25.9825 36.2585 25.1889C35.6307 24.4111 35.207 24.2126 35.0014 24.3555C34.819 24.5116 34.9373 25.0261 35.5493 25.8178C36.1005 26.5283 36.6678 26.9712 36.9182 26.7773ZM40.946 29.1797C40.0815 29.4113 39.2713 28.7897 39.0348 27.9071C38.6325 26.4057 39.8559 25.9122 40.0469 25.861C40.9114 25.6293 41.7167 26.2328 41.9532 27.1154C42.3555 28.6167 41.137 29.1285 40.946 29.1797ZM41.4569 28.721C41.6436 28.5441 41.439 27.9261 40.7973 27.1325C40.1695 26.3548 39.7457 26.1562 39.5402 26.2991C39.3577 26.4552 39.4761 26.9697 40.0881 27.7614C40.6393 28.4719 41.2066 28.9148 41.4569 28.721ZM38.1432 26.6539L38.219 26.6823L37.8394 29.9243L36.6474 30.2437L36.6328 30.1891L38.1432 26.6539Z" fill="#FFD8BA"/>
<circle cx="31.4417" cy="32.3417" r="24.4525" transform="rotate(-15 31.4417 32.3417)" stroke="#A4332B" stroke-width="0.126697"/>
<circle cx="31.4861" cy="32.2645" r="20.8417" transform="rotate(-15 31.4861 32.2645)" stroke="black" stroke-width="0.126697"/>
<circle cx="10.3961" cy="34.5705" r="2.3439" transform="rotate(-15 10.3961 34.5705)" fill="#BC5B54"/>
<circle cx="35.987" cy="12.1046" r="3.35747" transform="rotate(-15 35.987 12.1046)" fill="#BC5B54"/>
<circle cx="44.3307" cy="47.6454" r="2.2172" transform="rotate(-15 44.3307 47.6454)" fill="#BC5B54"/>
<path d="M44.031 45.0645L44.6555 46.7068L46.1611 45.8011L45.2665 47.3133L46.9133 47.9257L45.1732 48.1691L45.7212 49.8385L44.446 48.6298L43.4825 50.099L43.6324 48.3484L41.8829 48.5112L43.3451 47.5369L42.1271 46.2706L43.8004 46.8063L44.031 45.0645Z" fill="#FFD8BA"/>
<path d="M10.4158 32.0094L10.7536 33.7336L12.3906 33.0956L11.2532 34.4347L12.7728 35.3168L11.0166 35.2625L11.2744 37.0004L10.2219 35.5935L9.02383 36.8787L9.46758 35.1787L7.7158 35.0433L9.32162 34.3302L8.33527 32.8762L9.89395 33.6871L10.4158 32.0094Z" fill="#FFD8BA"/>
<path d="M33.8727 8.57126L35.8455 10.5377L37.4311 8.24761L37.1237 11.0161L39.9028 10.828L37.5467 12.3137L39.4265 14.3692L36.7959 13.4535L36.3609 16.2048L35.4367 13.5771L33.0144 14.9524L34.4926 12.5915L31.907 11.5552L34.6745 11.2388L33.8727 8.57126Z" fill="#FFD8BA"/>
</svg>
