<svg width="80" height="81" viewBox="0 0 80 81" fill="none" xmlns="http://www.w3.org/2000/svg">
<g id="BOOK ICON">
<g id="Group 61">
<rect id="Rectangle 40" x="16.4097" y="15.0308" width="47.5227" height="52.4389" rx="1.22904" stroke="#072015" stroke-width="0.819358"/>
<rect id="Rectangle 41" x="16.4097" y="19.1275" width="47.5227" height="52.4389" rx="1.22904" stroke="#072015" stroke-width="0.819358"/>
<rect id="Rectangle 27" x="16" y="9.70508" width="48.3421" height="54.897" rx="1.63872" fill="#072015"/>
<rect id="Rectangle 11" x="24.603" y="19.9473" width="31.1356" height="4.91615" rx="1.22904" stroke="white" stroke-width="0.819358"/>
<circle id="Ellipse 70" cx="33.2051" cy="14.6211" r="1.22904" stroke="white" stroke-width="0.819358"/>
<circle id="Ellipse 71" cx="47.1348" cy="14.6211" r="1.22904" stroke="white" stroke-width="0.819358"/>
<rect id="Rectangle 28" x="20.0957" y="30.189" width="8.72794" height="8.72794" rx="1.74559" fill="white"/>
<rect id="Rectangle 29" x="30.5703" y="30.189" width="8.72794" height="8.72794" rx="1.74559" fill="white"/>
<rect id="Rectangle 30" x="41.043" y="30.189" width="8.72794" height="8.72794" rx="1.74559" fill="white"/>
<rect id="Rectangle 31" x="51.5176" y="30.189" width="8.72794" height="8.72794" rx="1.74559" fill="white"/>
<rect id="Rectangle 32" x="20.0957" y="40.8408" width="8.72794" height="8.72794" rx="1.74559" fill="white"/>
<rect id="Rectangle 33" x="30.5703" y="40.8408" width="8.72794" height="8.72794" rx="1.74559" fill="white"/>
<rect id="Rectangle 34" x="41.043" y="40.8408" width="8.72794" height="8.72794" rx="1.74559" fill="white"/>
<rect id="Rectangle 35" x="51.5176" y="40.8408" width="8.72794" height="8.72794" rx="1.74559" fill="white"/>
<rect id="Rectangle 36" x="20.0957" y="51.4922" width="8.72794" height="8.72794" rx="1.74559" fill="white"/>
<rect id="Rectangle 37" x="30.5703" y="51.4922" width="8.72794" height="8.72794" rx="1.74559" fill="white"/>
<rect id="Rectangle 38" x="41.043" y="51.4922" width="8.72794" height="8.72794" rx="1.74559" fill="white"/>
<rect id="Rectangle 39" x="51.5176" y="51.4922" width="8.72794" height="8.72794" rx="1.74559" fill="white"/>
</g>
</g>
</svg>
