<svg width="80" height="81" viewBox="0 0 80 81" fill="none" xmlns="http://www.w3.org/2000/svg">
<g id="BOOK ICON" clip-path="url(#clip0_1252_455)">
<g id="Group 53">
<path id="Vector 143" d="M6.36392 44.9376L24.732 36.2153C25.6221 35.7926 26.6512 35.7741 27.5559 36.1644L38.1038 40.715C38.3783 40.8334 38.6883 40.8393 38.9671 40.7315L50.9184 36.1112C51.8404 35.7548 52.8714 35.8144 53.7462 36.2747L72.6594 46.2259C74.3006 47.0894 74.2808 49.4462 72.6253 50.2819L40.1769 66.6636C39.15 67.182 37.9314 67.1499 36.9333 66.5781L6.20856 48.9786C4.60991 48.0629 4.69968 45.7279 6.36392 44.9376Z" stroke="#072015" stroke-width="1.14084"/>
<path id="Vector 144" d="M2.64529 50.1641L22.9184 38.8083C23.9954 38.2051 25.3137 38.2285 26.3686 38.8696L37.8373 45.8398C38.2085 46.0654 38.6755 46.0607 39.042 45.8276L49.8919 38.9283C50.9538 38.253 52.3006 38.215 53.3989 38.8292L76.1205 51.5359C77.7422 52.4428 77.6579 54.804 75.9758 55.5931L39.9935 72.4712C39.0178 72.9288 37.8835 72.9002 36.9321 72.3939L2.68837 54.169C1.09501 53.321 1.07054 51.0462 2.64529 50.1641Z" stroke="#072015" stroke-width="1.14084"/>
<path id="Vector 142" d="M7.90555 39.2317L23.428 29.6732C24.4093 29.0689 25.6288 28.9991 26.6727 29.4874L38.6634 35.0959C38.9697 35.2392 39.3238 35.2392 39.6301 35.0959L51.5989 29.4976C52.6548 29.0037 53.8893 29.0812 54.8752 29.7031L72.0948 40.5665C73.5799 41.5035 73.4944 43.6966 71.9407 44.515L40.8475 60.8937C39.7913 61.4501 38.5214 61.4158 37.4966 60.8034L7.93137 43.1331C6.46127 42.2545 6.44721 40.1297 7.90555 39.2317Z" fill="#072015"/>
<path id="Vector 145" d="M38.9297 34.4092V61.7895" stroke="white" stroke-width="1.14084"/>
</g>
<path id="Star 25" d="M39 3.70508L40.6971 18.008L55 19.7051L40.6971 21.4021L39 35.7051L37.3029 21.4021L23 19.7051L37.3029 18.008L39 3.70508Z" fill="#072015"/>
</g>
<defs>
<clipPath id="clip0_1252_455">
<rect width="80" height="80" fill="white" transform="translate(0 0.705078)"/>
</clipPath>
</defs>
</svg>
