<svg width="81" height="81" viewBox="0 0 81 81" fill="none" xmlns="http://www.w3.org/2000/svg">
<g id="BOOK ICON" clip-path="url(#clip0_1186_5641)">
<g id="Group 53">
<path id="Vector 143" d="M6.86392 45.0836L25.232 36.3613C26.1221 35.9386 27.1512 35.9201 28.0559 36.3104L38.6038 40.8609C38.8783 40.9794 39.1883 40.9853 39.4671 40.8775L51.4184 36.2572C52.3404 35.9008 53.3714 35.9604 54.2462 36.4207L73.1594 46.3719C74.8006 47.2354 74.7808 49.5922 73.1253 50.4279L40.6769 66.8096C39.65 67.328 38.4314 67.2959 37.4333 66.7241L6.70856 49.1246C5.10991 48.2089 5.19968 45.8739 6.86392 45.0836Z" stroke="#731F3C" stroke-width="1.14084"/>
<path id="Vector 144" d="M3.14529 50.3101L23.4184 38.9543C24.4954 38.3511 25.8137 38.3745 26.8686 39.0156L38.3373 45.9858C38.7085 46.2114 39.1755 46.2067 39.542 45.9736L50.3919 39.0743C51.4538 38.399 52.8006 38.361 53.8989 38.9752L76.6205 51.6819C78.2422 52.5888 78.1579 54.95 76.4758 55.7391L40.4935 72.6172C39.5178 73.0748 38.3835 73.0462 37.4321 72.5399L3.18837 54.315C1.59501 53.467 1.57054 51.1922 3.14529 50.3101Z" stroke="#731F3C" stroke-width="1.14084"/>
<path id="Vector 142" d="M8.40555 39.3777L23.928 29.8192C24.9093 29.2149 26.1288 29.1451 27.1727 29.6334L39.1634 35.2419C39.4697 35.3852 39.8238 35.3852 40.1301 35.2419L52.0989 29.6436C53.1548 29.1497 54.3893 29.2272 55.3752 29.8491L72.5948 40.7125C74.0799 41.6494 73.9944 43.8426 72.4407 44.661L41.3475 61.0397C40.2913 61.5961 39.0214 61.5618 37.9966 60.9494L8.43137 43.2791C6.96127 42.4005 6.94721 40.2757 8.40555 39.3777Z" fill="#731F3C"/>
<path id="Vector 145" d="M39.4297 34.5552V61.9355" stroke="white" stroke-width="1.14084"/>
</g>
<path id="Star 25" d="M39.5 3.85107L41.1971 18.154L55.5 19.8511L41.1971 21.5481L39.5 35.8511L37.8029 21.5481L23.5 19.8511L37.8029 18.154L39.5 3.85107Z" fill="#731F3C"/>
</g>
<defs>
<clipPath id="clip0_1186_5641">
<rect width="80" height="80" fill="white" transform="translate(0.5 0.851074)"/>
</clipPath>
</defs>
</svg>
