<svg width="81" height="81" viewBox="0 0 81 81" fill="none" xmlns="http://www.w3.org/2000/svg">
<g id="BOOK ICON">
<g id="Group 56">
<g id="Union">
<mask id="path-1-inside-1_1186_5632" fill="white">
<path fill-rule="evenodd" clip-rule="evenodd" d="M51.0292 48.8337C51.0292 47.408 51.8171 46.1169 52.9776 45.2886C58.3591 41.4472 61.8676 35.1508 61.8676 28.0349C61.8676 16.3354 52.3833 6.85107 40.6838 6.85107C28.9843 6.85107 19.5 16.3354 19.5 28.0349C19.5 34.7894 22.6612 40.8055 27.5848 44.6845C28.6449 45.5196 29.3527 46.7545 29.3527 48.104V55.1305C29.3527 57.3072 31.1173 59.0717 33.2939 59.0717H47.088C49.2647 59.0717 51.0292 57.3072 51.0292 55.1305V48.8337Z"/>
</mask>
<path d="M52.9776 45.2886L53.55 46.0905L52.9776 45.2886ZM60.8824 28.0349C60.8824 34.819 57.5387 40.8222 52.4051 44.4866L53.55 46.0905C59.1795 42.0721 62.8529 35.4825 62.8529 28.0349H60.8824ZM40.6838 7.83637C51.8392 7.83637 60.8824 16.8796 60.8824 28.0349H62.8529C62.8529 15.7912 52.9275 5.86578 40.6838 5.86578V7.83637ZM20.4853 28.0349C20.4853 16.8796 29.5285 7.83637 40.6838 7.83637V5.86578C28.4402 5.86578 18.5147 15.7912 18.5147 28.0349H20.4853ZM28.1946 43.9105C23.4979 40.2103 20.4853 34.4747 20.4853 28.0349H18.5147C18.5147 35.104 21.8245 41.4006 26.9751 45.4584L28.1946 43.9105ZM30.338 55.1305V48.104H28.3674V55.1305H30.338ZM47.088 58.0864H33.2939V60.057H47.088V58.0864ZM50.0439 48.8337V55.1305H52.0145V48.8337H50.0439ZM28.3674 55.1305C28.3674 57.8513 30.5731 60.057 33.2939 60.057V58.0864C31.6614 58.0864 30.338 56.763 30.338 55.1305H28.3674ZM26.9751 45.4584C27.8422 46.1416 28.3674 47.1084 28.3674 48.104H30.338C30.338 46.4005 29.4476 44.8977 28.1946 43.9105L26.9751 45.4584ZM47.088 60.057C49.8088 60.057 52.0145 57.8513 52.0145 55.1305H50.0439C50.0439 56.763 48.7205 58.0864 47.088 58.0864V60.057ZM52.4051 44.4866C51.0348 45.4647 50.0439 47.0336 50.0439 48.8337H52.0145C52.0145 47.7823 52.5994 46.7691 53.55 46.0905L52.4051 44.4866Z" fill="#731F3C" mask="url(#path-1-inside-1_1186_5632)"/>
</g>
<rect id="Rectangle 21" x="29.3516" y="59.0718" width="21.6765" height="9.85294" rx="3.94118" fill="#731F3C"/>
<rect id="Rectangle 22" x="32.3086" y="66.9541" width="15.7647" height="6.89706" rx="3.44853" fill="#731F3C"/>
<path id="Vector 146" d="M41.1802 59.0718V42.4181C41.1802 41.1319 40.2318 40.0465 38.9624 39.8387C33.9496 39.0184 28.0922 37.6314 33.4494 36.7385C41.1802 35.45 49.3406 34.591 48.0521 36.7385C46.7637 38.8859 30.8724 35.0205 33.4494 32.0141C36.0265 29.0077 50.1996 27.2897 48.0521 30.2961C46.3342 32.7013 37.6012 28.1487 33.4494 25.5718" stroke="#731F3C" stroke-width="0.858975"/>
</g>
</g>
</svg>
