<svg width="81" height="81" viewBox="0 0 81 81" fill="none" xmlns="http://www.w3.org/2000/svg">
<g id="BOOK ICON">
<g id="Group 54">
<rect id="Rectangle 17" x="12.5" y="19.8511" width="26" height="27" rx="6" fill="#731F3C"/>
<rect id="Rectangle 18" x="12.5" y="7.85107" width="8" height="20" rx="4" fill="#731F3C"/>
<rect id="Rectangle 19" x="4.5" y="29.8511" width="24" height="17" fill="#731F3C"/>
</g>
<g id="Group 55">
<path id="Rectangle 17_2" d="M67 60.3511L47.5 60.3511C44.4624 60.3511 42 57.8886 42 54.8511L42 39.8511C42 36.8135 44.4624 34.3511 47.5 34.3511L67 34.3511L67 60.3511Z" stroke="#731F3C"/>
<path id="Rectangle 18_2" d="M67 68.8511C67 70.7841 65.433 72.3511 63.5 72.3511C61.567 72.3511 60 70.7841 60 68.8511L60 60.3511L67 60.3511L67 68.8511Z" stroke="#731F3C"/>
<rect id="Rectangle 19_2" x="75" y="50.3511" width="8" height="16" transform="rotate(-180 75 50.3511)" stroke="#731F3C"/>
</g>
</g>
</svg>
