<svg width="80" height="81" viewBox="0 0 80 81" fill="none" xmlns="http://www.w3.org/2000/svg">
<g id="BOOK ICON">
<g id="Group 62">
<path id="Rectangle 43" d="M20.3858 20.3892L24.3081 16.8349L28.4344 13.7189C28.9447 13.3336 29.5667 13.1251 30.2062 13.1251H57.6399C59.2637 13.1251 60.58 14.4414 60.58 16.0651V60.345C60.58 61.9688 59.2637 63.2851 57.6399 63.2851H22.3601C20.7363 63.2851 19.42 61.9688 19.42 60.345V22.5678C19.42 21.7378 19.7708 20.9465 20.3858 20.3892Z" stroke="#072015" stroke-width="0.840018"/>
<path id="Rectangle 44" d="M23.3202 24.9769L27.3627 20.9344L31.4536 17.5253C31.982 17.085 32.648 16.8438 33.3358 16.8438H60.6798C62.3036 16.8438 63.6199 18.1601 63.6199 19.7839V69.3448C63.6199 70.9686 62.3036 72.2849 60.6798 72.2849H25.3991C23.7754 72.2849 22.4591 70.9686 22.4591 69.3448V27.0558C22.4591 26.276 22.7688 25.5282 23.3202 24.9769Z" stroke="#072015" stroke-width="0.840018"/>
<path id="Rectangle 42" d="M20.04 13.0633L24.2338 10.2689C24.7856 9.90127 25.4338 9.70508 26.0969 9.70508H53.6399C55.4956 9.70508 57 11.2094 57 13.0651V51.345C57 53.2007 55.4956 54.7051 53.6399 54.7051H18.3601C16.5044 54.7051 15 53.2007 15 51.345V18.7086C15 17.6876 15.4643 16.7219 16.2617 16.0843L20.04 13.0633Z" fill="#072015"/>
<rect id="Rectangle 45" x="30.4395" y="18.104" width="21" height="5.88" rx="1.68004" fill="white"/>
<rect id="Rectangle 46" x="21.1992" y="28.1841" width="30.24" height="1.68" rx="0.84" fill="white"/>
<rect id="Rectangle 47" x="21.1992" y="32.3843" width="30.24" height="1.68" rx="0.84" fill="white"/>
<rect id="Rectangle 48" x="35.4805" y="36.5845" width="15.96" height="1.68" rx="0.84" fill="white"/>
</g>
</g>
</svg>
