<svg width="81" height="81" viewBox="0 0 81 81" fill="none" xmlns="http://www.w3.org/2000/svg">
<path d="M20.8858 20.5352L24.8081 16.9809L28.9344 13.8649C29.4447 13.4796 30.0667 13.2711 30.7062 13.2711H58.1399C59.7637 13.2711 61.08 14.5874 61.08 16.2111V60.491C61.08 62.1148 59.7637 63.4311 58.1399 63.4311H22.8601C21.2363 63.4311 19.92 62.1148 19.92 60.491V22.7138C19.92 21.8838 20.2708 21.0925 20.8858 20.5352Z" stroke="#072015" stroke-width="0.840018"/>
<path d="M23.8212 25.1229L27.8637 21.0804L31.9546 17.6713C32.4829 17.231 33.149 16.9898 33.8367 16.9898H61.1808C62.8045 16.9898 64.1208 18.3061 64.1208 19.9299V69.4908C64.1208 71.1146 62.8045 72.4309 61.1808 72.4309H25.9001C24.2764 72.4309 22.96 71.1146 22.96 69.4908V27.2018C22.96 26.422 23.2698 25.6742 23.8212 25.1229Z" stroke="#072015" stroke-width="0.840018"/>
<path d="M20.54 13.2093L24.7338 10.4149C25.2856 10.0473 25.9338 9.85107 26.5969 9.85107H54.1399C55.9956 9.85107 57.5 11.3554 57.5 13.2111V51.491C57.5 53.3467 55.9956 54.8511 54.1399 54.8511H18.8601C17.0044 54.8511 15.5 53.3467 15.5 51.491V18.8546C15.5 17.8336 15.9643 16.8679 16.7617 16.2303L20.54 13.2093Z" fill="#072015"/>
<rect x="30.9395" y="18.25" width="21" height="5.88" rx="1.68004" fill="white"/>
<rect x="21.7002" y="28.3301" width="30.24" height="1.68" rx="0.84" fill="white"/>
<rect x="21.7002" y="32.5303" width="30.24" height="1.68" rx="0.84" fill="white"/>
<rect x="35.9805" y="36.7305" width="15.96" height="1.68" rx="0.84" fill="white"/>
</svg>
