<svg width="81" height="81" viewBox="0 0 81 81" fill="none" xmlns="http://www.w3.org/2000/svg">
<rect x="16.9097" y="15.1768" width="47.5227" height="52.4389" rx="1.22904" stroke="#072015" stroke-width="0.819358"/>
<rect x="16.9097" y="19.2734" width="47.5227" height="52.4389" rx="1.22904" stroke="#072015" stroke-width="0.819358"/>
<rect x="16.5" y="9.85107" width="48.3421" height="54.897" rx="1.63872" fill="#072015"/>
<rect x="25.103" y="20.0933" width="31.1356" height="4.91615" rx="1.22904" stroke="white" stroke-width="0.819358"/>
<circle cx="33.7061" cy="14.7671" r="1.22904" stroke="white" stroke-width="0.819358"/>
<circle cx="47.6358" cy="14.7671" r="1.22904" stroke="white" stroke-width="0.819358"/>
<rect x="20.5967" y="30.335" width="8.72794" height="8.72794" rx="1.74559" fill="white"/>
<rect x="31.0693" y="30.335" width="8.72794" height="8.72794" rx="1.74559" fill="white"/>
<rect x="41.5439" y="30.335" width="8.72794" height="8.72794" rx="1.74559" fill="white"/>
<rect x="52.0176" y="30.335" width="8.72794" height="8.72794" rx="1.74559" fill="white"/>
<rect x="20.5967" y="40.9868" width="8.72794" height="8.72794" rx="1.74559" fill="white"/>
<rect x="31.0693" y="40.9868" width="8.72794" height="8.72794" rx="1.74559" fill="white"/>
<rect x="41.5439" y="40.9868" width="8.72794" height="8.72794" rx="1.74559" fill="white"/>
<rect x="52.0176" y="40.9868" width="8.72794" height="8.72794" rx="1.74559" fill="white"/>
<rect x="20.5967" y="51.6382" width="8.72794" height="8.72794" rx="1.74559" fill="white"/>
<rect x="31.0693" y="51.6382" width="8.72794" height="8.72794" rx="1.74559" fill="white"/>
<rect x="41.5439" y="51.6382" width="8.72794" height="8.72794" rx="1.74559" fill="white"/>
<rect x="52.0176" y="51.6382" width="8.72794" height="8.72794" rx="1.74559" fill="white"/>
</svg>
