<svg width="140" height="141" viewBox="0 0 140 141" fill="none" xmlns="http://www.w3.org/2000/svg">
<circle cx="70.5" cy="71.3511" r="62" stroke="#E42769"/>
<path d="M31.1449 121.916C31.1449 121.916 27.9689 121.916 51.3513 121.916C51.5575 120.964 53.4363 111.383 53.3174 111.37C46.0956 110.596 49.9488 106.151 47.5493 117.061C47.2139 118.587 47.0309 123.298 48.0757 118.123C48.3508 116.758 50.3521 110.159 48.0669 109.809C46.8547 109.623 42.3679 107.936 42.5556 106.808C43.1822 103.04 55.1168 96.7207 54.8786 96.46C54.189 95.7063 50.8776 93.1169 49.9795 93.684C48.4876 94.6263 39.0946 101.923 40.5126 103.911C41.4933 105.285 44.8413 110.1 42.4521 105.291C37.8201 95.9695 31.3035 73.7509 35.9594 64.8221C37.0573 62.7158 45.0149 69.4316 46.4194 71.3149C46.9537 72.0311 49.592 75.8361 49.592 76.592C51.6955 81.8935 48.2629 93.1398 56.4216 96.8923C65.3026 100.977 57.7194 97.1186 60.5342 87.1474C62.4127 80.4933 64.8319 57.3591 52.1966 70.8742C48.9357 74.3617 51.5477 77.6397 47.8149 74.23C47.6552 74.0838 44.0463 72.0836 42.8035 71.0726C39.9274 68.7318 36.0853 68.0901 36.2518 64.6331C36.3246 63.1198 41.4431 58.8718 42.7621 57.5519C43.6286 56.7383 44.2205 55.9061 45.3359 54.9133C46.5899 53.7974 46.9719 53.2591 47.759 51.9165C47.1164 52.0918 52.489 55.6194 52.3947 55.7411C51.984 56.2723 48.4253 61.8631 48.1255 60.4967C47.7118 58.6117 48.1599 51.1767 46.8631 50.007C46.0842 49.3043 44.9529 48.0257 44.1076 47.1525C43.2468 45.8207 42.3062 45.1253 41.5771 43.8071C38.8745 38.9207 35.4429 39.0911 35.8769 30.8426C36.1798 25.0864 38.4692 24.5598 42.5467 21.2444C44.078 19.9993 48.9414 19.4077 50.7128 20.234C54.2247 21.8743 54.6778 21.9832 57.0385 25.4344C58.1863 27.1136 59.7849 29.2671 59.3196 31.3718C58.9113 33.2185 59.2725 37.694 61.1304 38.8607C62.6064 39.7875 60.6089 30.6724 60.2892 30.3459C58.2298 28.2424 61.244 36.785 57.8706 33.014C54.9956 29.7998 56.0696 24.7058 49.3928 29.8889C45.1463 33.1858 41.7073 32.1061 39.3951 33.9248C38.2671 34.8123 39.8313 41.8941 38.5761 39.8913C37.7945 38.6437 39.2748 38.1357 38.0499 35.8598C36.2673 32.5483 39.8303 30.0276 42.9281 29.4395C47.8118 28.5128 47.7064 27.959 51.9045 26.0721C53.7345 25.2492 54.2291 26.9024 55.5898 28.2629C57.8659 30.5391 58.7789 33.8086 59.3327 36.8606C59.5723 38.1808 61.5634 42.1434 61.5445 42.1855C61.5832 41.2092 63.1738 45.0212 61.5866 48.1008C59.3745 52.3929 60.2942 57.7506 54.0681 56.0775C49.2588 54.7853 53.2066 56.5431 55.3007 59.5281C57.37 62.4769 56.9751 62.4934 58.4319 65.5976C58.7348 66.2429 61.8407 64.0146 63.8219 63.5015C64.2512 63.3906 66.3712 62.3809 66.4855 62.3897C66.5815 62.4887 72.1841 77.9696 73.7292 80.6025C75.7485 84.0438 75.9496 85.9019 78.566 89.8119C80.7723 93.1095 80.2374 102.887 78.9975 92.8131C78.6916 90.325 83.8018 84.7126 85.0351 80.9542C85.0388 80.9424 86.2035 78.2604 86.3537 78.1188C88.7298 79.3643 88.6547 76.7939 90.1057 80.5344C91.3947 83.8583 94.9086 83.8475 97.7274 86.5009C98.3962 87.1299 100.339 88.241 101.003 87.6655C105.578 83.7043 97.685 84.5091 100.643 74.4527C102.615 67.7491 95.1771 23.8289 83.4046 28.6806C78.0687 30.8796 75.8933 27.413 72.4446 34.7357C70.1604 39.5857 68.0945 36.8379 67.4598 44.1257C67.0703 48.5967 62.5188 41.7812 61.8126 40.1078C61.3987 39.1268 62.9383 41.692 64.6834 42.6858C66.4791 43.709 67.6811 44.777 66.3392 46.2991C64.739 48.1136 65.1988 52.8962 65.8483 54.9146C65.9482 55.2242 66.3453 57.1351 66.3304 57.3712C66.9198 57.85 68.5314 60.9259 66.9514 61.8476C65.7995 62.5194 69.304 60.2675 70.0822 59.1393C72.205 56.0617 67.793 57.0775 69.8841 49.3945C71.3219 44.1116 68.9765 45.7601 72.9263 39.4691C74.5296 36.9163 76.8883 34.156 79.895 33.4763C80.9219 33.2441 82.8366 26.9491 80.4627 32.5538C80.3694 32.7739 78.0377 33.235 76.5749 34.2953C72.9863 36.8963 74.1863 38.4541 71.4777 41.728C69.7318 43.8381 67.6528 52.2861 69.1152 54.9645C75.3718 66.4248 87.5191 62.7714 88.8889 51.05C89.1274 49.0101 90.2426 48.5701 88.1646 45.5835C85.9383 42.3839 86.6516 34.2248 81.2315 33.5798C79.5608 33.381 87.2058 32.9474 87.0353 37.8045C86.7813 45.0367 93.7894 47.2458 88.8889 53.6728C88.0857 54.7262 87.7077 57.3773 85.6635 60.0617C83.2081 63.2858 85.0799 65.2957 83.6114 69.4015C82.7014 71.9462 82.5643 74.7845 84.2323 77.0327C86.2311 82.168 88.4314 78.3644 90.063 84.2053C90.8685 87.0898 97.4765 86.0515 100.429 88.155C101.332 88.7989 105.359 86.1603 99.3938 81.9996C94.9514 78.9011 100.226 71.1689 100.564 67.0982C100.65 66.076 104.02 75.4203 106.602 77.878C110.928 81.9969 114.447 92.8137 107.755 87.8121C104.122 85.0971 102.506 85.3982 102.256 81.9996C102.245 81.846 98.3641 78.5308 105.29 80.6217C120.944 85.348 99.5012 100.973 93.9596 104.765C89.4586 105.431 90.0586 102.254 86.8106 99.9785C83.3109 97.5263 91.0807 95.9512 93.7614 92.8296C94.1105 92.4233 98.8122 89.309 97.9775 87.5018C97.9467 87.4954 95.0117 91.2013 94.4504 91.7531C92.2515 93.9147 86.1109 99.9734 82.6802 98.4265C78.8988 96.721 66.158 97.2119 70.159 98.6333C73.187 99.709 69.78 96.406 69.3225 98.6511C69.0334 100.07 73.6115 100.086 74.5053 100.316C74.9268 100.069 75.9075 100.371 76.1703 100.941C77.2002 103.177 72.3358 107 71.005 108.56C71.0033 108.562 70.8412 108.643 70.8321 108.646C71.3371 108.124 72.0659 106.712 73.1264 105.645C74.1604 104.604 77.9593 100.344 74.2988 100.419C72.9715 100.446 69.9137 100.039 69.1379 98.9143C69.1277 98.8991 64.9512 98.7795 64.576 98.725C61.7166 98.3099 59.3954 99.5756 56.5341 98.0525C55.0713 97.2735 57.055 100.075 57.7598 98.8712C57.9787 98.4968 55.1242 97.2557 55.8617 98.9187C56.8653 101.183 63.3176 100.434 63.0282 100.678C61.1018 102.298 57.532 103.148 55.137 104.511C54.6431 104.792 49.9717 106.786 50.2011 107.404C50.846 109.142 52.5344 106.31 50.2914 107.107C50.2553 107.119 49.8963 109.68 53.4993 107.21C55.2195 106.031 62.0172 104.605 58.9274 107.184C57.0543 108.747 55.9261 110.507 54.2237 111.699C52.8512 112.658 55.883 114.073 54.5475 112.117C53.8029 111.026 53.7497 114.375 55.3617 113.138C56.0813 112.586 65.4094 104.754 60.178 109.715C59.6202 110.244 56.6433 112.766 56.7544 113.514C56.9613 114.907 58.8318 114.071 57.2289 113.053C56.6035 112.655 55.9372 116.729 60.4189 112.384C60.7548 112.059 64.2373 108.652 64.1622 110.038C64.0861 111.437 58.0101 114.706 61.7776 114.854C62.5265 114.884 61.7513 113.173 60.7561 114.713C60.0723 115.77 63.1512 113.911 63.4466 113.703C65.6543 112.147 64.9721 112.064 67.71 110.927C68.0278 110.795 68.3098 110.45 68.8141 110.25C71.0976 109.07 70.9942 107.961 68.8481 110.85C68.3738 111.489 66.1748 113.424 66.6411 114.139C68.0645 116.323 69.6163 114.602 67.0548 113.716C66.0859 113.381 66.9992 117.453 71.2458 112.234C71.7097 111.663 75.3479 108.792 75.3085 109.318C75.257 110 76.895 110.066 74.2675 112.074C72.7781 113.212 73.094 113.793 70.9828 115.044C70.0368 115.604 70.9703 117.936 74.0357 116.58C74.7476 116.265 76.4392 114.272 76.8249 113.462C76.8326 113.446 80.6629 109.673 77.9899 112.077C77.6008 112.427 72.1036 117.498 75.4843 117.39C76.6874 117.351 76.6339 118.178 77.9677 116.196C79.2799 114.245 79.5706 114.353 81.3353 113.044C81.3487 113.034 79.0912 114.615 78.2649 115.829C77.9215 116.333 77.3744 116.865 78.0711 117.45C78.6865 117.967 80.5797 116.591 80.9596 116.04C82.059 114.447 84.5419 114.706 86.8759 111.831C88.6743 109.616 88.7925 110.637 89.627 107.615C89.743 107.196 90.277 106.503 90.3379 106.266C92.4118 104.191 90.5282 105.28 90.916 106.317C91.0474 106.669 92.8926 107.85 93.3817 107.361C94.002 106.741 98.1658 103.053 99.0821 103.665C100.2 104.413 99.2707 105.543 98.315 104.243C97.615 103.292 100.215 103.35 99.3409 104.812C98.6229 106.014 99.2536 105.341 98.0654 106.482C95.7563 108.698 98.7216 109.471 99.919 104.877C100.686 104.612 100.349 107.992 99.8628 109.012C98.4195 112.043 99.6238 109.197 100.048 108.68C100.318 108.35 100.711 111.245 99.5908 110.565C98.5135 109.911 94.1563 109.452 92.9031 107.62C92.8666 107.567 99.2556 110.946 101.057 111.181C102.304 111.343 102.826 113.468 99.0956 113.061C94.7982 112.593 97.338 115.078 98.7587 115.212C99.2169 115.256 98.7849 118.432 97.1207 117.493C94.9194 116.252 94.1556 117.517 95.5167 118.834C96.1525 119.449 95.5918 121.046 94.3561 120.335C91.2964 118.571 94.0435 121.644 90.8038 121.158C90.3379 121.088 84.8364 118.78 84.5004 118.321C84.0348 117.684 80.9771 115.941 83.7981 117.248C86.4214 118.463 84.0019 118.173 82.7233 118.256C80.0069 118.432 75.6929 117.577 72.4658 117.597C68.15 117.622 62.9591 117.241 58.9409 115.613C57.8241 115.16 56.0497 114.611 55.0515 113.871C58.5114 116.874 63.357 117.063 67.9351 117.932C71.8061 118.668 81.8706 118.365 84.294 119.322C85.2275 118.713 90.3271 121.689 91.1148 121.891C124.627 121.908 111.444 121.916 111.444 121.916" stroke="black" stroke-miterlimit="2.6131" stroke-linecap="round" stroke-linejoin="round"/>
<circle cx="113" cy="23.8511" r="13" fill="#E42769"/>
<path d="M108 22.9311L111.96 26.8911L119 19.8511" stroke="white" stroke-width="1.76"/>
</svg>
