<svg width="140" height="140" viewBox="0 0 140 140" fill="none" xmlns="http://www.w3.org/2000/svg">
<g clip-path="url(#clip0_1186_4783)">
<circle cx="71.5" cy="70.5" r="62" stroke="#0F5C30"/>
<circle cx="119" cy="26" r="13" fill="#0F5C30"/>
<path d="M114 25.08L117.96 29.04L125 22" stroke="white" stroke-width="1.76"/>
<path d="M-16 50.4126L-12.4318 50.8971C-1.4981 52.3809 10.0697 50.3287 20.3871 46.5003C29.6141 43.0766 43.1151 43.4527 51.9835 47.8583C53.4248 48.5742 54.4279 49.583 53.3747 48.9453C49.5413 46.625 41.776 47.0734 41.7766 47.0728C37.8652 47.7822 24.0877 50.1458 22.3132 53.0787C20.2061 56.561 15.1905 64.3076 18.6571 67.7742C18.8203 67.9374 19.1122 74.6204 23.4244 66.554C23.8801 65.7012 19.721 62.3777 19.0323 67.3849C17.6327 77.5615 32.7015 79.5514 31.8568 69.0466C31.4431 63.9011 30.0125 58.8363 24.2124 57.2049C24.0467 56.2653 32.3304 59.0674 32.6736 61.0699C33.4196 61.3784 32.6348 58.8651 30.2095 57.5657C26.5409 55.6005 37.6344 57.8078 32.7306 63.9236C31.0758 65.9872 35.6642 66.0827 29.3498 73.6999C22.6696 81.7581 28.7425 100.309 37.9771 100.607C41.3269 100.716 42.3585 102.087 47.63 101.438C52.3979 100.852 58.6346 94.971 47.9626 95.4699C46.7806 95.525 41.4672 93.4511 45.4271 97.0226C50.7809 101.852 63.1463 96.2685 52.0744 87.8254C48.3663 84.998 44.8571 89.2939 40.4985 89.1549C39.2736 89.116 32.2931 95.0468 34.5302 91.9801C35.5499 90.5823 45.9714 85.8727 35.4703 88.2814C22.6136 91.2303 36.589 86.8282 40.4841 86.8282C48.4129 86.8282 29.6257 83.9798 29.725 83.9607C32.9711 83.3256 39.4531 83.5019 42.7966 84.1837C44.9855 84.63 42.5098 80.6983 38.8223 79.6397C38.2022 79.4615 32.02 76.9865 32.0087 76.9C32.8114 76.4891 41.6717 76.532 45.3318 75.4187C51.6481 73.4976 55.044 77.0209 56.9221 65.5424C57.5316 61.8171 61.0373 64.0551 57.1025 70.7654C56.7718 71.3297 52.0296 81.153 51.9651 81.6767C50.8392 90.8313 55.9162 85.1057 57.4492 92.6306C57.8711 94.701 55.7824 92.5786 61.5184 92.6876C66.1917 92.7762 69.6048 93.8974 69.2199 98.8078C68.3072 110.445 53.3014 104.666 55.4693 100.123C56.8686 97.1905 77.4641 102.811 57.2259 104.985C52.3712 105.506 44.5746 108.381 41.8564 102.905C41.822 102.837 44.9303 110.601 56.1053 106.604C55.6196 107.109 56.6803 107.399 57.203 107.681C58.3653 108.306 59.4191 108.225 60.6753 108.225C60.6803 108.229 74.4735 108.702 74.8982 107.85C75.1472 107.351 69.5687 108.066 68.6035 106.525C68.4641 106.303 67.1297 104.494 67.0389 104.53C67.0185 104.539 64.6465 106.228 66.2105 106.798C69.3263 107.931 73.2195 109.607 76.3037 107.615C77.3667 106.929 78.5427 105.531 77.709 104.222C76.715 102.66 76.3683 103.775 75.9192 101.124C75.4121 98.1332 72.1913 97.6819 69.7739 96.6853C69.1196 96.4157 70.5753 96.3668 71.0059 96.0374C71.9574 95.3086 73.2706 94.6897 74.4685 94.6425C76.2433 94.5723 69.4845 93.867 69.4663 93.8529C69.5543 93.1329 73.7945 93.1201 73.5925 92.9594C72.3977 92.0083 68.425 91.2735 66.8491 91.2735C66.4012 91.2735 64.0376 91.4981 64.7849 91.2284C66.8149 90.4959 69.1002 90.4295 71.2242 90.6885C71.8525 90.7649 72.046 92.7164 75.9536 90.3597C76.1587 90.236 77.0748 89.355 76.6254 89.2523C71.9499 89.2729 69.6123 89.2836 69.6123 89.2836C67.0301 88.5413 65.7006 87.2673 65.6239 85.4612C74.212 86.2272 79.1421 85.8946 80.4143 84.4643C80.796 83.7932 80.7406 83.0177 80.248 82.1377C75.0078 83.4255 70.0225 83.6745 65.2913 82.8856C64.7924 80.8417 64.8478 79.7064 65.4576 79.4788C72.9035 80.3889 77.8615 79.9733 80.3313 78.2323C80.5201 76.8474 80.548 75.8227 80.4143 75.1578C74.0946 76.0992 68.9981 76.1546 65.1253 75.3241C63.6627 74.2774 62.8453 72.5487 62.965 70.7541C62.6521 67.0091 61.7104 64.1009 60.1397 62.0295C54.2118 55.2209 54.6731 44.9576 61.1883 38.7086C67.7034 32.4597 77.9768 32.4265 84.5323 38.6332C91.0878 44.8395 91.6156 55.0997 85.7321 61.9465C83.595 65.7639 83.1913 69.118 82.9899 71.0864C82.7888 73.0551 81.7678 73.647 81.4114 74.2439C81.7907 78.4531 81.8461 81.9153 81.5774 84.6303C80.6131 86.3594 79.4221 87.7718 78.0043 88.868C77.8296 90.3741 76.5001 91.593 74.0159 92.5241C74.1299 93.4843 74.2408 93.9948 75.3673 94.1019C76.0714 94.1689 78.0601 94.7214 77.791 94.7214C77.7823 94.805 75.346 94.8044 75.0075 94.8044C74.3849 97.3994 75.061 96.6932 75.828 98.6997C76.8753 101.439 74.7933 100.211 78.7979 102.889C79.8308 103.579 83.2924 104.316 84.4587 103.799C85.9216 103.151 85.8489 103.129 87.1937 102.307C90.1408 100.505 91.6124 100.193 86.5956 99.3681C85.1505 99.1304 82.9013 100.355 81.5849 101.03C81.0566 101.301 77.885 103.138 79.8781 103.581C81.8508 104.019 84.278 104.414 86.2799 104.502C87.2131 104.543 88.1189 104.796 89.2366 104.796C90.334 105.932 93.3121 105.333 88.1148 107.76C87.1452 108.213 79.315 107.788 77.4409 107.788C74.8597 107.788 80.3438 108.668 81.1352 108.66C83.9482 108.631 91.0255 109.567 92.2588 106.251C92.381 105.922 91.7825 105.966 93.422 106.095C95.7621 106.279 97.5388 106.923 99.623 105.763C100.498 105.275 107.74 100.906 102.847 101.012C99.0317 101.095 99.1473 101.989 95.0258 100.071C91.5614 98.4586 90.6034 99.0239 89.278 95.0781C88.1627 91.7577 80.642 91.8639 78.31 94.0358C77.3955 94.8877 77.1807 94.9497 76.2326 95.9816C75.8324 96.4173 75.5286 96.4765 75.606 97.1448C74.9295 97.3546 75.4986 95.9218 76.3429 95.2716C78.2007 93.842 77.9846 92.7408 81.1493 92.1771C84.3654 91.604 86.1884 91.2112 89.3159 92.5404C91.1965 93.3396 89.9836 95.5779 93.3046 96.8087C94.8495 97.3815 94.8871 98.7539 97.5801 97.8203C98.2895 97.5742 102.965 96.6462 102.573 95.7085C101.154 92.3177 98.0017 94.4264 95.1054 95.1022C94.6331 95.2121 91.9933 96.0753 91.9785 96.6011C91.9441 97.8169 99.5745 100.143 101.25 100.143C103.964 100.143 107.332 100.361 110.017 100.714C111.33 100.887 115.095 98.8156 115.573 97.5366C115.611 97.4357 115.673 97.317 115.743 97.235C117.516 95.4605 121.246 86.9786 119.682 84.2927C119.183 83.4352 118.526 80.1017 118.526 78.8587C118.526 71.9621 114.209 73.0961 113.963 65.431C113.886 63.0097 105.387 55.3781 111.214 59.4078C111.484 59.5945 113.359 61.2024 113.374 61.3809C113.562 61.1369 110.718 57.7812 115.722 55.0659C118.877 53.3543 113.466 57.0464 113.534 58.6386C113.604 60.2938 115.832 62.3618 114.725 66.3307C114.087 68.617 116.453 72.46 118.36 73.6999C121.038 75.4415 122.591 76.8402 125.907 73.8659C128.497 71.5427 125.838 69.9292 125.838 66.2618C125.838 62.177 121.007 61.8597 124.433 66.4353C125.834 68.3063 126.183 69.6906 127.868 67.0858C128.532 66.0586 126.698 63.3592 126.752 60.3076C126.788 58.3038 123.823 51.9766 121.995 51.1392C118.846 49.697 104.512 45.5235 101.243 46.8398C95.9419 48.9735 93.9128 49.5776 91.8749 55.0659C89.8583 60.4971 89.9184 60.6825 94.4154 65.5356C95.3838 66.5806 100.933 68.8647 101.713 72.2871C102.346 75.0619 103.159 75.5342 106.076 77.1612C107.695 78.0635 112.361 75.8859 116.366 76.3789C116.449 76.3892 110.2 77.2705 106.817 79.9316C104.888 81.4493 101.855 83.1226 102.247 85.9761C102.253 86.0165 110.59 82.5414 111.755 82.3128C113.236 82.0221 119.565 82.4859 117.417 82.8946C113.278 83.682 108.616 85.1975 104.899 87.251C104.899 87.2758 109.483 87.2745 110.571 87.5833C111.239 87.7731 115.029 88.3331 115.029 89.2025C114.944 89.2319 105.134 88.0778 103.736 88.6563C103.747 88.6773 105.768 89.4067 106.796 91.3083C107.078 91.8294 98.732 88.1395 97.2547 87.8658C92.1517 86.9206 87.6914 94.5025 90.0471 89.4161C91.4775 86.3274 93.5717 86.7277 92.4139 81.3372C91.7922 78.4421 90.4637 80.294 91.9701 76.5464C93.2911 73.259 87.9485 71.4907 87.9485 65.5356C87.9485 61.4654 88.1834 61.5174 89.914 57.8839C90.7186 56.1942 91.7449 51.0177 92.7271 49.3033C93.7089 47.5892 104.938 41.464 121.925 44.6654C139.38 47.9544 137.403 51.2939 156 48.4186" stroke="black" stroke-width="0.8" stroke-miterlimit="2.6131" stroke-linecap="round" stroke-linejoin="round"/>
</g>
<defs>
<clipPath id="clip0_1186_4783">
<rect width="140" height="140" fill="white"/>
</clipPath>
</defs>
</svg>
