<svg width="140" height="141" viewBox="0 0 140 141" fill="none" xmlns="http://www.w3.org/2000/svg">
<g clip-path="url(#clip0_1186_5593)">
<circle cx="72.5" cy="71.3511" r="62" stroke="#E42769"/>
<circle cx="116" cy="23.8511" r="13" fill="#E42769"/>
<path d="M111 22.9311L114.96 26.8911L122 19.8511" stroke="white" stroke-width="1.76"/>
<path d="M25.4518 73.2755C25.3606 72.7915 25.24 72.3138 25.0851 71.8559C24.8991 71.3946 24.7019 70.958 24.4923 70.5425C24.3706 70.3011 24.2443 70.0664 24.1135 69.8381C24.1125 70.3865 24.124 70.9399 24.1478 71.5002C24.1797 72.2544 24.2342 73.021 24.3104 73.8098C24.3563 74.2032 24.4198 74.5956 24.5019 74.984C24.5821 75.3622 24.6807 75.7388 24.798 76.1097C24.8531 76.2713 24.9162 76.4482 24.9916 76.6122C25.0634 76.7689 25.1477 76.9175 25.2492 77.0374C25.2684 77.0221 25.2853 77.0063 25.3007 76.9899C25.33 76.9576 25.3567 76.9198 25.3848 76.8751L25.3948 76.8593L25.4089 76.8451C25.4138 76.8406 25.4322 76.7966 25.4543 76.7411C25.4958 76.6366 25.5359 76.5093 25.5498 76.4573L25.5527 76.4455C25.555 76.4335 25.558 76.4205 25.5624 76.4069C25.6192 76.1514 25.6487 75.9033 25.6607 75.6534C25.6729 75.3995 25.6673 75.1429 25.6542 74.8748C25.6173 74.3462 25.5521 73.8069 25.4518 73.2755ZM30.8437 69.5831C29.4309 66.9626 28.2321 64.2269 27.1956 61.1756L27.1943 61.1712C26.9899 60.5103 26.8052 59.8756 26.6416 59.2543C26.5206 58.7954 26.4103 58.3404 26.3111 57.8854C25.9689 58.6559 25.6846 59.4493 25.4391 60.2733C25.147 61.2554 24.9104 62.2792 24.6977 63.354C24.5809 64.0358 24.4815 64.7024 24.3998 65.361C24.3206 66.0004 24.2578 66.6291 24.2117 67.2522C24.6643 67.8344 25.0771 68.4495 25.4555 69.1133C25.8445 69.7951 26.1974 70.5283 26.5205 71.3284L26.5237 71.3363C26.7133 71.8914 26.858 72.4625 26.9653 73.042C27.0724 73.6197 27.1423 74.2032 27.1828 74.7855V74.7889C27.1994 75.1248 27.2048 75.4385 27.1884 75.7512C27.1719 76.0672 27.1334 76.3815 27.0624 76.7157C27.0616 76.7196 27.0578 76.7377 27.0561 76.7394C27.0541 76.7473 27.0529 76.7428 27.0522 76.7502L27.0508 76.7654L27.0485 76.7751C27.0074 76.939 26.9626 77.0865 26.9059 77.2324C26.8494 77.3778 26.7813 77.519 26.6931 77.6688L26.6906 77.6728C26.5929 77.8283 26.4956 77.9578 26.3821 78.0731C26.2682 78.1895 26.1396 78.2902 25.9801 78.3881L25.9757 78.3903C25.8933 78.4372 25.8178 78.4745 25.7385 78.5051C25.6588 78.5361 25.5769 78.5594 25.482 78.5791L25.477 78.5802C25.3825 78.5961 25.297 78.604 25.2092 78.6028C25.1215 78.6011 25.0353 78.591 24.9402 78.5712L24.934 78.5701C24.7629 78.5266 24.6208 78.4666 24.4904 78.3846C24.3619 78.3043 24.2484 78.2048 24.1306 78.0804L24.1255 78.0748C23.9279 77.8475 23.7793 77.6118 23.6563 77.3636C23.5349 77.1188 23.4394 76.8632 23.3462 76.5902L23.345 76.5868C23.2123 76.1667 23.1001 75.7376 23.0081 75.304C22.915 74.8647 22.843 74.4209 22.7916 73.9754V73.972C22.6853 72.8695 22.6201 71.8089 22.597 70.7664C22.5743 69.7442 22.5918 68.7418 22.6502 67.7366C22.2303 67.2357 21.7736 66.7575 21.2761 66.2904C20.7632 65.8093 20.2084 65.3412 19.6075 64.8725C18.2883 63.9165 17.0267 63.1612 15.6943 62.572C14.363 61.9842 12.9602 61.5618 11.358 61.2706C10.5093 61.1451 9.74573 61.0779 8.98674 61.0806C8.2289 61.0835 7.47029 61.1559 6.62977 61.3097C6.0523 61.4317 5.545 61.5697 5.05682 61.7512C4.56998 61.9326 4.09815 62.1594 3.58961 62.459C3.46381 62.5365 3.34461 62.6139 3.22846 62.6942C3.11137 62.7751 2.99637 62.8587 2.88013 62.9486C2.32188 63.4032 1.88848 63.8469 1.53517 64.3456C1.18225 64.8436 0.907049 65.4 0.665014 66.0795C0.409022 66.9095 0.292116 67.6632 0.278638 68.4202C0.265064 69.18 0.355493 69.9472 0.514269 70.7998C0.942418 72.636 1.61595 74.1857 2.49959 75.6137C3.38533 77.0453 4.48471 78.3598 5.76056 79.72L5.77662 79.7375L5.78647 79.7561C5.80052 79.7833 6.27828 80.2486 6.436 80.4019L6.47577 80.4409C6.9888 80.9423 7.52153 81.4319 8.07031 81.9096C8.61786 82.3862 9.17639 82.847 9.74286 83.2931C10.5607 83.911 11.388 84.4865 12.2541 85.0417C13.1229 85.5986 14.0296 86.1357 15.0041 86.6756C15.9849 87.2036 16.936 87.6786 17.8997 88.119C18.8619 88.5594 19.843 88.9681 20.8846 89.3662C22.1887 89.8467 23.433 90.2577 24.6914 90.6111C25.9517 90.965 27.2263 91.2624 28.5891 91.5157C29.4198 91.649 30.2301 91.7627 31.0244 91.8571C31.7837 91.9476 32.5238 92.0205 33.2488 92.077C33.6373 91.558 34.022 91.0306 34.4022 90.4957C34.7969 89.9411 35.1834 89.3831 35.5607 88.8222C36.3271 87.6604 37.0568 86.5089 37.7541 85.3538C38.4284 84.2378 39.0672 83.1263 39.6737 82.0085C39.1262 81.3963 38.5844 80.771 38.0445 80.1276C37.4807 79.456 36.9078 78.7521 36.3211 78.0092L36.0468 77.6536L35.7743 77.2957C33.8822 74.7058 32.256 72.2018 30.8437 69.5825V69.5831ZM46.1335 63.5693C46.2686 62.0271 46.2539 60.4731 46.0453 58.7897C45.9186 57.9829 45.7649 57.2698 45.5399 56.5816C45.316 55.8943 45.0203 55.2318 44.6093 54.5197C44.1672 53.8133 43.7228 53.2522 43.2072 52.7675C42.6916 52.2819 42.102 51.8718 41.3682 51.4675C40.8184 51.1893 40.3149 50.9867 39.7977 50.8366C39.2789 50.6865 38.7423 50.588 38.1274 50.5173C37.5031 50.4619 36.9417 50.4523 36.3821 50.4877C35.8236 50.524 35.2669 50.6053 34.6518 50.7333C33.979 50.8892 33.3854 51.0679 32.8109 51.2945C32.2375 51.5201 31.6819 51.7954 31.084 52.1423C30.6088 52.4329 30.1969 52.7168 29.8107 53.0304C29.4243 53.343 29.0609 53.6871 28.6828 54.0981C28.4384 54.3878 28.2089 54.6793 27.9936 54.9737C27.789 55.2529 27.5971 55.5349 27.4168 55.8188C27.5311 56.615 27.6848 57.4008 27.8752 58.2028C28.071 59.0258 28.304 59.8603 28.5717 60.7335C29.5709 63.7073 30.7321 66.3759 32.1002 68.9335C33.4692 71.4929 35.0464 73.9426 36.877 76.476L37.1394 76.823L37.4054 77.1714C37.9243 77.8345 38.4424 78.4785 38.9632 79.1077C39.4257 79.6663 39.8867 80.2085 40.3488 80.7371C41.0915 79.3051 41.7876 77.8504 42.4439 76.3471C43.1308 74.7754 43.7754 73.1483 44.3876 71.4363C44.4934 71.1271 44.5929 70.8235 44.6862 70.5238C44.7806 70.2225 44.8722 69.915 44.9626 69.6012C45.0198 69.4005 45.07 69.2111 45.1198 69.0223C45.1854 68.774 45.2509 68.5259 45.3222 68.2879C45.7134 66.6472 45.9983 65.1134 46.1335 63.5693ZM44.594 87.0177C43.1688 85.6936 41.8277 84.3554 40.5093 82.929C39.8208 84.1281 39.0941 85.3148 38.3237 86.5037C37.5132 87.7532 36.653 89.0066 35.7363 90.2809L35.7357 90.282C35.4726 90.6387 35.2064 90.9933 34.9371 91.3444C34.7351 91.6078 34.5262 91.8764 34.3098 92.1495C39.432 92.4468 43.9376 91.9606 49.5873 91.3398C49.5025 91.2787 49.4273 91.2234 49.3713 91.1787L49.3696 91.177C47.639 89.7477 46.0702 88.3892 44.594 87.0177ZM72.1519 105.332C72.1717 105.336 72.1395 105.328 72.1259 105.324C72.1327 105.328 72.136 105.329 72.1462 105.331L72.1519 105.332ZM71.8477 100.382L71.7986 100.386C70.8612 100.457 70.0205 100.455 69.1854 100.388C68.3521 100.321 67.5233 100.189 66.6069 99.9989L66.6029 99.9983C65.0487 99.6336 63.641 99.1864 62.2829 98.6578C61.5882 98.3876 60.9075 98.0964 60.2274 97.7843C61.7312 98.7998 63.2474 99.7891 64.7847 100.766C66.9404 102.134 69.1221 103.467 71.3587 104.803L71.3604 104.803C71.4915 104.883 71.6182 104.975 71.742 105.065C71.8754 105.161 72.0054 105.255 72.122 105.321L72.1767 105.298L72.1852 105.291L72.1988 105.283C73.8322 104.31 75.3654 103.331 76.8631 102.295C78.3572 101.262 79.8142 100.174 81.299 98.9818C83.2433 97.3892 85.0882 95.8062 86.8873 94.1745C88.6882 92.5395 90.4432 90.8564 92.2021 89.067C92.7527 88.4921 93.2995 87.912 93.8453 87.3224C92.4678 88.504 91.0454 89.646 89.5934 90.7491C87.3585 92.4473 85.0548 94.0502 82.7291 95.5597L82.7272 95.5602C81.7894 96.1579 80.8067 96.7622 79.8007 97.3321C78.7954 97.9019 77.7636 98.4402 76.7246 98.9066C76.2032 99.234 75.4706 99.5246 74.7175 99.7591C73.7259 100.068 72.6935 100.283 72.0642 100.36C72.0072 100.37 71.9121 100.377 71.8477 100.382ZM69.8424 62.7863C69.6643 62.3126 69.4822 61.849 69.2962 61.395C69.1951 61.7353 69.0995 62.0808 69.0091 62.4347C68.8807 62.9344 68.7637 63.4484 68.6574 63.9821C68.4663 65.0636 68.3419 66.0502 68.3266 67.0316C68.3109 68.0108 68.4024 68.9901 68.6416 70.0608C68.7473 70.43 68.8853 70.7919 69.0566 71.1361C69.2205 71.4652 69.4149 71.7789 69.6405 72.069C69.7299 72.1758 69.8243 72.2798 69.9266 72.3675C70.0238 72.4511 70.1301 72.5207 70.2495 72.5648C70.2851 72.5756 70.3156 72.5824 70.3461 72.5851C70.3728 72.588 70.4033 72.5869 70.4417 72.5807C70.4892 72.5716 70.5321 72.5564 70.5728 72.5366C70.6175 72.5151 70.6622 72.4862 70.7102 72.4523C70.7956 72.3884 70.8634 72.3246 70.9222 72.255C70.9827 72.182 71.0359 72.1013 71.0902 72.0068C71.1575 71.8807 71.2089 71.7626 71.2502 71.6427C71.292 71.5217 71.3259 71.395 71.3575 71.2548C71.4316 70.8794 71.4667 70.5256 71.4757 70.1717C71.4842 69.8166 71.4673 69.4553 71.4378 69.0709C71.3643 68.3065 71.2485 67.5744 71.0935 66.8485C70.9387 66.1231 70.7447 65.4051 70.514 64.6702C70.2981 64.029 70.0742 63.4009 69.8424 62.7863ZM111.587 75.9179C111.581 75.9982 111.584 76.0779 111.604 76.1497C111.61 76.1656 111.614 76.1769 111.617 76.1842L111.633 76.2046C111.644 76.217 111.659 76.2272 111.673 76.2368C111.691 76.2476 111.71 76.2572 111.73 76.2662C111.802 76.295 111.866 76.3171 111.929 76.3312C111.99 76.3442 112.051 76.351 112.12 76.3493C112.18 76.346 112.231 76.338 112.278 76.3244C112.326 76.3103 112.374 76.2905 112.426 76.2639C112.581 76.1763 112.711 76.0655 112.826 75.9394C112.944 75.81 113.048 75.6641 113.149 75.5097C113.389 75.1118 113.579 74.707 113.735 74.2903C113.892 73.8719 114.016 73.4371 114.123 72.9832C114.21 72.5688 114.29 72.1667 114.362 71.775C114.4 71.5681 114.436 71.3611 114.471 71.1531C114.222 71.447 113.98 71.7496 113.744 72.0543C113.372 72.5366 113.019 73.0267 112.701 73.4965C112.482 73.8352 112.263 74.1828 112.075 74.5413C111.889 74.8969 111.731 75.2661 111.63 75.6505C111.612 75.7359 111.595 75.8269 111.587 75.9179ZM94.3634 66.3849C94.3978 68.6175 94.6636 70.8507 95.1367 73.3648C95.3709 74.4905 95.63 75.5561 95.9272 76.6133C96.2245 77.6711 96.5601 78.7171 96.9415 79.8031C97.0409 80.0711 97.1728 80.3662 97.3057 80.6653C97.5418 81.195 97.7846 81.7395 97.8878 82.2126L97.8897 82.2206C97.9146 82.3744 97.926 82.514 97.9232 82.648C99.3953 80.8366 100.758 78.9873 102.029 77.0267C103.418 74.8833 104.698 72.6044 105.889 70.0919C107.086 67.2917 107.969 64.539 108.515 61.7382C109.057 58.9608 109.268 56.1361 109.129 53.1728C108.945 53.0323 108.753 52.8956 108.553 52.7589C108.335 52.6098 108.105 52.4607 107.864 52.3106C107.072 51.8976 106.34 51.565 105.586 51.3241C104.832 51.0822 104.051 50.9303 103.16 50.8796C102.449 50.8681 101.84 50.9236 101.256 51.0708C100.674 51.2189 100.114 51.4579 99.5014 51.8164C98.8791 52.2179 98.382 52.6356 97.9442 53.1107C97.5054 53.5848 97.125 54.1192 96.7369 54.751C96.2934 55.5186 95.955 56.246 95.6778 56.9983C95.3996 57.7526 95.1826 58.5307 94.9847 59.3977C94.5288 61.9174 94.3299 64.1528 94.3634 66.3843V66.3849ZM70.4179 58.2544C70.2828 58.5813 70.1534 58.9073 70.0295 59.2342C70.3778 60.0075 70.7102 60.8003 71.0291 61.6155C71.3553 62.45 71.6673 63.3115 71.9687 64.2037L71.9699 64.2071C72.2175 64.998 72.425 65.7675 72.5901 66.5466C72.7556 67.3239 72.8789 68.1126 72.9592 68.9437L72.9598 68.9471C72.9948 69.4039 73.013 69.8296 73 70.2582C72.9864 70.6889 72.9417 71.1164 72.8507 71.5726L72.8495 71.5766C72.8004 71.7931 72.7478 71.9859 72.6816 72.1725C72.6143 72.3618 72.5329 72.5456 72.4272 72.7434L72.425 72.7469C72.3125 72.9442 72.2 73.1098 72.0682 73.2625C71.9376 73.414 71.7895 73.5502 71.6046 73.6893L71.6001 73.6922C71.4543 73.7945 71.3191 73.8753 71.1761 73.9392C71.0302 74.0042 70.8781 74.0511 70.7001 74.0856L70.6938 74.0868C70.5276 74.1122 70.38 74.1196 70.2331 74.1083C70.0867 74.0969 69.9425 74.067 69.7808 74.0172L69.774 74.0144C69.484 73.9104 69.2493 73.778 69.039 73.6141C68.8316 73.4524 68.6472 73.2602 68.4573 73.034L68.4539 73.0295C68.1503 72.64 67.8953 72.2313 67.6822 71.8004C67.4696 71.3713 67.2994 70.9213 67.1654 70.4475L67.1631 70.439C66.894 69.2416 66.7867 68.1539 66.7996 67.0656C66.8132 65.9773 66.946 64.8934 67.1563 63.7L67.1575 63.6966C67.3169 62.896 67.499 62.1373 67.7059 61.3995C67.9055 60.6883 68.1288 59.9951 68.3782 59.3002C67.4917 57.4017 66.4983 55.6161 65.3619 53.8754C64.212 52.1137 62.9134 50.394 61.427 48.6437L61.4175 48.6323L61.4095 48.6189C61.4061 48.6122 61.3445 48.5453 61.3021 48.5003L61.2625 48.4573C60.1816 47.2625 59.1498 46.2205 58.0495 45.2531C56.9522 44.2867 55.7893 43.3958 54.4454 42.5011C53.0829 41.6389 51.834 40.9544 50.5326 40.4038C49.23 39.8523 47.8714 39.4326 46.2901 39.0981C44.6268 38.7979 43.1026 38.6373 41.5823 38.6469C40.0643 38.6564 38.5467 38.8371 36.8936 39.2176C36.0951 39.4269 35.394 39.6535 34.7169 39.9374C34.0402 40.2213 33.3888 40.5625 32.6893 41.0022C31.9948 41.4668 31.4225 41.9189 30.9063 42.4304C30.3903 42.9398 29.9305 43.5086 29.4605 44.2045C28.6604 45.494 28.1219 46.6841 27.767 47.9278C27.4112 49.1762 27.2394 50.4791 27.1734 51.9923C27.1698 52.3268 27.172 52.6547 27.18 52.9759C27.1843 53.1508 27.1905 53.3258 27.1985 53.4997L27.2301 53.4605C27.3383 53.3248 27.4425 53.1977 27.5424 53.0801L27.5467 53.0744C27.9927 52.5897 28.4225 52.1835 28.8823 51.8135C29.3408 51.4445 29.8291 51.1119 30.3935 50.7725L30.3965 50.7706C31.0548 50.395 31.6665 50.0977 32.2993 49.851C32.9319 49.6044 33.5835 49.4094 34.3216 49.2393L34.3254 49.2383C35.0248 49.093 35.658 49.0022 36.2942 48.962C36.9297 48.9229 37.5696 48.9353 38.2831 49.0003H38.2869C39.0011 49.0834 39.6262 49.201 40.2345 49.3798C40.8437 49.5595 41.4333 49.7994 42.0753 50.1263L42.0805 50.1302C42.9398 50.6072 43.6335 51.0947 44.2429 51.672C44.8518 52.2504 45.3748 52.9166 45.892 53.7521L45.8955 53.7578C46.3562 54.5656 46.6881 55.3169 46.9397 56.095C47.1913 56.8731 47.3609 57.6742 47.4982 58.5851L47.4988 58.5909C47.7085 60.3803 47.7159 62.0254 47.5628 63.6581C47.409 65.2903 47.0957 66.905 46.6633 68.6361L46.6615 68.639C46.5903 68.899 46.5275 69.1251 46.4738 69.3129C46.4144 69.5232 46.3494 69.7459 46.2788 69.9845C46.1821 70.3085 46.0821 70.6251 45.9791 70.9382C45.874 71.2588 45.7682 71.5704 45.6614 71.8835L45.6597 71.8881C44.9921 73.6808 44.2904 75.382 43.543 77.0226C42.8097 78.63 42.0335 80.1785 41.2011 81.6964C42.5513 83.189 43.9195 84.5787 45.3754 85.9508C46.86 87.3495 48.4373 88.7324 50.182 90.1887C50.3013 90.2849 50.4488 90.3906 50.5993 90.4986C50.8678 90.6913 51.1465 90.8903 51.3444 91.0984C51.3941 91.1465 51.423 91.1962 51.4519 91.2449C51.4643 91.2658 51.4795 91.2872 51.4903 91.3093C51.5185 91.367 51.5388 91.4207 51.5524 91.4766C51.566 91.532 51.5728 91.5892 51.5739 91.6547V91.661C51.5722 91.7396 51.5615 91.8091 51.54 91.8764C51.5196 91.9431 51.4874 92.0058 51.4434 92.0719L51.4399 92.077C51.4055 92.1245 51.3698 92.1647 51.3286 92.2026C51.2896 92.2387 51.2472 92.2698 51.1968 92.301L51.1895 92.306C50.8932 92.4694 50.5659 92.5056 50.2488 92.54C50.2035 92.54 50.1306 92.5526 50.0825 92.5576C43.8772 93.2005 39.0731 93.6979 33.4306 93.2355C33.0784 93.6601 32.7209 94.079 32.3582 94.4906C31.9792 94.9208 31.59 95.3488 31.19 95.7728L31.0469 95.9226C30.828 96.1499 30.4136 96.5756 30.0437 96.9358C29.6157 97.3524 29.2161 97.6696 29.091 97.552L29.0871 97.5486C28.9507 97.388 30.2721 95.8107 30.8958 95.0661L31.1812 94.7247C31.4305 94.4188 31.6718 94.118 31.9047 93.824C32.0794 93.603 32.2567 93.3763 32.4361 93.1445C31.8385 93.0845 31.2313 93.0139 30.6127 92.9313C29.8883 92.8347 29.1501 92.7227 28.3948 92.5943L28.3897 92.5938C26.5419 92.2234 24.8479 91.7819 23.1824 91.2426C21.5173 90.7027 19.886 90.0655 18.162 89.3034L18.1601 89.3023C17.5383 89.0179 16.9359 88.7285 16.3419 88.4276C15.7472 88.1269 15.1573 87.8125 14.5606 87.4796L14.5587 87.4784C13.7535 87.0137 12.9979 86.5552 12.2807 86.0922C11.559 85.6263 10.8701 85.1525 10.2017 84.6596C9.57472 84.2344 8.95806 83.7889 8.35489 83.3253C7.74894 82.86 7.16115 82.38 6.5943 81.8876L6.59363 81.8871C6.32005 81.6485 6.05641 81.4122 5.8009 81.1763C5.54376 80.9389 5.28729 80.6947 5.02882 80.4409L5.0269 80.4391C3.63635 79.0291 2.44978 77.6655 1.48814 76.1662C0.523828 74.6623 -0.213844 73.0233 -0.703459 71.0654L-0.705276 71.0575C-0.897604 70.0947 -1.00753 69.2286 -0.999598 68.3614C-0.99176 67.4924 -0.864911 66.6291 -0.583875 65.6742L-0.582059 65.6674C-0.303126 64.8556 0.0204482 64.1845 0.440282 63.5784C0.857725 62.9751 1.36933 62.4387 2.02584 61.8913C2.07478 61.8411 2.17859 61.7625 2.29875 61.6771C2.51469 61.5245 2.79869 61.3373 2.87201 61.2915L2.87392 61.2899C3.45205 60.941 3.99118 60.6742 4.55172 60.4578C5.11274 60.2427 5.69049 60.0783 6.34615 59.9339L6.35064 59.933C7.27844 59.7542 8.1183 59.6653 8.96169 59.6538C9.80385 59.6433 10.645 59.7093 11.5771 59.8402L11.5823 59.8412C13.3167 60.1414 14.8341 60.586 16.2759 61.2118C17.7162 61.8371 19.0782 62.6422 20.5037 63.6661L20.5082 63.6694C20.9891 64.0409 21.4399 64.41 21.8624 64.7821C22.198 65.0778 22.5185 65.378 22.825 65.6849C22.8663 65.3146 22.9128 64.9432 22.9647 64.5695C23.033 64.0765 23.1102 63.5796 23.1964 63.0781L23.197 63.0742C23.4806 61.6393 23.8049 60.2972 24.2356 59.0172C24.6613 57.7535 25.1902 56.5548 25.8853 55.3924C25.821 54.8581 25.7728 54.3132 25.7416 53.7492C25.7099 53.1728 25.6962 52.5763 25.7015 51.954V51.9492C25.7694 50.2917 25.9569 48.8636 26.3467 47.4938C26.7369 46.124 27.3298 44.8115 28.2079 43.3901L28.211 43.3853C28.7418 42.5957 29.2624 41.9495 29.8476 41.3683C30.4329 40.7862 31.0821 40.27 31.87 39.7414L31.8737 39.7385C32.6476 39.2501 33.3684 38.8696 34.1178 38.5532C34.8665 38.2368 35.6405 37.9844 36.5215 37.7512L36.5266 37.7502C38.297 37.3402 39.9207 37.1432 41.5483 37.1289C43.1738 37.1146 44.801 37.2828 46.5807 37.6021H46.5853C48.2695 37.9577 49.7184 38.4031 51.1093 38.9891C52.5 39.576 53.8298 40.3016 55.2782 41.2173L55.281 41.2192C56.7243 42.1799 57.9693 43.1358 59.1424 44.1749C60.3139 45.213 61.4129 46.3324 62.5663 47.6219L62.5809 47.6372C63.9801 49.2871 65.2189 50.9102 66.3281 52.5649C67.3712 54.122 68.2984 55.705 69.1357 57.3625L69.2335 57.1312C69.3109 56.9496 69.393 56.7603 69.4777 56.5672L69.4789 56.5634C70.5113 54.3381 71.6227 52.2676 72.8959 50.3022C74.1696 48.3359 75.6045 46.4777 77.2819 44.6777L77.2848 44.6739C78.6563 43.2849 79.9759 42.1254 81.3908 41.0978C82.8084 40.0702 84.3206 39.1755 86.0766 38.319H86.0795C86.2707 38.2291 86.4514 38.1469 86.6215 38.0724C86.8012 37.993 86.9838 37.9147 87.1693 37.8372L87.1721 37.8363C89.2445 37.0209 91.1296 36.4818 93.049 36.2619C94.9694 36.0411 96.9223 36.1395 99.1267 36.6012L99.141 36.6051C100.945 37.1605 102.426 37.8143 103.739 38.7109C105.053 39.6085 106.197 40.7489 107.322 42.2745L107.326 42.2803C108.312 43.7552 108.997 45.1547 109.493 46.622C109.988 48.0874 110.291 49.6178 110.513 51.3585L110.515 51.3652C110.531 51.5363 110.545 51.7179 110.559 51.9081C110.57 52.0601 110.58 52.2169 110.591 52.3785C111.086 52.7885 111.541 53.2235 111.978 53.7052C112.43 54.2033 112.862 54.751 113.298 55.3714C113.329 55.4096 113.371 55.4756 113.399 55.5205L113.421 55.554C114.001 56.4592 114.449 57.2985 114.819 58.1741C115.188 59.0468 115.478 59.953 115.745 60.9908L115.746 60.9958C116.003 62.1588 116.18 63.268 116.282 64.3513C116.374 65.3181 116.407 66.2644 116.386 67.2097C116.709 66.9587 117.036 66.7167 117.372 66.4809C117.803 66.1773 118.251 65.8817 118.729 65.5843L118.73 65.5831C119.507 65.1139 120.248 64.7069 121.011 64.3371C121.769 63.9685 122.547 63.6366 123.401 63.3167L123.404 63.3155C125.147 62.7066 126.754 62.2826 128.385 62.0904C130.019 61.8976 131.676 61.9372 133.516 62.256L133.523 62.2572C134.148 62.3906 134.692 62.5433 135.218 62.7445C135.744 62.9464 136.25 63.198 136.801 63.5287L136.805 63.5309C137.311 63.8554 137.735 64.1732 138.122 64.5288C138.51 64.8861 138.862 65.2818 139.223 65.7607L139.226 65.7647C139.575 66.2537 139.847 66.7088 140.075 67.186C140.301 67.6632 140.482 68.1618 140.647 68.7368V68.7413C140.806 69.3552 140.905 69.911 140.957 70.4713C141.008 71.0316 141.012 71.5952 140.979 72.2256V72.2307C140.881 73.397 140.682 74.3926 140.356 75.3469C140.031 76.3006 139.58 77.2104 138.978 78.2054L138.975 78.2093C138.345 79.188 137.706 80.0128 137.003 80.7789C136.302 81.5439 135.536 82.25 134.648 82.9917C134.581 83.0386 134.509 83.1088 134.442 83.1591C132.714 84.4967 131.021 85.5878 129.242 86.5111C127.464 87.4344 125.599 88.1902 123.524 88.8596L123.521 88.8602C121.038 89.6166 118.591 90.3012 116.134 90.9226C113.67 91.5462 111.191 92.1082 108.653 92.617H108.652C107.928 92.7578 107.211 92.8906 106.5 93.015C105.781 93.1411 105.062 93.2593 104.338 93.3683C104.185 93.3915 104.036 93.4124 103.881 93.4232C103.726 93.4345 103.57 93.4356 103.406 93.4181L103.401 93.4176C103.259 93.3983 103.141 93.3701 103.028 93.322C102.913 93.2733 102.809 93.2055 102.698 93.1088L102.689 93.1015C102.439 92.8516 102.196 92.4219 101.983 92.0459C101.907 91.9136 101.836 91.7876 101.769 91.6779C101.666 91.5105 101.559 91.3347 101.449 91.151C101.346 90.9791 101.241 90.8028 101.134 90.6213C101.041 90.4635 100.544 89.59 100.097 88.7607C99.878 88.3541 99.6687 87.9533 99.5205 87.6435C99.337 87.2613 99.2653 86.9826 99.3914 86.9068L99.3981 86.9023C99.5817 86.8034 100.61 88.4525 101.062 89.1779L101.248 89.4747C101.453 89.7947 101.647 90.0921 101.829 90.3702C102.02 90.6597 102.218 90.9571 102.422 91.2595L102.423 91.2607C102.469 91.3319 102.534 91.4382 102.607 91.5569C102.812 91.8905 103.078 92.3275 103.25 92.4801C103.289 92.5107 103.321 92.5293 103.354 92.5412C103.392 92.5548 103.437 92.5621 103.494 92.5683L103.519 92.5706L103.539 92.579C103.542 92.5802 103.638 92.5718 103.754 92.5604C103.935 92.5435 104.138 92.5152 104.173 92.5045L104.194 92.4994C104.679 92.41 105.182 92.3134 105.703 92.211C106.219 92.1093 106.721 92.0069 107.208 91.9052C109.927 91.3212 112.587 90.6823 115.229 89.9784C117.875 89.274 120.499 88.5062 123.144 87.6656C125.127 86.9973 126.914 86.2522 128.616 85.3492C130.317 84.4481 131.935 83.388 133.584 82.0894L133.773 81.934C134.596 81.2346 135.307 80.5709 135.954 79.8551C136.601 79.1405 137.189 78.3699 137.77 77.4563C138.301 76.5636 138.698 75.7518 138.982 74.906C139.267 74.0596 139.44 73.1748 139.522 72.1351C139.547 71.5884 139.542 71.1011 139.496 70.6194C139.45 70.1377 139.362 69.6583 139.222 69.1274C139.082 68.644 138.929 68.2279 138.738 67.831C138.548 67.4353 138.32 67.057 138.026 66.6489C137.723 66.252 137.43 65.9253 137.109 65.6312C136.786 65.3373 136.434 65.0755 136.011 64.8069C135.546 64.5293 135.116 64.319 134.67 64.1499C134.224 63.9809 133.76 63.8537 133.23 63.7418C131.542 63.4546 130.02 63.4269 128.519 63.6106C127.015 63.7949 125.534 64.1918 123.93 64.7521C123.149 65.0455 122.433 65.3497 121.734 65.6878C121.033 66.0258 120.351 66.3973 119.635 66.8247C118.999 67.2165 118.415 67.606 117.852 68.0182C117.307 68.4184 116.783 68.839 116.257 69.3032C116.193 69.9416 116.108 70.5855 116.002 71.2408C115.892 71.9215 115.761 72.6117 115.611 73.319V73.3219C115.484 73.8635 115.337 74.3717 115.15 74.8653C114.961 75.3617 114.732 75.8411 114.44 76.3222L114.437 76.3267C114.259 76.6003 114.084 76.8372 113.879 77.0475C113.673 77.2601 113.439 77.4444 113.145 77.61L113.139 77.6129C112.98 77.6943 112.833 77.7542 112.679 77.7966C112.527 77.8391 112.37 77.8634 112.189 77.8741H112.183C111.986 77.8792 111.815 77.8651 111.648 77.8323C111.481 77.7989 111.319 77.7464 111.14 77.674L111.135 77.6717C111.013 77.618 110.908 77.5626 110.81 77.4959C110.711 77.4292 110.62 77.3517 110.524 77.2533L110.52 77.2494C110.432 77.1527 110.362 77.0599 110.303 76.9588C110.243 76.857 110.196 76.7513 110.154 76.6286L110.152 76.6218C110.082 76.3844 110.055 76.1695 110.057 75.9536C110.061 75.741 110.094 75.5307 110.145 75.2989L110.146 75.2932C110.275 74.7997 110.46 74.3479 110.681 73.9149C110.9 73.4869 111.155 73.0742 111.425 72.6564L111.427 72.6536C111.913 71.935 112.469 71.182 113.058 70.4617C113.592 69.8098 114.157 69.1822 114.724 68.6299L114.79 68.5688C114.881 67.4002 114.89 66.2469 114.809 65.0692C114.726 63.8702 114.547 62.6455 114.261 61.3543C114.012 60.3861 113.74 59.5411 113.394 58.7276C113.048 57.916 112.625 57.1369 112.076 56.2958L112.068 56.2833C112.056 56.268 112.043 56.2499 112.032 56.2308C111.761 55.8465 111.494 55.4957 111.226 55.1716C111.043 54.9527 110.858 54.7443 110.668 54.5436C110.691 57.2947 110.421 59.933 109.869 62.5348C109.29 65.2643 108.402 67.9537 107.22 70.6924L107.216 70.698C105.376 74.5498 103.338 77.8577 101.024 80.9655C98.7118 84.0722 96.1232 86.9775 93.1828 90.0236L93.1819 90.0259C91.3915 91.8306 89.6116 93.5233 87.7868 95.1628C85.9629 96.8018 84.0903 98.3915 82.1173 99.9904L82.1154 99.9915C80.5984 101.196 79.1103 102.295 77.5828 103.338C76.058 104.379 74.493 105.365 72.8202 106.346L72.8173 106.348C72.7105 106.408 72.6126 106.455 72.5086 106.491C72.4023 106.526 72.2915 106.549 72.1615 106.556H72.1536C72.0332 106.558 71.9302 106.546 71.8313 106.52C71.7329 106.494 71.6397 106.455 71.5368 106.399L71.5317 106.397C71.3785 106.308 71.2372 106.205 71.0947 106.101C70.9742 106.013 70.8527 105.924 70.73 105.848C67.6188 103.96 64.6344 102.087 61.7086 100.133C58.7789 98.175 55.9051 96.1329 53.0178 93.9088L53.0162 93.9077C52.9856 93.8834 52.959 93.8585 52.9342 93.8308C52.9105 93.8031 52.8895 93.7737 52.8692 93.7398L52.8669 93.7358C52.8477 93.7019 52.833 93.6702 52.8217 93.6374C52.8098 93.6041 52.8013 93.5701 52.7951 93.5328L52.7945 93.5289C52.7889 93.4921 52.7872 93.4576 52.7883 93.4209C52.7895 93.3847 52.794 93.3503 52.8019 93.3135L52.803 93.3095C52.8121 93.27 52.8234 93.236 52.8375 93.2032C52.8517 93.171 52.8692 93.14 52.8917 93.106L52.8952 93.1015C52.9189 93.0681 52.9421 93.0409 52.9675 93.0161C52.9935 92.9912 53.0218 92.9687 53.0564 92.9454L53.0603 92.9426C53.0936 92.9217 53.1247 92.9059 53.1569 92.8923C53.1891 92.8793 53.2225 92.8697 53.2604 92.8612L53.2655 92.8607C53.3028 92.8539 53.3373 92.8499 53.3729 92.8499C53.4075 92.8494 53.4397 92.8521 53.4735 92.8572C53.5425 92.8618 53.6048 92.8946 53.655 92.92C53.6698 92.9279 53.6845 92.9342 53.6985 92.9431C54.0615 93.179 54.425 93.4226 54.7885 93.6669L55.2952 94.0055C55.5631 94.1831 55.8277 94.3554 56.0917 94.5216C56.3608 94.6907 56.6289 94.8535 56.9002 95.0096C58.555 95.9345 60.103 96.7498 61.7017 97.4536C63.2955 98.1552 64.9373 98.7449 66.7809 99.2187C67.3475 99.3498 67.8834 99.4567 68.425 99.5393C68.9666 99.6223 69.5094 99.6806 70.0889 99.7168C70.4174 99.7337 70.7323 99.7405 71.045 99.7371C71.3553 99.7337 71.6708 99.7201 72.0015 99.6964C72.3492 99.6636 72.663 99.6229 72.9484 99.5766C73.2283 99.5308 73.4788 99.4804 73.7049 99.4268L73.8435 99.3674C74.5999 99.0434 75.5395 98.6409 75.7143 98.5572C77.0406 97.9172 78.3539 97.1812 79.6379 96.3965C80.9243 95.6105 82.1804 94.7755 83.3925 93.9382C85.5595 92.4174 87.7256 90.8152 89.8219 89.132C91.9182 87.4484 93.9485 85.6823 95.8422 83.833C95.9808 83.6933 96.1223 83.5492 96.2465 83.4C96.3698 83.2524 96.4798 83.0958 96.5639 82.9261C96.6031 82.8374 96.627 82.7655 96.6365 82.6955C96.6461 82.626 96.6423 82.5507 96.6251 82.4541C96.5467 82.1261 96.3106 81.6077 96.0859 81.1164C95.9416 80.7992 95.802 80.4929 95.7103 80.2497L95.7093 80.2475C95.3059 79.1348 94.9522 78.0624 94.6368 76.9774C94.3204 75.8903 94.0441 74.7952 93.7946 73.6395L93.7937 73.6362C93.2804 71.0299 92.9869 68.7113 92.9381 66.3849C92.8884 64.0579 93.0834 61.7285 93.5442 59.1023L93.5461 59.0956C93.7593 58.1435 93.9925 57.2928 94.2926 56.4688C94.5947 55.6419 94.9647 54.8399 95.4512 53.9892L95.4541 53.9844C95.9043 53.2445 96.3498 52.6213 96.865 52.063C97.3831 51.5038 97.97 51.0106 98.7032 50.5355L98.7089 50.5316C99.4593 50.0891 100.15 49.7899 100.873 49.6035C101.594 49.418 102.343 49.3473 103.213 49.3597H103.219C104.248 49.4151 105.146 49.5843 106.013 49.8568C106.877 50.1292 107.71 50.5058 108.614 50.9771L108.624 50.9828C108.746 51.0583 108.856 51.1272 108.952 51.1893L108.973 51.2036C108.77 49.7287 108.497 48.4105 108.073 47.1487C107.618 45.7971 106.989 44.5075 106.082 43.153C105.07 41.7851 104.046 40.7661 102.872 39.967C101.698 39.1669 100.37 38.5828 98.75 38.0829C96.7273 37.6633 94.9341 37.581 93.1704 37.7894C91.403 37.9988 89.6632 38.5016 87.7514 39.2529L87.7294 39.2615L87.7046 39.2634C87.7007 39.2634 87.631 39.2979 87.5239 39.3447C87.3031 39.4412 87.0067 39.576 86.9417 39.6057C85.2278 40.423 83.7528 41.2823 82.3773 42.2717C81.0008 43.2629 79.7175 44.3871 78.3867 45.733C76.7737 47.4632 75.3919 49.2565 74.1651 51.1511C72.9389 53.0466 71.8664 55.0454 70.8725 57.1876C70.7102 57.5566 70.5587 57.9112 70.4179 58.2534V58.2544Z" fill="#333333"/>
</g>
<defs>
<clipPath id="clip0_1186_5593">
<rect width="140" height="140" fill="white" transform="translate(0 0.851074)"/>
</clipPath>
</defs>
</svg>
