<svg width="140" height="140" viewBox="0 0 140 140" fill="none" xmlns="http://www.w3.org/2000/svg">
<circle cx="71.5" cy="70.5" r="62" stroke="#0F5C30"/>
<circle cx="119" cy="26" r="13" fill="#0F5C30"/>
<path d="M114 25.08L117.96 29.04L125 22" stroke="white" stroke-width="1.76"/>
<path d="M38.3115 48.7335C38.6932 48.7309 39.1311 48.7786 39.5893 48.8615C39.0496 49.3938 38.1227 50.3682 38.2548 50.3531C37.9002 50.4219 37.1141 49.3655 37.3546 48.9711C37.4778 48.7687 38.1001 48.7352 38.3115 48.7335ZM43.6223 55.823C44.9708 56.1821 46.5839 56.9881 47.2461 57.2987C47.5459 57.4391 47.815 57.5672 48.0715 57.6793L45.986 57.9246C45.9529 57.9048 45.9165 57.8881 45.8768 57.8752C45.6715 57.8086 45.2005 57.9186 44.551 57.8116C44.7751 57.1762 44.026 56.2779 43.6223 55.823ZM29.9652 83.4203L31.0916 83.2884C32.3923 83.4976 33.6449 83.8872 34.8371 84.3388C33.7583 85.207 32.0712 86.0847 30.8013 86.4834C30.1436 86.6896 28.548 87.0625 27.8892 86.5066C27.8657 86.4554 27.8445 86.4026 27.8255 86.3489C27.2819 84.807 28.6082 83.7738 29.9652 83.4203ZM30.0837 79.7376C30.9962 80.6175 31.911 81.7035 32.8862 82.5516L32.1794 82.3759C31.3322 82.1808 29.901 82.0412 29.1828 81.7993C28.9745 81.7233 28.7904 81.5673 28.6306 81.4178C28.0388 80.8533 27.5271 79.9473 27.4133 79.0898C27.4631 78.8909 27.5605 78.7113 27.7275 78.579C27.8737 78.4647 28.0948 78.4067 28.236 78.4144C28.7661 78.5021 29.7086 79.3759 30.0837 79.7376ZM42.4643 55.9802C42.8468 56.2431 43.4537 57.0602 43.6082 57.3786C43.4929 57.3678 43.358 57.3399 43.2271 57.3073C42.9188 57.1749 42.5112 56.4493 42.4643 55.9802ZM30.3785 72.3204C30.8357 72.5855 31.3228 72.9356 31.7669 73.3167C31.3089 73.1998 30.8706 73.0383 30.4164 72.8372C30.4056 72.671 30.3923 72.4978 30.3785 72.3204ZM29.9677 72.1013C29.9966 72.2921 30.024 72.4807 30.0461 72.6662C29.415 72.3638 28.7883 71.9832 28.1954 71.5695C28.8348 71.6554 29.4038 71.8264 29.9677 72.1013ZM31.3903 68.1815C32.3831 67.5217 33.5054 67.6123 34.3892 68.3736C35.5381 69.363 35.745 71.7954 34.6359 72.9481C34.294 73.3034 33.9064 73.4537 33.4612 73.5036C33.1149 73.086 32.4019 72.4764 32.0879 72.225C31.539 71.786 30.8662 71.3821 30.2986 71.1205C30.2483 69.8867 30.2931 68.9102 31.3903 68.1815ZM40.6669 55.9127C41.0405 56.0356 41.3281 55.9888 41.5598 55.9067C41.559 56.1894 41.6367 56.4888 41.7362 56.7372C41.347 56.5258 40.9931 56.2642 40.6669 55.9127ZM40.52 54.6892C41.6851 54.776 42.3022 53.7724 43.8924 53.9155C44.6916 54.0074 45.2945 54.3197 45.9725 54.7141C46.6644 55.1171 48.1514 56.137 49.2603 57.0005C48.6107 56.8291 47.1471 56.1035 46.5158 55.8165C45.516 55.362 44.5151 54.9538 43.3358 54.7098C41.8718 54.492 42.2129 54.681 41.1411 54.9848C40.9632 55.0002 40.6639 54.8099 40.52 54.6892ZM44.3138 50.7106C44.9122 51.2734 45.6973 52.0136 45.8628 52.1884C46.753 53.1448 47.5898 54.1346 48.4685 55.0926C47.0536 54.089 45.4581 52.9544 43.9875 52.8376C42.7899 52.7577 42.3033 52.9789 41.2441 53.4506C40.6628 53.7011 40.3784 53.6306 39.8132 53.3041C39.6751 53.2204 39.5421 53.1349 39.4143 53.0468C39.3426 52.9291 39.2316 52.8483 39.0979 52.8161C38.3863 52.2645 37.8457 51.6136 37.4299 50.7836L37.9806 51.0895C38.2346 51.1552 38.3802 51.1402 38.6189 51.0337C38.9006 50.8644 39.9616 49.5807 40.5789 49.0836C41.4322 49.3088 42.2682 49.6121 42.8695 49.8965C43.3896 50.1474 43.8409 50.3974 44.3138 50.7106ZM46.7906 47.1315C47.0899 47.3394 47.4125 47.5688 47.7417 47.8133C46.47 47.3308 45.1029 46.9829 43.8758 46.9498C42.5061 46.9124 41.1831 47.5014 40.1352 48.3636C39.511 48.2038 38.8687 48.0891 38.318 48.0749C38.1222 48.0702 37.8973 48.0749 37.6765 48.1084C37.9748 47.5955 38.3558 47.1384 38.848 46.8239C40.157 46.0411 41.3137 45.7954 42.8297 45.8422C44.3474 45.9492 45.5039 46.3165 46.7906 47.1315ZM99.9405 59.9897C100.179 59.9339 101.579 59.2255 102.415 59.0308C102.089 59.6473 101.85 60.6943 102.229 61.4126C101.807 61.3138 100.06 60.1534 99.9405 59.9897ZM73.4039 93.4633C75.6619 95.4897 77.9183 97.5183 80.1737 99.5474L79.8859 99.4022C78.1159 98.3217 75.5795 96.7872 73.2763 95.0859C73.3128 94.5437 73.3554 94.0028 73.4039 93.4633ZM70.4542 90.6467C71.0604 91.2877 71.7224 91.9317 72.4747 92.6229C72.4137 93.199 72.3604 93.776 72.3149 94.3543C71.2804 93.5414 70.3279 92.7011 69.558 91.8625C69.8652 91.4724 70.1642 91.066 70.4542 90.6467ZM69.6526 89.763L69.7522 89.8769C69.4708 90.2824 69.18 90.6781 68.8797 91.0596C68.7723 90.9204 68.6705 90.7812 68.576 90.6424C68.9463 90.3567 69.3059 90.0633 69.6526 89.763ZM66.2548 84.9308C67.2467 86.6032 68.127 87.9067 69.0984 89.1031C68.7886 89.3807 68.4677 89.6509 68.1347 89.9185C67.2695 88.3672 66.4399 86.348 66.0181 84.6717C65.8887 84.1381 66.1315 84.722 66.2548 84.9308ZM97.8676 59.8041C97.9188 59.735 101.953 57.1625 102.786 57.8868C101.796 57.9689 99.0383 59.2792 97.8676 59.8041ZM104.736 90.4865C105.058 90.4852 105.076 90.337 105.672 90.9096C106.426 91.6366 107.422 92.8322 106.753 93.9255C106.629 94.1279 106.299 94.1966 106.096 94.1966C104.786 94.1966 103.115 91.6808 101.221 90.8096C101.889 90.4989 102.621 90.5123 103.374 90.5166C103.599 90.5178 103.683 90.4835 103.899 90.4843L104.736 90.4865ZM102.786 89.4954C103.211 89.2294 106.343 87.8783 106.6 87.7726C106.993 87.6193 107.556 87.3924 108.076 87.3924C107.997 87.7327 107.54 88.2216 107.31 88.4519C106.703 89.0589 106.372 89.2539 105.461 89.3858C105.001 89.452 103.766 89.4662 103.218 89.464C103.021 89.4632 102.965 89.4954 102.786 89.4954ZM104.598 75.7191C105.644 75.0012 107.388 74.7537 108.297 75.8823C108.611 76.2728 109.055 77.0835 109.066 77.5569C108.474 77.6948 107.411 78.3195 106.838 78.7014C106.418 78.9819 105.787 79.2943 105.787 79.6912C105.787 79.8042 105.815 79.7647 105.818 79.9078H105.539C104.901 79.9078 104.363 79.3033 104.094 78.8471C103.52 77.8675 103.615 76.3944 104.598 75.7191ZM104.355 56.8261C105.269 56.6753 107.016 56.607 107.798 57.0207L106.468 58.8143C105.998 58.5007 106.02 58.3856 105.385 58.0715C105.028 57.895 104.405 57.7631 103.869 57.7631C103.587 57.2312 103.374 57.1779 103.281 57.0516C103.459 56.9661 104.091 56.8695 104.355 56.8261ZM73.2037 96.2892C74.279 97.0372 75.3599 97.7259 76.348 98.3612C77.3714 99.0185 78.3947 99.6763 79.418 100.334L81.6898 101.65C81.1378 102.693 80.6583 103.405 80.0792 104.401C79.4571 105.471 78.8578 106.688 78.3174 107.973C77.4169 109.941 76.7493 111.939 76.2385 114.235C75.9743 115.548 75.7801 116.87 75.6667 118.204C75.5881 119.24 75.5447 120.254 75.5481 121.264C75.1812 119.882 74.8573 118.496 74.5583 117.056C73.5564 111.946 73.0753 107.419 73.0508 102.21C73.0521 101.915 73.0542 101.619 73.0572 101.325C73.0748 99.6303 73.1157 97.9535 73.2037 96.2892ZM67.7481 91.2551C67.8916 91.4634 68.0437 91.6692 68.2035 91.8716C66.8605 93.419 65.5077 94.6211 63.5878 95.5705C61.0552 96.6767 58.3774 97.426 55.7087 98.1245C52.0746 99.0362 47.8736 99.9822 43.844 100.563C45.9033 99.9839 47.9114 99.3433 49.9356 98.6431C51.648 98.0558 53.3626 97.5209 55.0836 96.965C55.9948 96.669 56.8987 96.3627 57.791 96.0177C58.6034 95.7797 59.393 95.5181 60.2063 95.2186C62.7032 94.2941 65.3951 92.9284 67.7481 91.2551ZM72.6156 91.4205C72.0627 90.892 71.5325 90.3464 71.0252 89.7845C71.8552 88.4793 72.5885 87.0853 73.1771 85.7148C73.2772 85.4837 72.7565 84.4234 72.1215 85.6091C71.4127 86.6814 70.6664 87.5802 69.8459 88.3977C68.1158 86.2346 66.696 83.8503 65.591 81.2507C65.5468 81.1446 65.4974 81.0153 65.4488 80.9294C65.0076 80.1505 64.3052 80.6617 64.3048 81.0209C64.3052 81.3856 64.3752 81.7534 64.4289 82.0726C64.7773 84.1171 65.1459 85.7878 65.951 87.7078C66.36 88.6804 66.7798 89.6445 67.3086 90.5591C67.1256 90.6961 66.9396 90.8332 66.7493 90.9707C64.6893 92.4038 62.7689 93.462 60.4821 94.4853C60.3317 94.5515 60.1496 94.6408 59.9984 94.6941C59.1314 95.0554 58.2726 95.3836 57.4009 95.6968C56.7312 95.8841 56.061 96.068 55.3891 96.2471C53.4584 96.7605 51.5862 97.2644 49.6774 97.8672C46.6748 98.8149 40.7806 100.622 37.7384 100.747C35.6472 100.801 34.7751 100.285 34.1125 100.349C34.0266 100.319 33.9608 100.294 33.9496 100.285C32.35 99.6389 31.2222 98.9013 30.2012 97.4891C29.1788 96.0014 29.2613 94.2095 29.7249 92.5379C29.9777 91.6696 30.4605 90.621 30.554 89.7536C30.6236 88.729 29.4605 88.1902 28.603 87.4169C30.7908 87.7198 34.18 86.0293 35.7145 84.6867L36.2121 84.8448C36.4152 84.8277 36.5738 84.7675 36.6883 84.5785C36.8163 84.3675 36.7817 84.0724 36.627 83.9207L36.4288 83.7515C35.6595 83.1187 34.8234 82.5971 33.9924 82.0528C32.8393 81.2976 30.8264 78.7564 29.1468 77.8654C28.6954 77.6261 28.2906 77.5075 27.7997 77.6708C28.4744 76.9048 29.9737 76.3695 30.2972 75.7118C30.448 75.3818 30.518 75.0996 30.554 74.7649C31.4245 74.8826 32.1789 74.8414 33.1366 74.5531L33.4786 74.395C33.7913 74.3649 34.0981 74.294 34.3879 74.1643C36.6292 73.1629 36.7021 69.5481 34.9861 67.9208C34.465 67.4263 33.6843 67.0908 32.9646 67.0603C32.1998 67.0469 31.6597 67.2407 31.0339 67.6733C29.8904 68.4728 29.6891 69.6272 29.8079 70.919C28.9172 70.596 27.9771 70.4761 26.8184 70.5113C26.8597 70.51 26.7356 70.5113 26.6969 70.5135C26.1227 70.5487 26.0484 71.1944 26.3702 71.4255C27.2131 72.1035 28.0001 72.6443 28.9478 73.1689L29.3691 73.3721L28.4617 73.0924C26.3338 72.2427 24.4826 70.6638 24.3497 68.258C24.3092 67.526 24.4127 66.9327 24.7935 66.3205C25.5798 65.0566 27.0584 64.419 27.8672 63.5942C28.9817 62.4484 29.9363 61.1819 31.0556 60.0177C32.4414 58.6214 35.7469 56.9142 36.1245 54.8018C36.2947 53.7131 36.4103 52.6314 36.5924 51.5432C37.0812 52.4299 37.6994 53.1319 38.5044 53.7368C38.5622 54.1793 38.7087 54.5681 38.9124 54.9998C39.3514 55.9059 39.9771 56.7311 40.8158 57.2982C41.2879 57.6179 42.0283 57.9508 42.566 58.1007C42.579 58.1042 42.6079 58.1145 42.6079 58.1145C42.7624 58.157 42.9192 58.2017 43.077 58.2382L43.2296 58.3117C41.8456 58.6244 40.523 59.2207 39.7102 60.4327C39.6049 60.5968 39.5244 60.7527 39.465 60.9392C39.3498 61.3168 39.7758 61.749 40.2272 61.413C41.9192 60.3429 43.9439 59.4059 45.8604 58.8341C46.0011 58.7911 46.1003 58.7052 46.1588 58.6017C46.6416 58.5475 47.1155 58.4925 47.5666 58.4212L49.5099 58.1162C49.8458 58.1626 50.214 58.1738 50.6483 58.1428C50.8799 58.1265 51.05 57.9955 51.1389 57.8245L51.3649 57.7828C51.5063 57.7493 51.7172 57.7893 51.8233 57.5895C51.9359 57.379 51.7756 57.22 51.6003 57.1247C50.9241 56.7526 50.4378 56.3475 49.8737 55.829C48.3297 54.3932 47.3426 53.1263 45.6993 51.611C45.3794 51.1655 44.486 50.4167 44.2185 50.2187C43.2884 49.5309 42.2499 49.0398 41.1533 48.6674C41.954 48.1501 42.8765 47.8103 43.8442 47.8502C45.1274 47.9357 46.1085 48.2098 47.3026 48.6674C48.1836 49.0089 48.8319 49.335 49.6551 49.7835L50.5272 50.2436C50.5903 50.2629 50.6956 50.2655 50.6887 50.2664C51.0354 50.2513 51.1527 50.0172 51.169 49.6993C51.1523 49.6061 51.1273 49.5416 51.0711 49.4669C50.1049 48.2751 48.633 47.1594 47.3789 46.2693C45.9205 45.3271 44.6168 44.9005 42.8873 44.7686C41.1228 44.7046 39.7845 44.9955 38.2595 45.9024C37.562 46.3741 37.1422 46.8583 36.729 47.5555C36.6337 44.5594 37.7431 40.9864 38.8541 38.2979C39.8816 35.8353 40.9162 33.4927 42.1629 31.1294C42.9691 29.6154 44.1402 27.8751 45.5232 26.8058C48.5041 32.3993 53.9817 40.9666 58.209 45.499C61.4599 48.9518 64.8233 51.4706 68.4187 54.486C72.418 57.9285 75.1112 60.7003 77.0303 65.722C77.874 68.3182 77.8951 70.2243 77.4384 72.8922C77.0169 75.2293 76.0825 77.8074 75.375 80.0796C75.1163 80.9221 74.8805 81.7216 74.667 82.4919C74.5329 82.8923 74.4006 83.2935 74.2722 83.6965C73.4662 86.2445 72.9481 88.82 72.6156 91.4205ZM93.8585 34.876C95.7364 32.377 97.4002 29.9454 99.0044 27.2629C99.4048 26.5936 99.7919 25.9289 100.168 25.2454C102.702 27.7784 104.428 30.4231 105.732 33.79C105.858 34.1165 105.966 34.4503 106.078 34.7824C106.725 36.7397 107.197 38.5702 107.665 40.4468C107.981 42.0299 108.279 43.6134 108.682 45.218C109.183 47.208 109.932 49.9016 109.932 51.9792C109.772 51.8722 109.578 51.593 109.37 51.4272C109.167 51.2648 108.967 51.062 108.744 50.9091C107.884 50.3192 107.511 50.0902 106.549 49.7324C102.448 48.2859 96.1402 50.2127 92.8635 53.0687C92.4906 53.3935 92.0778 53.6882 91.7912 54.0998C91.3999 54.6626 91.933 55.072 92.2999 55.072C92.3948 55.072 93.0814 54.7042 93.2274 54.6385C94.1468 54.2257 95.2616 53.8064 96.2669 53.5954C97.9106 53.2401 99.3008 52.9381 101.054 52.9381C101.298 52.9381 101.421 52.9716 101.641 52.9695C103.267 52.9544 104.935 53.6238 106.213 54.5844C106.586 54.8653 107.616 55.8535 107.705 56.1855C107.363 56.0214 106.352 55.9072 105.818 55.9072C103.254 55.9072 100.495 56.9056 98.3213 58.0926C97.8904 58.3276 96.5994 59.1576 96.5994 59.6186C96.5994 59.9171 96.7403 60.107 97.0325 60.1753L96.1256 60.629C95.9224 60.7231 95.421 60.8593 95.4674 61.3091C95.5503 62.1069 96.5634 61.6772 96.8821 61.5711L98.3896 61.0376C99.1719 60.7768 99.1805 60.7098 99.7906 61.16C100.91 61.9805 101.999 62.6022 103.388 62.8269C103.981 62.9132 105.006 62.9888 105.58 62.8488C106.079 62.7268 106.432 62.179 105.896 61.9036C105.656 61.7808 104.843 61.792 104.549 61.7838C104.587 61.3353 105.298 59.8583 104.828 58.969C105.56 59.1395 106.426 60.7557 107.457 59.2164C107.509 59.2581 107.446 59.3672 107.421 59.521L107.407 59.619C107.207 60.9284 107.491 62.0643 107.982 63.2728C108.325 64.1144 108.814 65.2069 109.245 65.9961C109.536 66.5284 109.825 67.0182 110.106 67.5646C110.634 68.5888 111.114 69.4674 111.721 70.4495C112.22 71.2571 112.697 71.9316 113.242 72.701C114.584 74.6115 115.389 75.8398 113.436 77.7202C113.292 77.8585 112.701 78.3212 112.53 78.3612C111.763 77.6192 111.342 77.3404 110.118 77.3404C109.929 77.3404 109.892 77.3713 109.715 77.3713C109.628 76.9972 109.427 76.5766 109.253 76.287C108.808 75.5442 108.363 75.2035 107.563 74.8843C106.605 74.5028 105.733 74.4809 104.788 74.8573C104.019 75.164 103.561 75.6001 103.188 76.3506C102.388 77.9603 103.389 80.4134 105.175 80.7975C106.039 80.9831 106.807 80.6643 107.561 80.2893C108.11 80.0156 107.982 80.0933 108.602 80.0933C107.884 81.1657 107.086 81.9243 107.086 83.4026C107.086 84.8551 107.759 85.7268 107.889 86.2772C107.92 86.4082 107.714 86.3687 107.598 86.3889C106.368 86.6007 104.67 87.4616 103.632 87.9599C102.966 88.2796 102.29 88.5395 101.655 88.9214C101.36 89.0993 100.157 89.8932 100.157 90.3615C100.157 90.7305 100.431 91.1184 100.764 91.2692C102.756 92.168 103.075 93.1853 104.226 94.0557C104.598 94.3362 105.395 94.9592 105.879 94.9699C105.842 95.1108 105.594 95.2135 105.465 95.2663C104.704 95.5787 103.824 95.9275 103.175 96.4336C102.506 96.9556 102.408 97.3048 102.525 98.1043C102.798 99.9809 103.211 101.279 102.997 103.245C102.7 105.829 100.936 107.239 98.3806 107.246C95.6126 107.253 90.4955 105.128 88.0021 103.844C87.511 103.587 86.2179 102.976 85.8287 102.739C84.9136 102.216 83.6841 101.635 82.7974 101.1C82.479 100.908 82.5301 100.915 82.3269 100.611C81.6142 99.5448 79.8653 98.0678 78.8355 97.081C78.7044 96.9568 78.5734 96.8327 78.4411 96.7094C76.8348 95.2109 75.158 93.7498 73.5233 92.2612C73.8275 89.4756 74.3203 86.7136 75.1163 83.9513C75.433 82.86 75.7762 81.7779 76.0954 80.6875C76.3695 79.787 76.6634 78.8849 76.9495 77.981C77.529 76.3059 78.1262 74.5149 78.3968 73.0727C78.9055 70.2209 78.884 68.1699 77.9947 65.3874C76.0241 60.15 73.2707 57.2578 69.1181 53.6629C65.5794 50.6796 62.222 48.16 59.0206 44.7575C56.4304 41.9534 53.7338 38.16 51.6807 34.989C51.5668 34.8133 51.4328 34.6234 51.3284 34.4442C49.5498 31.6702 47.8945 28.9508 46.3531 26.0342C46.2879 25.9057 46.2803 25.8447 46.1847 25.712C45.9675 25.4284 45.5985 25.4203 45.2951 25.6226C43.7407 26.701 42.6408 28.159 41.6698 29.7611C40.3613 32.0152 38.8386 35.4667 37.8412 37.8773C37.0676 39.765 36.4939 41.4843 36.0529 43.4815C36.0335 43.5735 35.9141 44.1186 35.9188 44.168C35.5947 46.1116 35.4734 47.803 35.8893 49.6215C35.4323 51.254 35.3029 52.9519 35.0427 54.6218C34.9568 55.0484 34.7087 55.3886 34.4362 55.7173C33.324 57.0306 31.4065 58.1098 30.2738 59.2512C29.1556 60.4142 28.2004 61.6815 27.0918 62.8204C26.5059 63.3768 25.6562 63.8889 24.9939 64.4521C23.7873 65.4995 23.1856 66.6246 23.2486 68.2314C23.3622 71.1227 25.4885 73.0868 28.0656 74.105L29.9258 74.6579C29.8721 74.8976 29.7937 75.1258 29.6643 75.3496L29.1242 75.7375C28.3962 76.147 27.6699 76.4558 27.0749 77.0878C26.3484 77.8594 26.2644 78.8329 26.522 79.8356C26.7816 80.846 27.5238 82.0743 28.4152 82.6306L28.1088 83.2222C26.9963 83.9959 26.3874 85.2388 26.8774 86.6758C27.1909 87.5956 27.8713 88.1812 28.6167 88.7539C28.8197 88.9098 29.5357 89.4047 29.5102 89.702C29.4269 90.3421 28.9081 91.5523 28.6974 92.2543C28.1323 94.2366 28.0939 96.3408 29.2977 98.1035C30.3869 99.6191 31.5696 100.464 33.2207 101.172C33.8549 101.679 35.1405 101.913 36.3115 102.026C37.0961 102.144 37.8853 102.19 38.767 102.179L40.2009 102.092C42.7844 101.94 45.2232 101.515 47.7804 101.212C50.0164 100.957 52.6997 100.847 54.6978 102.046C56.732 103.301 58.0587 104.886 59.4485 106.799C61.1991 109.299 62.5846 111.826 64.001 114.521C66.0623 118.458 69.2638 125.353 72.2105 128.516C72.2848 128.596 72.912 129.255 72.9898 129.185C73.0504 129.117 72.2835 128.061 72.2801 128.056C69.5288 124.022 67.3365 119.056 65.155 114.673C63.7789 111.909 62.0841 108.676 60.3279 106.176C58.832 104.09 57.4259 102.423 55.2095 101.072C54.291 100.528 53.2032 100.218 52.246 100.082C53.5598 99.7841 54.84 99.4748 56.0605 99.1685C58.7684 98.4592 61.4779 97.6915 64.0414 96.5522C66.0653 95.5378 67.483 94.295 68.8857 92.6711C69.8571 93.7288 71.0191 94.6992 72.2276 95.5907C72.1112 97.4569 72.0614 99.3352 72.0421 101.225C72.0386 101.552 72.0365 101.879 72.0347 102.206C72.0648 107.504 72.5546 112.111 73.5723 117.309C74.0999 119.848 74.7074 122.199 75.5026 124.667C75.5872 124.926 75.6693 125.184 75.7569 125.442C75.8037 125.576 75.8879 125.676 76.0112 125.745C76.4138 125.959 76.8756 125.632 76.8094 125.181C76.4559 122.858 76.4211 120.612 76.5568 118.271C76.6445 116.969 76.8112 115.676 77.0423 114.392C77.3993 112.685 77.8409 111.162 78.3865 109.693C78.8866 108.451 79.4567 107.241 80.0805 106.042C80.4431 105.346 81.1588 104.19 81.5347 103.599C81.7302 103.292 82.3394 102.349 82.4012 102.083C83.9311 102.888 85.7715 103.899 87.3297 104.64C90.5961 106.153 96.651 109.033 100.199 107.921C103.433 106.873 104.11 104.102 103.795 101.03C103.685 99.9534 103.4 99.0207 103.26 97.9875C103.209 97.6038 103.155 97.4324 103.433 97.1515C104.386 96.1857 105.816 96.2025 106.834 94.9647C107.06 94.6782 107.268 94.7706 107.612 94.0733C108.172 92.94 107.58 91.6885 106.874 90.8212C106.728 90.6411 106.493 90.4452 106.374 90.2687C106.451 90.2322 106.541 90.2107 106.621 90.1754C107.502 89.7905 108.199 89.1783 108.732 88.3883C108.912 88.1215 109.128 87.6751 109.128 87.3306C109.128 85.4721 106.999 83.9783 108.62 81.5033C108.83 81.1824 109.41 80.4547 109.499 80.1243C111.163 80.1243 112.302 79.8738 113.56 78.927C114.643 78.1124 115.562 76.9546 115.562 75.5159C115.562 74.0964 114.312 72.701 113.67 71.8397C111.799 69.3277 110.359 67.3228 109.106 64.4143C108.297 62.5386 107.49 60.5598 108.458 58.5772C108.617 58.2606 108.841 57.6999 109.141 57.4976C109.521 57.2407 110.212 55.142 110.436 54.5861C110.791 53.7002 110.621 53.6483 110.675 53.2809C110.885 51.8684 110.716 50.3794 110.414 49.0231L109.4 44.934C109.023 43.4931 108.717 42.0432 108.399 40.5984C107.991 38.5642 107.543 36.6705 106.874 34.5203C106.765 34.1805 106.653 33.8424 106.538 33.5047C105.197 29.8633 103.378 27.0386 100.607 24.3209C100.484 24.2045 100.44 24.1345 100.28 24.0485C100.166 23.9974 100.054 23.9867 99.9324 24.0163C99.7339 24.0739 99.6432 24.1899 99.5487 24.363C99.5062 24.4408 99.4637 24.5211 99.4211 24.5993C99.0203 25.3339 98.607 26.0497 98.1783 26.768C96.5865 29.4019 94.9635 31.8017 93.1127 34.2608C90.6047 37.5649 87.8513 40.7157 84.8414 43.5726C82.821 45.4904 80.6712 47.2771 78.408 48.9015C77.7082 49.4041 76.9959 49.8896 76.2832 50.3738C76.1822 50.4425 75.3062 51.0173 75.3466 51.0908C75.387 51.1643 76.1109 50.812 76.1981 50.7699C76.9465 50.406 77.6704 49.991 78.3792 49.5558C80.8937 48.0122 83.2295 46.1687 85.4115 44.1865C88.5116 41.3696 91.3294 38.2124 93.8585 34.876ZM103.343 50.2784C104.256 50.2784 105.584 50.4644 106.423 50.7862C107.128 51.056 108.133 51.642 108.656 52.1725C109.058 52.5798 109.623 53.0859 109.623 53.7114C109.623 54.2252 108.665 55.6773 108.633 55.8144C108.5 55.7787 108.466 55.6421 108.319 55.4475C107.98 54.9985 107.425 54.349 106.98 54.0027C105.802 53.0859 104.69 52.4479 103.175 52.1781C100.855 51.7644 98.3162 52.0471 96.0611 52.6163C95.8132 52.6791 95.6165 52.7358 95.3746 52.7959C95.1259 52.8578 94.9115 52.9463 94.6817 53C97.0342 51.3967 100.371 50.2784 103.343 50.2784Z" fill="#333333"/>
</svg>
