<svg width="140" height="140" viewBox="0 0 140 140" fill="none" xmlns="http://www.w3.org/2000/svg">
<circle cx="69.5" cy="70.5" r="62" stroke="black"/>
<circle cx="117" cy="26" r="13" fill="#70C5A3"/>
<path d="M112 25.08L115.96 29.04L123 22" stroke="white" stroke-width="1.76"/>
<circle cx="69.0767" cy="70.7444" r="6.83254" stroke="black"/>
<path d="M32.4133 54.5192C31.3212 50.0469 34.0982 42.4439 53.9428 47.8107C78.7487 54.5192 109.483 80.1051 105.427 89.6218C101.37 99.1385 71.2601 89.1538 63.7715 82.9133" stroke="black"/>
<path d="M74.0967 109.061C70.7696 112.243 62.7967 113.64 57.5222 93.7702C50.929 68.9335 57.7199 29.5239 67.9898 28.2784C78.2596 27.0329 84.6677 58.1015 83.0076 67.707" stroke="black"/>
<path d="M100.49 45.6913C104.909 46.9817 110.105 53.1882 95.535 67.6908C77.3223 85.819 39.7972 99.6427 33.5836 91.3715C27.3701 83.1003 51.0722 62.0164 60.2209 58.6514" stroke="black"/>
<circle cx="34.9098" cy="59.0436" r="2.30821" stroke="black"/>
<circle cx="95.442" cy="46.2506" r="2.30821" stroke="black"/>
<circle cx="77.3453" cy="104.911" r="2.30821" stroke="black"/>
<path d="M70.2005 68.882L70.247 69.2732L70.6381 69.3196L80.7564 70.5201L70.6381 71.7207L70.247 71.7671L70.2005 72.1583L69 82.2765L67.7995 72.1583L67.753 71.7671L67.3619 71.7207L57.2436 70.5201L67.3619 69.3196L67.753 69.2732L67.7995 68.882L69 58.7637L70.2005 68.882Z" stroke="black"/>
</svg>
