<svg width="140" height="141" viewBox="0 0 140 141" fill="none" xmlns="http://www.w3.org/2000/svg">
<g id="B ICON">
<g id="Group 40">
<circle id="Ellipse 68" cx="71.5" cy="71.3511" r="62" stroke="#E42769"/>
<g id="Group 43">
<circle id="Ellipse 69" cx="119" cy="26.8511" r="13" fill="#E42769"/>
<path id="Vector 138" d="M114 25.9311L117.96 29.8911L125 22.8511" stroke="white" stroke-width="1.76"/>
</g>
<g id="g10">
<g id="g12">
<g id="g18">
<path id="path20" d="M21.933 65.9645C23.437 67.466 25.5563 68.542 27.923 69.0035C29.2384 69.2607 29.9626 69.329 31.5929 69.353C33.1066 69.3746 33.7111 69.3506 36.2702 69.1666C37.2089 69.0994 38.0134 69.0448 38.0586 69.0461C38.1041 69.0466 37.9018 69.1432 37.6093 69.2613C37.3174 69.3787 36.4008 69.751 35.5726 70.0891C32.7082 71.2592 30.5219 72.0606 29.3918 72.3579C28.5223 72.5851 28.114 72.6372 27.1423 72.6372C26.157 72.6372 25.7596 72.597 24.4854 72.3651C23.7665 72.2344 23.6336 72.2207 23.1222 72.2207C22.3853 72.2212 22.0617 72.3003 21.3509 72.657C20.8609 72.9021 20.7322 72.9369 20.5655 72.8698C20.3514 72.7828 20.3694 72.6066 20.6885 71.6656L20.9231 70.9744L20.9245 70.4967C20.9259 70.0459 20.9202 70.0057 20.8276 69.808C20.6933 69.5221 20.5104 69.3086 20.2606 69.1468C19.7943 68.8459 19.3146 68.7379 18.2339 68.6912C17.2918 68.6516 16.8702 68.5791 16.8702 68.4569C16.8702 68.3621 17.1825 67.8089 17.5738 67.2101C18.3697 65.992 18.5022 65.4981 18.2002 64.8765C17.9509 64.3616 17.5106 64.0715 16.8412 63.9797C16.0177 63.8675 14.6107 64.2357 12.584 65.0959C10.6651 65.9111 9.48506 66.3529 9.23006 66.3522C9.07428 66.3517 8.56998 66.2216 8.32495 66.1185C7.5932 65.8116 6.89805 65.2421 6.65017 64.7476C6.54667 64.5396 6.52671 64.4641 6.52814 64.2663C6.52956 63.6869 6.94452 63.2697 7.64595 63.1461C8.35546 63.0187 9.12513 63.1024 10.9544 63.5006C12.2351 63.7791 12.5893 63.8399 13.0846 63.8627C14.8278 63.9407 16.4627 63.1128 17.0821 61.8364C17.2686 61.4515 17.3313 61.1986 17.3541 60.7377C17.402 59.7711 17.007 58.9071 16.261 58.3454C15.6412 57.8787 14.814 57.5955 13.6469 57.4539C13.1116 57.3883 11.4211 57.3988 10.1352 57.4748C8.8611 57.5518 7.91464 57.5394 7.55424 57.4444C6.99727 57.2961 6.48632 56.9454 6.36523 56.627C6.18807 56.1632 6.57224 55.3981 7.10933 55.1434C7.40378 55.0046 7.6355 54.9656 8.15644 54.9675C9.00081 54.9694 9.75622 55.1567 11.6524 55.8267C13.3382 56.4246 13.7565 56.5453 14.6944 56.7068C15.184 56.7895 15.3544 56.8019 15.9846 56.8019C16.7975 56.8019 17.0735 56.7582 17.6746 56.532C18.383 56.2668 18.7943 55.9665 19.706 55.055C20.4592 54.3022 20.9094 53.789 21.9892 52.4527C22.3762 51.9736 22.6977 51.5878 22.7054 51.5954C22.7209 51.6115 21.9726 53.8384 21.3747 55.554C20.6591 57.6069 20.1891 59.2103 20.0755 59.9783C19.8139 61.7566 20.0712 63.2858 20.8547 64.6122C21.153 65.1163 21.4174 65.4478 21.9331 65.9645H21.933ZM47.0558 68.1709C47.1128 68.6043 47.3448 68.9795 47.6744 69.1726C47.7608 69.2235 47.8272 69.2696 47.8212 69.275C47.8152 69.2805 47.6432 69.4081 47.4389 69.5598C46.7734 70.0525 46.4528 70.3469 44.8355 71.9466C42.9072 73.8559 42.1633 74.5308 41.5585 74.9222C41.3703 75.0433 41.3068 75.0661 41.1515 75.0661C40.8422 75.0661 40.6809 74.8736 40.6 74.4103C40.4442 73.5172 40.9027 72.5042 41.9307 71.4689C42.8994 70.4925 44.0946 69.6653 46.6242 68.2177L47.0318 67.9845L47.0558 68.1709ZM45.4026 31.5058C45.4434 31.5581 46.2934 33.0493 46.6692 33.7289C50.0229 39.788 52.0508 44.5944 52.5926 47.7717C52.8348 49.1907 52.8462 50.3227 52.631 51.6343C52.2372 54.0418 51.8218 55.6737 51.0995 57.6364C50.6991 58.7246 50.2579 59.7597 48.9973 62.5616C48.6431 63.3514 48.1791 64.4108 47.9664 64.9178C47.7547 65.4244 47.5677 65.862 47.5515 65.8901C47.5348 65.9184 47.1643 66.1479 46.7279 66.4002C46.2909 66.652 45.5992 67.0536 45.1916 67.2928L44.4489 67.7279L44.3703 67.6213C44.2577 67.4678 44.0826 67.3492 43.88 67.288C43.4904 67.1705 41.0196 67.1891 38.8672 67.3263C38.409 67.3557 37.3814 67.4271 36.5821 67.4852C35.7839 67.5439 34.7155 67.614 34.2092 67.6428C30.6112 67.8442 28.2829 67.5955 26.2263 66.7923C24.7552 66.2174 23.276 65.16 22.5385 64.1579C21.7369 63.0672 21.4626 61.6615 21.7402 60.0743C21.875 59.3044 22.3623 57.7599 23.7052 53.8479C23.9427 53.156 24.2404 52.2483 24.3673 51.8292C24.5742 51.1439 24.9504 49.6821 25.0515 49.1689C25.0904 48.9731 25.0962 48.9655 25.5306 48.5901C26.6314 47.6339 27.4566 47.0694 28.4273 46.6055C29.5716 46.0581 30.5913 45.8081 31.672 45.8081C32.3572 45.8081 33.6048 45.9868 34.062 46.1512C36.1268 46.8935 38.3719 48.6832 40.413 51.2152C42.0782 53.2795 43.4766 55.4846 45.9601 59.9583C46.5439 61.0105 47.063 61.9172 47.1151 61.9733C47.3903 62.2717 47.9124 62.2242 48.1408 61.8782C48.2774 61.672 48.2655 61.441 48.0802 60.7025C47.5497 58.5887 46.7255 56.3732 45.4655 53.6711C44.8973 52.4546 43.8999 50.4909 43.5575 49.9159C43.3891 49.6336 42.6818 48.5416 41.9853 47.4904C41.2887 46.4383 40.5754 45.3462 40.3999 45.0639C39.2167 43.164 38.5438 41.6841 38.2418 40.3174C38.152 39.9097 38.1444 39.8137 38.1444 39.1132C38.1444 38.3747 38.1477 38.3395 38.2531 37.9441C38.6739 36.3749 39.8748 35.0976 42.6573 33.2603C43.5551 32.6663 45.3924 31.4925 45.402 31.5058H45.4026ZM86.6665 78.8047C86.6798 78.5139 86.7026 78.2532 86.7178 78.2268C86.7473 78.1741 86.9146 78.7735 87.1246 79.6888C87.3841 80.8115 87.4991 81.5866 87.5267 82.3719C87.5381 82.6979 87.54 82.9652 87.5314 82.9652C87.4991 82.9652 87.1779 82.0997 87.0401 81.6454C86.7492 80.6832 86.6247 79.735 86.6665 78.8047ZM101.448 88.4991C104.638 86.3483 107.724 85.2017 110.666 85.074L111.109 85.0542L110.51 85.354C108.448 86.3826 105.824 87.3836 102.183 88.5303C100.742 88.984 100.82 88.9606 100.82 88.9397C100.82 88.9307 101.102 88.7323 101.448 88.4991ZM91.8065 82.6811C91.8065 81.2617 91.8408 80.7432 92.0194 79.497C92.181 78.3683 92.5289 76.6767 92.7399 75.9778C93.2141 74.4139 94.5143 72.0659 96.2147 69.6994C99.1544 65.6066 104.391 59.9355 111.174 53.4981C111.696 53.0039 112.128 52.6066 112.137 52.6142C112.145 52.6228 112.169 53.6493 112.189 54.8953C112.25 58.699 112.342 60.7605 112.563 63.3067C112.764 65.621 112.963 66.6586 113.474 68.0523C113.692 68.6462 114.052 69.4081 115.054 71.4C116.321 73.9146 116.718 74.8245 117.06 76.0048C117.278 76.7583 117.331 77.0628 117.352 77.6922C117.374 78.364 117.315 78.7819 117.111 79.3969C116.775 80.4123 116.227 81.2317 115.231 82.207C114.737 82.6913 114.451 82.9389 113.953 83.3123L113.608 83.5712L113.015 83.4909C112.229 83.3849 110.527 83.3753 109.692 83.4724C107.038 83.7799 104.533 84.6736 101.847 86.2711C99.7114 87.5412 96.8249 89.813 96.5046 90.479C96.2717 90.9591 96.4418 91.471 96.9076 91.6989C97.0863 91.7863 97.1281 91.793 97.3932 91.7743C97.7164 91.7528 98.0747 91.6479 98.9567 91.3188C99.2666 91.2031 100.335 90.8531 101.33 90.5407C105.341 89.2826 107.187 88.6316 109.303 87.7289C110.967 87.0192 112.123 86.4407 113.352 85.704L113.966 85.3354L114.4 85.4415C116.106 85.8556 117.811 86.6541 119.54 87.8494C120.011 88.1748 120.205 88.3354 120.54 88.682C121.414 89.5805 121.866 90.3897 122.299 91.8247C122.538 92.6207 122.672 93.4899 122.764 94.8494C122.839 95.9595 122.939 96.3552 123.277 96.8575C123.5 97.1925 123.631 97.3304 124.145 97.7794C124.835 98.3824 124.95 98.5406 124.951 98.8894C124.951 99.1298 124.877 99.3439 124.544 100.056C124.046 101.121 123.943 101.456 123.946 102.021C123.949 103.075 124.537 103.929 125.827 104.756C126.817 105.39 127.813 105.835 129.737 106.5C130.281 106.688 130.863 106.898 131.03 106.968C132.353 107.515 133.479 108.399 133.54 108.942C133.577 109.274 133.178 109.731 132.591 110.028C131.891 110.381 131.184 110.124 130.295 109.194C129.994 108.879 129.769 108.604 128.696 107.245C128.177 106.587 127.568 105.94 127.258 105.719C126.792 105.387 126.255 105.207 125.728 105.206C125.141 105.206 124.742 105.366 124.357 105.755C124.043 106.072 123.886 106.385 123.738 106.98C123.678 107.224 123.604 107.498 123.574 107.589C123.523 107.75 123.516 107.754 123.355 107.774C123.262 107.784 122.981 107.803 122.728 107.815C122.171 107.842 121.976 107.876 121.734 107.986C121.471 108.107 121.284 108.291 121.166 108.547C121.071 108.752 121.063 108.8 121.067 109.16C121.071 109.484 121.093 109.63 121.199 110.037C121.382 110.743 121.42 111.061 121.348 111.34C121.274 111.627 121.177 111.782 121.038 111.83C120.979 111.852 120.927 111.868 120.925 111.865C120.922 111.863 120.849 111.847 120.763 111.83C120.552 111.789 120.086 111.562 119.763 111.345C119.619 111.248 119.288 110.994 119.023 110.78C118.229 110.133 117.793 109.873 117.308 109.759C116.871 109.656 116.629 109.701 115.696 110.057C115.329 110.197 114.936 110.275 114.597 110.275C114.112 110.275 112.884 109.596 110.56 108.041C108.364 106.573 106.733 105.391 99.8093 100.252C99.5564 100.064 99.1097 99.7107 98.818 99.4673C98.0243 98.8068 96.9484 97.9526 96.2432 97.4233L95.6159 96.9527L95.2547 96.3444C92.392 91.528 87.3432 85.7592 80.8935 79.9346C79.0839 78.3 77.2087 76.7061 76.6004 76.2871C76.4607 76.1906 76.3457 76.1019 76.3447 76.0905C76.3428 76.0581 77.2771 75.9215 77.8207 75.8753C78.7056 75.7997 79.3224 75.9101 79.7425 76.2194C80.2149 76.5676 81.651 78.4367 83.3191 80.8757C84.1783 82.1314 84.5841 82.6373 85.3388 83.3932C85.947 84.0017 86.5268 84.4063 86.8889 84.474C87.0305 84.501 87.0277 84.4968 87.3299 85.0243C87.8679 85.9629 88.6938 87.1102 89.6595 88.2605C89.9541 88.6112 90.4075 89.1627 90.6688 89.4863C91.1849 90.1278 91.3722 90.3046 91.625 90.3903C91.9577 90.5036 92.3255 90.3435 92.4671 90.0241C92.5678 89.795 92.5431 89.4588 92.3226 88.1179C91.9168 85.6441 91.8065 84.483 91.8065 82.6811ZM102.396 121.397C102.606 121.68 102.793 121.931 102.812 121.955C102.831 121.98 102.837 122 102.825 122C102.79 122 102.382 121.473 102.157 121.133C101.872 120.705 101.939 120.779 102.396 121.397ZM85.0213 96.1442C85.1971 96.044 86.1362 95.6999 86.5268 95.5933C87.9743 95.1971 89.591 95.1539 90.9901 95.4752C91.4016 95.5693 91.4767 95.6131 91.1849 95.5879C90.9084 95.5633 89.7355 95.6256 89.0445 95.7018C88.7699 95.7318 88.02 95.8265 87.3775 95.9116C86.734 95.9967 85.9708 96.092 85.6809 96.1219C85.0755 96.1855 84.9424 96.1903 85.0213 96.1442ZM96.5531 122.513C96.5017 122.202 96.4533 121.9 96.4437 121.843C96.4209 121.71 96.4114 121.698 96.7564 122.215C96.919 122.457 97.2877 123.004 97.5767 123.433C98.3418 124.562 98.6545 125.257 98.5024 125.489C98.4691 125.54 98.3912 125.612 98.3294 125.65C98.1612 125.751 97.9882 125.739 97.8133 125.612C97.6565 125.499 97.4208 125.199 97.2469 124.894C96.9808 124.427 96.7175 123.522 96.5531 122.513ZM82.9531 99.0112C82.9522 98.4411 83.0216 98.0989 83.2079 97.7536L83.3039 97.5761L83.7819 97.5522C84.8046 97.5007 85.967 97.3729 87.4126 97.1524C89.6642 96.8089 90.7192 96.719 91.7533 96.7807C92.7959 96.843 93.2018 96.9563 93.6466 97.3112C94.2016 97.753 94.2663 97.8585 95.1179 99.7377C96.4951 102.782 97.82 106.059 99.8112 111.356C100.265 112.563 100.756 113.854 100.901 114.224C101.513 115.785 101.737 116.566 101.765 117.253C101.782 117.66 101.775 117.733 101.675 118.156C101.542 118.718 101.457 119.23 101.457 119.467C101.458 119.818 101.605 120.241 101.869 120.661C102.002 120.872 101.945 120.819 101.738 120.54C101.426 120.121 101.065 119.788 100.758 119.636C100.503 119.51 100.467 119.502 100.166 119.504C99.9899 119.505 99.7332 119.518 99.5973 119.533L99.3493 119.56L98.8541 119.204C97.8181 118.46 97.2839 118.298 96.649 118.533C96.4979 118.59 96.3886 118.667 96.2261 118.833L96.0075 119.055L95.9324 118.8C95.5294 117.451 94.9078 116.466 93.7492 115.336C93.1866 114.79 92.8454 114.554 91.0281 113.459L90.359 113.056L90.2602 112.843C90.205 112.727 90.0796 112.336 89.9807 111.975C89.7697 111.206 89.591 110.815 89.2593 110.395C88.7566 109.76 88.058 109.288 86.9079 108.805C86.4517 108.614 86.1276 108.417 86.024 108.269C85.8786 108.058 85.7741 107.69 85.6229 106.858C85.469 106.003 85.1724 105.192 84.3132 103.28C83.2145 100.832 82.9579 100.025 82.9531 99.0106V99.0112ZM66.196 78.5895C67.5902 78.3078 68.78 78.0134 71.9174 77.1712C73.0383 76.8709 73.9885 76.6245 74.0291 76.6245C74.1736 76.6245 75.5045 77.5207 76.2544 78.1225C76.8408 78.5937 78.0869 79.663 79.0867 80.5538C84.644 85.5026 89.2489 90.4826 92.3483 94.8925L92.4281 95.0064L92.1877 94.9136C91.5708 94.6774 90.8989 94.5035 90.1214 94.3819C89.4903 94.2824 87.9135 94.2925 87.2225 94.4004C86.0525 94.5833 84.8246 94.9932 83.954 95.4944C83.6185 95.688 83.1832 96.0057 83.0225 96.1747C82.9047 96.297 82.9265 96.2952 82.1529 96.2436C80.9135 96.1603 79.6988 95.8894 78.5041 95.4296C76.9425 94.829 75.4732 93.7351 74.2276 92.2449C73.4933 91.3679 73.0156 90.6978 72.3335 89.5889C71.719 88.589 71.3234 87.8739 70.0029 85.3738C69.0864 83.6366 67.6442 81.4649 66.0089 79.3586C65.7475 79.0204 65.5396 78.7387 65.5468 78.7316C65.5534 78.7231 65.8465 78.6596 66.196 78.5895ZM64.6716 73.3685C67.3875 73.7348 69.6331 74.3677 71.7837 75.3724C72.0996 75.5204 72.3855 75.6601 72.4198 75.6841C72.4701 75.7201 72.2345 75.7938 71.0021 76.1276C68.2273 76.8794 66.5088 77.2876 65.1145 77.5273C64.9294 77.5591 64.7447 77.5932 64.7039 77.6028C64.6428 77.6178 64.5499 77.5267 64.1915 77.0958C63.5627 76.3423 62.3561 74.9426 61.4365 73.9014L60.6429 73.0029L60.957 73.025C62.8655 73.1599 63.6952 73.236 64.671 73.3685H64.6716ZM53.6692 46.7291C53.2568 44.7218 52.2636 41.9626 50.8225 38.829C49.8299 36.6705 48.0269 33.1758 46.8388 31.1114C46.7004 30.87 46.5912 30.6704 46.5972 30.6685C46.6584 30.6371 47.6468 29.8758 47.9171 29.6506C48.4567 29.201 49.3606 28.2981 49.6303 27.9398C51.1234 25.9514 52.1994 23.2921 53.3144 18.8345C53.6872 17.3452 54.3819 14.0823 54.3819 13.8219C54.3819 13.7173 54.4245 13.7363 54.5222 13.8846C57.0541 17.7463 58.7104 21.1897 60.0621 25.4049C60.8048 27.7202 61.4335 30.6656 61.6948 33.0522C62.0228 36.0461 61.9263 39.4487 61.4276 42.4778C61.174 44.0194 60.8059 45.792 60.487 47.0123C59.7311 49.9064 58.6259 52.8614 57.442 55.1548C55.8919 58.1563 54.4376 60.2054 52.4344 62.208C51.6522 62.9912 50.7255 63.8162 50.1489 64.2447C49.9342 64.4035 49.5626 64.6661 49.3216 64.8262C48.9829 65.0527 48.89 65.1007 48.9099 65.0414C48.9349 64.9598 49.5284 63.6945 50.3922 61.8792C50.6769 61.2794 51.0402 60.5067 51.1978 60.1617C52.5651 57.1678 53.2994 54.785 53.8539 51.544C53.9522 50.9671 53.9677 50.7875 53.9833 50.0138C54.0067 48.8125 53.9275 47.9903 53.6692 46.7291ZM29.7702 29.9338C26.1038 34.8714 25.2086 36.835 24.4883 41.5216C24.4304 41.9018 24.2855 42.9539 24.1669 43.8606C23.834 46.4059 23.5558 48.2051 23.3415 49.1974L23.257 49.5899L22.8609 50.0214C22.6435 50.2581 22.143 50.8293 21.7488 51.2903C21.3542 51.7522 20.8276 52.369 20.5768 52.6618C18.7738 54.7689 17.903 55.4694 16.8397 55.6699C16.4665 55.7402 15.7252 55.7421 15.2746 55.6747C14.2878 55.5264 13.8035 55.3857 12.0878 54.7527C10.497 54.1644 9.96475 53.9981 9.18358 53.8413C8.83638 53.7719 8.67205 53.7605 8.06814 53.7624C7.45263 53.7643 7.32252 53.7757 7.07607 53.8432C6.14111 54.0998 5.49424 54.7119 5.1728 55.6452C4.86134 56.5491 5.14524 57.4824 5.9074 58.0593C6.3889 58.4233 6.99252 58.6781 7.64491 58.7902C8.04771 58.8606 9.15839 58.8682 10.2364 58.8102C12.0361 58.7123 13.0481 58.7313 13.8989 58.8767C14.9327 59.0535 15.6308 59.4565 15.8469 60.0001C15.9142 60.1693 15.9295 60.2748 15.9304 60.5799C15.9318 60.9325 15.9252 60.9648 15.8117 61.1958C15.6137 61.5988 15.2025 61.9476 14.6749 62.1605C14.2091 62.3487 13.9488 62.3962 13.3633 62.4C12.7622 62.4038 12.8139 62.4114 11.1851 62.0474C9.44761 61.6606 8.90291 61.5855 8.0362 61.6159C7.49493 61.6339 7.17197 61.6862 6.8012 61.8155C6.09511 62.0607 5.5181 62.5815 5.21557 63.2507C4.81049 64.1428 4.9829 65.1864 5.67711 66.0442C6.37046 66.9007 7.62647 67.6483 8.7267 67.8568C9.13473 67.9342 9.3232 67.9251 9.80422 67.8071C10.536 67.6273 11.3318 67.3329 13.1891 66.5531C14.2043 66.1269 14.8839 65.8836 15.4888 65.7277C15.938 65.612 16.4328 65.5412 16.6133 65.5664C16.714 65.5809 16.7268 65.5562 16.1941 66.3763C15.476 67.4792 15.2893 67.8904 15.2514 68.4461C15.2348 68.6966 15.2443 68.7955 15.3055 68.9969C15.466 69.5256 15.8615 69.8895 16.5036 70.1005C16.8616 70.218 17.3436 70.2827 18.128 70.3193C18.5369 70.3378 18.9112 70.363 18.96 70.3762C19.0085 70.3882 19.1087 70.4134 19.1813 70.4314C19.2811 70.4565 19.3143 70.4823 19.3143 70.5374C19.3143 70.5782 19.2203 70.8851 19.1058 71.2202C18.8621 71.9329 18.783 72.2812 18.783 72.648C18.783 73.5777 19.4084 74.3228 20.349 74.5152C20.8975 74.6267 21.2213 74.5656 21.918 74.2179C22.1906 74.0818 22.5087 73.9464 22.6246 73.9163C22.8891 73.848 23.3544 73.848 23.7239 73.9163C25.1751 74.1837 25.9562 74.2814 26.8589 74.3108C28.1149 74.351 29.1078 74.1982 30.6014 73.736C31.4642 73.468 33.5844 72.6858 35.0588 72.0911C35.8186 71.7842 37.0149 71.3023 37.7158 71.0194C38.417 70.7352 39.3658 70.3678 39.8236 70.2024C40.6558 69.9008 41.806 69.5268 41.8289 69.5496C41.8354 69.5569 41.7317 69.6539 41.5974 69.7648C41.2504 70.0549 40.4789 70.8557 40.2391 71.1764C39.4375 72.2464 39.0981 73.2222 39.1621 74.2653C39.2072 74.9905 39.4452 75.5738 39.854 75.9592C39.9879 76.0857 40.184 76.2313 40.2889 76.2829C40.5683 76.4195 40.9579 76.4933 41.2666 76.4688C42.1537 76.3974 42.8502 75.8423 45.7407 72.9034C46.6775 71.9509 47.5324 71.1135 47.7871 70.9013C48.462 70.3373 49.0339 69.9662 49.6405 69.6994C49.8995 69.5861 49.9504 69.5748 50.2693 69.5748C51.0312 69.5748 52.1167 69.7012 52.4596 69.8295C52.5627 69.8679 52.6969 69.941 52.7569 69.992C52.9313 70.1395 52.8959 70.2923 52.5094 71.0674C51.9542 72.1841 51.8146 72.7841 51.9531 73.4734C52.0262 73.8391 52.2402 74.384 52.459 74.7645C53.9491 77.3559 56.2803 78.7633 59.6593 79.1116C60.5715 79.2051 62.8122 79.15 63.6089 79.0144C63.7113 78.9965 63.7407 79.0271 64.3557 79.8027C66.4207 82.4036 67.749 84.3613 68.8706 86.4563C70.4674 89.4408 71.4403 91.0359 72.4665 92.3516C73.8277 94.0965 75.0476 95.1839 76.6441 96.074C77.1697 96.3672 77.5318 96.5308 78.1648 96.7598C79.3082 97.1746 80.4373 97.4185 81.786 97.5414L82.0398 97.5648L81.9723 97.7632C81.8297 98.1768 81.7822 98.5107 81.7841 99.0819C81.7888 100.288 82.0246 101.085 83.1622 103.739C83.9996 105.698 84.2039 106.285 84.3684 107.231C84.6735 108.996 84.9852 109.425 86.4261 110.068C87.5828 110.582 88.1007 110.992 88.4096 111.64C88.4762 111.779 88.5997 112.17 88.69 112.526C88.8041 112.976 88.8991 113.26 89.0132 113.497C89.284 114.059 89.5407 114.27 91.0604 115.179C92.0593 115.776 92.411 116.039 92.9147 116.563C93.7949 117.477 94.2482 118.257 94.5248 119.325C94.6636 119.859 94.7111 120.154 94.8679 121.422C95.1008 123.303 95.307 124.295 95.6292 125.083C96.1387 126.326 96.9304 127.131 97.782 127.274C98.0586 127.32 98.1897 127.318 98.4644 127.26C98.8588 127.177 99.2637 126.957 99.5622 126.662C99.9889 126.242 100.13 125.873 100.103 125.244C100.09 124.923 100.066 124.789 99.9727 124.515C99.7979 123.999 99.4167 123.303 98.8436 122.453C98.5566 122.028 98.1907 121.479 98.031 121.231C97.744 120.788 97.4636 120.277 97.4921 120.251C97.5006 120.243 97.705 120.385 97.9445 120.565C98.4577 120.951 98.6621 121.061 98.9957 121.132C99.2789 121.192 99.7085 121.199 99.9167 121.15C100.056 121.115 100.059 121.116 100.237 121.303C100.335 121.407 100.549 121.69 100.712 121.932C101.286 122.782 101.576 123.128 102.054 123.526C102.424 123.835 102.879 124.089 103.228 124.179C103.526 124.256 103.958 124.235 104.19 124.133C104.959 123.792 105.147 122.836 104.648 121.807C104.478 121.455 104.267 121.132 103.807 120.512C103.611 120.25 103.374 119.923 103.282 119.787C103.118 119.546 103.114 119.534 103.134 119.338C103.145 119.228 103.215 118.885 103.288 118.576C103.415 118.038 103.42 117.99 103.421 117.377C103.422 116.842 103.409 116.678 103.339 116.351C103.173 115.576 102.947 114.881 102.413 113.517C102.254 113.108 101.799 111.911 101.403 110.86C100.763 109.153 99.9328 106.979 99.7228 106.452L99.6458 106.258L99.9623 106.563C100.514 107.095 101.015 107.428 101.546 107.613C101.663 107.654 102.077 107.745 102.467 107.814C103.335 107.971 103.773 108.073 104.276 108.236C105.227 108.547 105.732 109.032 105.906 109.806C105.942 109.96 105.968 110.322 105.98 110.816C105.992 111.239 106.013 111.586 106.027 111.586C106.041 111.586 106.077 111.526 106.107 111.453C106.222 111.165 106.254 110.894 106.256 110.222C106.256 109.653 106.247 109.519 106.19 109.354C105.941 108.63 105.558 108.229 104.734 107.83C104.192 107.568 103.606 107.383 102.656 107.174C102.128 107.058 101.822 106.971 101.644 106.888C100.814 106.497 99.9233 105.486 98.9168 103.792C98.3551 102.846 97.9473 102.062 97.6194 101.296C97.2649 100.471 96.8572 99.5471 96.5036 98.772C96.342 98.4183 96.3069 98.3117 96.3563 98.3387C96.4399 98.3836 97.9768 99.4805 98.3579 99.7677C98.5129 99.8846 98.9995 100.277 99.4377 100.64C102.433 103.115 106.412 106.223 109.108 108.191C111.529 109.958 113.204 111.009 114.015 111.267C114.222 111.334 114.336 111.346 114.714 111.342C115.268 111.338 115.517 111.287 116.244 111.037C116.556 110.93 116.859 110.842 116.919 110.842C117.174 110.842 117.68 111.166 118.442 111.819C119.339 112.587 120.313 113.074 120.954 113.074C121.701 113.074 122.321 112.524 122.554 111.657C122.654 111.285 122.64 110.641 122.52 110.133C122.364 109.478 122.308 109.178 122.335 109.151C122.349 109.137 122.69 109.107 123.093 109.083C123.942 109.034 124.115 108.993 124.354 108.782C124.648 108.525 124.769 108.271 124.98 107.467C125.191 106.665 125.305 106.534 125.773 106.564C126.37 106.602 126.76 106.964 128.112 108.735C128.957 109.841 129.205 110.13 129.686 110.572C130.92 111.703 132.246 111.925 133.461 111.203C134.209 110.758 134.693 110.224 134.906 109.605C135.002 109.327 135.009 109.277 134.994 108.913C134.98 108.585 134.96 108.478 134.87 108.25C134.62 107.615 134.054 107.012 133.124 106.389C132.426 105.922 131.677 105.576 130.379 105.122C127.966 104.276 126.709 103.643 125.948 102.891C125.631 102.575 125.508 102.339 125.508 102.039C125.508 101.75 125.613 101.453 126.001 100.644C126.174 100.282 126.343 99.9061 126.375 99.809C126.694 98.8584 126.545 98.0108 125.937 97.2884C125.824 97.1548 125.51 96.8514 125.239 96.6135C124.488 95.9548 124.435 95.8408 124.377 94.7319C124.271 92.6812 123.9 91.0688 123.207 89.6422C122.6 88.3942 121.74 87.386 120.584 86.5731C119.597 85.8779 118.65 85.3132 117.786 84.905C117.297 84.6736 116.353 84.293 115.954 84.1665C115.812 84.1215 115.697 84.076 115.697 84.0652C115.697 84.0544 115.875 83.8866 116.09 83.6912C116.512 83.3111 117.175 82.5996 117.464 82.2166C118.197 81.2455 118.677 80.2151 118.907 79.1224C118.997 78.7015 119.005 78.5937 119.006 77.8822C119.007 77.4062 118.989 76.9926 118.962 76.82C118.893 76.4004 118.658 75.5084 118.461 74.9252C118.072 73.7702 117.742 73.0418 116.439 70.444C115.392 68.3549 115.148 67.8245 114.915 67.1322C114.538 66.0088 114.38 65.0557 114.192 62.8106C113.971 60.1475 113.884 57.9728 113.818 53.4136C113.797 51.9185 113.767 50.8341 113.745 50.7295C113.693 50.489 113.518 50.2419 113.308 50.1127C113.154 50.0176 113.103 50.0053 112.866 50.0062C112.492 50.0072 112.39 50.0708 111.734 50.7076C111.429 51.0032 110.67 51.7313 110.047 52.3262C108.751 53.5609 106.912 55.3743 105.265 57.0405C100.262 62.1025 96.3772 66.6586 94.1532 70.0717C92.7627 72.2074 91.7932 74.125 91.3798 75.56C91.107 76.5089 90.7259 78.5632 90.5862 79.8309C90.3181 82.261 90.4208 84.5765 90.9236 87.5257C90.954 87.7085 90.972 87.8661 90.9616 87.8757C90.9397 87.8979 90.225 87.0707 89.7393 86.4605C89.2498 85.8455 88.728 85.1088 88.3688 84.5196L88.057 84.0106L88.1312 83.7978C88.2766 83.3825 88.2975 83.1894 88.2956 82.3988C88.2899 81.1137 88.1416 80.151 87.6037 77.9175C87.2225 76.3345 87.2178 76.3218 87.118 76.166C86.9574 75.9179 86.639 75.8118 86.4099 75.931C86.1514 76.0653 86.0563 76.2769 85.8929 77.0855C85.699 78.0404 85.6486 78.5217 85.6486 79.3879C85.6486 80.2559 85.7132 80.7918 85.9223 81.6369C86.0497 82.1537 86.3301 83.0109 86.4888 83.3698C86.5392 83.4849 86.5734 83.5863 86.5639 83.5959C86.5411 83.618 85.9299 83.1565 85.7598 82.9892C85.4794 82.7141 84.5689 81.363 83.2858 79.3166C81.5132 76.4927 80.7139 75.4341 80.0933 75.0895C79.5258 74.7741 79.1124 74.6938 78.0612 74.6963C77.1526 74.6974 76.7002 74.7496 75.4998 74.9929L74.8504 75.1248L74.2066 74.758C70.2541 72.5089 66.4789 71.6104 59.8486 71.3413C58.8458 71.3005 58.7751 71.3011 58.6163 71.3622C58.2637 71.4965 58.0534 71.7962 58.0534 72.1636C58.0534 72.4969 58.1619 72.6636 58.94 73.5286C60.1975 74.93 61.2645 76.1336 62.0126 76.9974L62.7498 77.8468L62.5593 77.8726C62.1906 77.9223 60.2221 77.9451 59.7233 77.9055C56.7784 77.6694 54.7302 76.5701 53.2849 74.4463C52.7264 73.6245 52.5165 73.0149 52.6088 72.4802C52.6856 72.0426 52.8924 71.4479 53.0926 71.0949C53.3605 70.622 53.4355 70.3954 53.4192 70.1034C53.4031 69.8217 53.2982 69.6389 53.044 69.4531C52.8738 69.3285 52.3499 69.1157 52.2132 69.1157C51.9962 69.1157 52.2551 69.0725 52.9666 68.9915C54.2842 68.8405 54.9975 68.6978 55.8283 68.4196C56.2713 68.2717 56.4169 68.2021 56.7017 68.0001C57.1974 67.6488 57.5942 67.1003 58.3669 65.6978C58.925 64.6829 59.2738 64.1728 59.7761 63.6394C60.2017 63.187 60.5512 63.0245 63.2719 62.0075C66.1996 60.9135 66.6143 60.7253 67.7359 59.984C68.8034 59.2778 69.4041 58.8045 69.6882 58.4433C69.7654 58.3464 69.8225 58.2608 69.8147 58.2542C69.808 58.2466 69.3723 58.4937 68.8484 58.8026C66.802 60.0077 65.8309 60.5096 65.0433 60.77C64.7807 60.8565 64.0236 61.0884 63.3613 61.2861C61.3245 61.8934 60.5194 62.169 59.8727 62.4836C59.5166 62.6576 59.4249 62.7213 59.1335 63.0035C58.5545 63.5624 58.1961 64.0559 57.3568 65.4489C56.6526 66.6172 56.3223 67.0272 55.9188 67.2316C55.7228 67.3311 55.1462 67.5002 54.6373 67.6069C54.1062 67.719 53.5853 67.7849 52.504 67.8767C51.5017 67.9617 51.054 68.0217 50.4851 68.147C50.0224 68.2501 49.3792 68.4551 49.0183 68.6181L48.7738 68.7278L48.4908 68.6565C47.9879 68.5294 47.8417 68.3435 47.874 67.8718C47.8836 67.7232 47.9088 67.5703 47.9298 67.5319C47.9495 67.4942 48.2103 67.3222 48.5088 67.1483C50.6338 65.9171 51.6845 65.1415 53.2292 63.6612C55.6311 61.3602 57.3449 58.9841 59.091 55.5311C60.1304 53.4782 61.1338 50.8654 61.8387 48.3762C62.5155 45.9877 63.1323 42.8541 63.3403 40.7422C63.8079 36.009 63.5153 32.1217 62.3333 27.3533C61.31 23.2265 59.5184 18.9039 57.2675 15.1325C56.3384 13.5757 54.9544 11.499 54.6253 11.1692C54.0984 10.6398 53.3186 10.7919 53.0824 11.4686C53.0584 11.5351 53.0146 11.8088 52.9829 12.0769C52.7545 14.0015 51.7577 18.4857 51.0042 20.9778C50.2292 23.5354 49.547 25.1283 48.661 26.4504C48.2804 27.0178 47.9621 27.3895 47.4568 27.858C46.9054 28.3684 45.8491 29.2305 45.7748 29.2305C45.7587 29.2305 45.5818 28.9558 45.3822 28.6193C45.182 28.2838 44.7013 27.4912 44.3116 26.8582C40.4771 20.6147 37.2983 16.2607 35.5375 14.8398C35.1828 14.5528 34.7208 14.2543 34.4967 14.1659C34.2744 14.0785 33.8879 14.0728 33.6647 14.1545C32.9789 14.4064 32.5872 15.2304 32.4048 16.8006C32.2743 17.9278 32.2704 18.8564 32.3853 21.5794C32.46 23.37 32.4186 24.5723 32.2563 25.2985C31.9371 26.7298 31.3849 27.7582 29.7703 29.9338H29.7702ZM44.4705 30.1457C44.4267 30.179 44.0449 30.428 43.6217 30.6999C42.3881 31.4916 41.3643 32.1702 40.868 32.5257C38.3087 34.36 37.0827 35.8978 36.6871 37.7702C36.5631 38.3566 36.5299 39.3261 36.6124 39.9192C36.7303 40.7575 36.9165 41.4399 37.2755 42.3551C37.8273 43.759 38.6587 45.1989 40.3267 47.6415C41.528 49.4008 42.0997 50.2619 42.4427 50.8341C42.9863 51.736 43.9268 53.5827 44.7343 55.3325C44.9177 55.7298 45.0609 56.0605 45.0537 56.0681C45.0459 56.0758 44.9627 55.9579 44.8691 55.8068C44.0371 54.46 42.7178 52.5696 41.8546 51.4851C40.2386 49.454 38.4142 47.7689 36.7241 46.7462C35.603 46.0676 34.101 45.4926 33.0757 45.3481C32.6156 45.2854 30.6008 45.3338 30.0471 45.4251C28.6281 45.6532 26.9881 46.4306 25.5615 47.5493C25.3336 47.728 25.2927 47.7499 25.3184 47.6757C25.3455 47.5978 25.5763 45.945 25.7795 44.3729C26.3189 40.1881 26.6148 38.7653 27.2924 37.0935C28.02 35.3 28.8965 33.8962 31.4351 30.4527C33.2044 28.0519 33.8949 26.4191 34.0179 24.3423C34.0626 23.5829 34.0473 22.641 33.9572 20.6755C33.8854 19.113 33.9059 17.5885 34.0089 16.8329C34.0835 16.2826 34.1812 15.8406 34.2287 15.8406C34.2934 15.8406 34.8152 16.2892 35.187 16.6637C36.6525 18.1407 38.9323 21.2258 41.5423 25.2633C42.2311 26.3288 43.6492 28.5937 44.2001 29.508L44.5496 30.0859L44.4705 30.1457Z" fill="#1A1A1A"/>
</g>
</g>
</g>
</g>
</g>
</svg>
