<svg width="140" height="140" viewBox="0 0 140 140" fill="none" xmlns="http://www.w3.org/2000/svg">
<g clip-path="url(#clip0_1289_5317)">
<circle cx="69.5" cy="70.5" r="62" stroke="black"/>
<circle cx="117" cy="26" r="13" fill="#70C5A3"/>
<path d="M112 25.08L115.96 29.04L123 22" stroke="white" stroke-width="1.76"/>
<path d="M-20 59.4127L-16.4318 59.8972C-5.4981 61.3811 6.06965 59.3288 16.3871 55.5004C25.6141 52.0767 39.1151 52.4528 47.9835 56.8584C49.4248 57.5743 50.4279 58.5831 49.3747 57.9454C45.5413 55.6251 37.7766 56.0729 37.7766 56.0729C33.8652 56.7823 20.0877 59.1459 18.3132 62.0788C16.2061 65.5611 11.1905 73.3077 14.6571 76.7743C14.8203 76.9375 15.1122 83.6205 19.4244 75.5541C19.8801 74.7013 15.721 71.3779 15.0323 76.385C13.6327 86.5616 28.7015 88.5515 27.8568 78.0468C27.4431 72.9012 26.0125 67.8364 20.2124 66.205C20.0467 65.2655 28.3304 68.0675 28.6736 70.07C29.4196 70.3785 28.6348 67.8652 26.2095 66.5658C22.5409 64.6006 33.6344 66.8079 28.7306 72.9237C27.0758 74.9873 31.6642 75.0828 25.3498 82.7C18.6696 90.7582 24.7425 109.309 33.9771 109.607C37.3269 109.716 38.3585 111.087 43.63 110.438C48.3979 109.852 54.6346 103.971 43.9626 104.47C42.7806 104.525 37.4672 102.451 41.4271 106.023C46.7809 110.852 59.1463 105.269 48.0744 96.8255C44.3663 93.9981 40.8571 98.294 36.4985 98.155C35.2736 98.1161 28.2931 104.047 30.5302 100.98C31.5499 99.5825 41.9714 94.8728 31.4703 97.2815C18.6136 100.23 32.589 95.8283 36.4841 95.8283C44.4129 95.8283 25.6257 92.98 25.725 92.9608C28.9711 92.3257 35.4531 92.502 38.7966 93.1838C40.9855 93.6301 38.5098 89.6984 34.8223 88.6399C34.2022 88.4617 28.02 85.9866 28.0087 85.9001C28.8114 85.4892 37.6717 85.5321 41.3318 84.4188C47.6481 82.4977 51.044 86.021 52.9221 74.5426C53.5316 70.8173 57.0373 73.0553 53.1025 79.7655C52.7718 80.3299 48.0296 90.1532 47.9651 90.6768C46.8392 99.8314 51.9162 94.1058 53.4492 101.631C53.8711 103.701 51.7824 101.579 57.5184 101.688C62.1917 101.776 65.6048 102.898 65.2199 107.808C64.3072 119.445 49.3014 113.666 51.4693 109.123C52.8686 106.191 73.4641 111.811 53.2259 113.985C48.3713 114.507 40.5746 117.381 37.8564 111.906C37.822 111.837 40.9303 119.601 52.1053 115.604C51.6196 116.109 52.6803 116.399 53.203 116.681C54.3653 117.306 55.4191 117.225 56.6753 117.225C56.6803 117.229 70.4735 117.702 70.8982 116.85C71.1472 116.351 65.5687 117.066 64.6035 115.525C64.4641 115.303 63.1297 113.494 63.0389 113.53C63.0185 113.539 60.6465 115.228 62.2105 115.798C65.3263 116.931 69.2195 118.607 72.3037 116.616C73.3667 115.929 74.5427 114.531 73.709 113.222C72.7149 111.66 72.3683 112.775 71.9192 110.124C71.4121 107.133 68.1913 106.682 65.7739 105.685C65.1196 105.416 66.5753 105.367 67.0059 105.037C67.9574 104.309 69.2706 103.69 70.4685 103.643C72.2433 103.572 65.4845 102.867 65.4663 102.853C65.5543 102.133 69.7945 102.12 69.5925 101.96C68.3977 101.008 64.425 100.274 62.8491 100.274C62.4012 100.274 60.0376 100.498 60.7849 100.229C62.8149 99.496 65.1002 99.4296 67.2242 99.6886C67.8525 99.7651 68.046 101.716 71.9536 99.3598M70.0159 101.524C70.1299 102.484 70.2408 102.995 71.3673 103.102C72.0714 103.169 74.0601 103.721 73.791 103.721C73.7823 103.805 71.346 103.804 71.0075 103.804C70.3849 106.4 71.061 105.693 71.828 107.7C72.8753 110.439 70.7933 109.211 74.7979 111.889C75.8308 112.58 79.2924 113.316 80.4587 112.799C81.9216 112.151 81.8489 112.13 83.1937 111.307C86.1408 109.505 87.6124 109.193 82.5956 108.368C81.1505 108.13 78.9013 109.355 77.5849 110.03C77.0566 110.301 73.885 112.138 75.8781 112.581C77.8508 113.02 80.278 113.414 82.2799 113.502C83.2131 113.543 84.1189 113.797 85.2366 113.797C86.334 114.933 89.3121 114.333 84.1148 116.761C83.1452 117.213 75.315 116.788 73.4409 116.788C70.8597 116.788 76.3438 117.668 77.1352 117.66C79.9482 117.631 87.0255 118.567 88.2588 115.251C88.381 114.922 87.7825 114.966 89.422 115.095C91.7621 115.279 93.5388 115.923 95.623 114.763C96.498 114.275 103.74 109.907 98.8469 110.012C95.0317 110.095 95.1473 110.989 91.0258 109.071C87.5614 107.459 86.6034 108.024 85.278 104.078C84.1627 100.758 76.6419 100.864 74.31 103.036C73.3955 103.888 73.1807 103.95 72.2327 104.982C71.8324 105.417 71.5286 105.477 71.606 106.145C70.9295 106.355 71.4986 104.922 72.3429 104.272C74.2007 102.842 73.9846 101.741 77.1493 101.177C80.3654 100.604 82.1884 100.211 85.3159 101.54C87.1965 102.34 85.9836 104.578 89.3046 105.809C90.8495 106.382 90.8871 107.754 93.5801 106.82C94.2895 106.574 98.965 105.646 98.5726 104.709C97.1542 101.318 94.0017 103.426 91.1054 104.102C90.6331 104.212 87.9933 105.075 87.9785 105.601C87.9441 106.817 95.5745 109.143 97.2503 109.143C99.9644 109.143 103.332 109.361 106.017 109.714C107.33 109.887 111.095 107.816 111.573 106.537C111.611 106.436 111.673 106.317 111.743 106.235C113.516 104.461 117.246 95.9787 115.682 93.2928C115.183 92.4353 114.526 89.1018 114.526 87.8588C114.526 80.9622 110.209 82.0962 109.963 74.4311C109.886 72.0099 101.387 64.3782 107.214 68.4079C107.484 68.5946 109.359 70.2025 109.374 70.381C109.562 70.137 106.718 66.7813 111.723 64.066C114.877 62.3544 109.466 66.0465 109.534 67.6388C109.604 69.2939 111.832 71.3619 110.725 75.3308C110.087 77.6171 112.453 81.4601 114.36 82.7C117.038 84.4416 118.591 85.8403 121.907 82.866C124.497 80.5428 121.838 78.9293 121.838 75.2619C121.838 71.1771 117.007 70.8598 120.433 75.4354C121.834 77.3064 122.183 78.6907 123.868 76.0859C124.532 75.0587 122.698 72.3594 122.752 69.3077C122.788 67.304 119.823 60.9767 117.995 60.1393C114.847 58.6971 100.512 54.5236 97.2431 55.8399C91.9419 57.9736 89.9128 58.5778 87.8749 64.066C85.8583 69.4972 85.9184 69.6826 90.4154 74.5357C91.3838 75.5808 96.9331 77.8648 97.7132 81.2873C98.3455 84.0621 99.1585 84.5344 102.076 86.1613C103.695 87.0636 108.361 84.8861 112.366 85.379C112.449 85.3893 106.2 86.2706 102.817 88.9317C100.888 90.4494 97.8548 92.1228 98.2472 94.9762C98.2528 95.0166 106.59 91.5415 107.755 91.3129C109.236 91.0222 115.565 91.4861 113.417 91.8948C109.278 92.6821 104.616 94.1976 100.899 96.2511C100.899 96.2759 105.483 96.2746 106.571 96.5834C107.239 96.7732 111.029 97.3332 111.029 98.2026C110.944 98.232 101.134 97.0779 99.7357 97.6564C99.7473 97.6774 101.768 98.4068 102.796 100.308C103.078 100.83 94.732 97.1396 93.2547 96.8659C88.1517 95.9207 83.6914 103.503 86.0471 98.4162C87.4775 95.3276 89.5717 95.7278 88.4139 90.3373C87.7922 87.4423 86.4637 89.2941 87.9701 85.5466C89.2911 82.2591 83.9485 80.4908 83.9485 74.5357C83.9485 70.4656 84.1834 70.5175 85.914 66.884C86.7186 65.1944 87.7449 60.0178 88.7271 58.3034C89.7089 56.5894 100.938 50.4641 117.925 53.6655C135.38 56.9545 133.403 60.294 152 57.4187" stroke="black" stroke-width="0.8" stroke-miterlimit="2.6131" stroke-linecap="round" stroke-linejoin="round"/>
<path d="M73.2992 40.2632L73.3456 40.6544L73.7368 40.7008L105.756 44.5L73.7368 48.2992L73.3456 48.3456L73.2992 48.7368L69.5 80.7564L65.7008 48.7368L65.6544 48.3456L65.2632 48.2992L33.2436 44.5L65.2632 40.7008L65.6544 40.6544L65.7008 40.2632L69.5 8.2436L73.2992 40.2632Z" stroke="black"/>
</g>
<defs>
<clipPath id="clip0_1289_5317">
<rect width="140" height="140" fill="white"/>
</clipPath>
</defs>
</svg>
