<svg width="140" height="140" viewBox="0 0 140 140" fill="none" xmlns="http://www.w3.org/2000/svg">
<g clip-path="url(#clip0_1186_4772)">
<circle cx="71.5" cy="70.5" r="62" stroke="#0F5C30"/>
<circle cx="119" cy="26" r="13" fill="#0F5C30"/>
<path d="M114 25.08L117.96 29.04L125 22" stroke="white" stroke-width="1.76"/>
<path d="M112.655 57.9473C115.766 58.7411 118.049 59.3229 119.251 59.633C119.523 59.7043 119.87 59.7737 120.274 59.8565C121.02 60.0068 122.715 60.3516 123.074 60.6791C122.742 61.1222 120.746 61.8716 119.974 62.1625C119.772 62.2396 119.581 62.3109 119.409 62.3783L95.7171 71.5639C94.7943 71.9222 93.7598 72.323 92.943 73.057C92.7137 72.4443 92.0953 71.4907 90.4212 70.6373C89.8259 70.329 36.4538 42.7472 17.6241 32.7332C36.841 38.6017 92.8216 52.8864 112.655 57.9473ZM91.1937 89.1703C91.053 90.6498 90.9201 92.0466 90.8026 93.3951C90.7448 94.0675 90.6234 94.4065 90.5367 94.5684C90.4751 94.4316 90.4038 94.1869 90.3884 93.7939C90.1572 88.0144 90.1013 81.9093 92.1126 76.3513C92.024 80.4779 91.5867 85.0495 91.1937 89.1703ZM21.4232 38.4643L56.3315 63.7538C56.3662 63.7789 56.399 63.8039 56.4336 63.829L51.8697 60.9989C48.716 59.0435 45.4545 57.0207 42.3643 54.8611C40.2105 53.3565 28.1525 44.0302 19.1865 37.0773C20.0669 37.5776 20.8471 38.0469 21.4232 38.4643ZM68.1545 71.0457C71.0539 72.5522 74.3386 74.2572 76.9125 75.7984C80.9967 78.245 81.0602 78.9829 81.0602 79.0445C81.0602 79.0445 81.0506 79.0561 81.0256 79.0754L67.6633 70.7895C67.8251 70.8742 67.9888 70.9609 68.1545 71.0457ZM82.9039 83.3349C83.0908 83.1114 83.2044 83.0536 83.243 83.0401C83.268 83.069 83.3065 83.1422 83.3624 83.3175C84.8227 87.8448 86.6298 92.2989 88.7355 96.5681C84.9537 94.3372 81.1797 91.825 78.9276 88.1069L82.9039 83.3349ZM160.716 102.473C158.97 102.509 157.167 102.55 155.437 103.103C154.343 103.453 153.331 103.997 152.353 104.523C151.833 104.802 151.295 105.091 150.759 105.341C147.733 106.761 144.024 107.306 140.033 106.919C136.106 106.538 132.392 105.351 129.279 104.239C128.888 104.101 128.497 103.96 128.104 103.818C123.663 102.213 119.07 100.552 114.429 101.492C113.347 101.712 112.306 102.02 111.301 102.319C109.765 102.775 108.313 103.207 106.712 103.349C100.813 103.875 94.7019 101.96 90.6138 100.263C89.3596 99.743 88.2172 98.9242 87.1114 98.1343L76.7506 90.7192L78.2803 88.8832C80.7443 92.7729 84.7341 95.3409 88.6565 97.6373C88.93 97.8107 89.4983 98.1729 89.8933 97.8184C90.0628 97.6643 90.2073 97.3657 89.9299 96.8128C87.7009 92.3818 85.7994 87.7427 84.2756 83.0228C84.2043 82.7993 84.054 82.3331 83.6109 82.1462C83.2853 82.0094 82.769 81.9979 82.166 82.7203L78.4267 87.2072C78.2803 86.924 78.1435 86.6311 78.0163 86.3325C77.7929 85.7623 77.4461 85.6082 77.1956 85.5793C76.3846 85.4907 75.6371 86.5811 74.7702 87.8468C74.487 88.261 74.2192 88.654 73.9726 88.9622C70.9422 92.7709 66.5074 97.7298 62.9453 101.716C61.3347 103.517 59.9437 105.074 58.9786 106.193C58.7377 106.472 58.416 106.648 58.1752 106.628C58.1213 106.624 57.9556 106.613 57.7938 106.353C51.0876 95.6202 17.2715 41.5913 10.0799 31.826C10.0047 31.7246 9.97584 31.6439 9.96428 31.5956C10.1261 31.583 10.5904 31.6784 11.4053 32.2525C11.8369 32.6654 12.3975 33.0903 13.0409 33.5217C21.4694 40.0674 39.1451 53.7841 41.8134 55.649C44.9266 57.824 48.1997 59.8527 51.365 61.8158L80.9311 80.1465L81.1469 80.0733C81.8212 79.8421 81.9888 79.4337 82.0119 79.1312C82.1333 77.5091 77.972 75.0625 68.5976 70.1942C67.1585 69.4467 65.7965 68.7397 64.7273 68.1559C61.9801 66.6609 59.3947 64.7884 56.8941 62.9755L21.9876 37.6866C21.0051 36.9752 19.5063 36.1479 17.9208 35.2723C16.4547 34.4618 14.8557 33.5793 13.6054 32.7445C13.0448 32.3089 12.5246 31.9059 12.0545 31.5399C12.0218 31.4405 12.0777 31.1478 12.2299 31.0005C12.2819 30.9488 12.2915 30.9537 12.3339 30.9768C23.6887 37.2308 89.3192 71.1478 89.9838 71.4907C92.0375 72.5406 92.1146 73.6792 92.1165 73.6908C92.1184 73.8044 92.1203 73.92 92.1222 74.0337C91.7369 74.6386 91.4749 75.2994 91.2534 75.9024C89.14 81.6569 89.192 87.9161 89.4271 93.8324C89.4714 94.9151 89.8971 95.6241 90.5136 95.6395C90.9085 95.653 91.5963 95.3794 91.7601 93.478C91.8757 92.1333 92.0086 90.7385 92.1492 89.2628C92.6116 84.4291 93.1317 78.979 93.0855 74.3246C93.1818 74.1936 93.2839 74.0703 93.3937 73.9547C94.095 73.2226 95.1411 72.8181 96.0639 72.4597L119.756 63.2722C119.924 63.2086 120.113 63.1374 120.313 63.0622C122.688 62.1683 124.231 61.5075 124.05 60.5173C123.894 59.6716 122.53 59.3344 120.465 58.9144C120.091 58.8393 119.739 58.768 119.49 58.7025C118.29 58.3943 116.003 57.8106 112.892 57.0168C90.6928 51.351 23.1763 34.1237 12.7635 30.1183C12.2838 29.8735 11.7559 30.0147 11.4111 30.4844C11.3032 30.629 11.2184 30.7999 11.1607 30.9802C10.0394 30.4067 9.49229 30.6706 9.24955 30.9176C8.897 31.2767 8.92012 31.8705 9.30543 32.3953C16.4759 42.1326 50.2765 96.1346 56.9788 106.861C57.3256 107.416 57.7822 107.563 58.102 107.586C58.6549 107.628 59.256 107.341 59.7049 106.819C60.6662 105.706 62.0533 104.155 63.66 102.355C67.2317 98.3617 71.6781 93.3893 74.7239 89.5614C74.9917 89.2242 75.2691 88.8177 75.5639 88.3881C75.9704 87.7928 76.7121 86.7082 77.0569 86.5502C77.0743 86.5772 77.0993 86.6234 77.1282 86.6967C77.3209 87.1475 77.5328 87.5828 77.762 88.0048L75.352 90.8984L86.5527 98.9146C87.7009 99.7372 88.8896 100.587 90.2458 101.149C94.4322 102.889 100.703 104.846 106.798 104.305C108.494 104.155 110.06 103.688 111.574 103.24C112.561 102.947 113.58 102.644 114.618 102.434C118.997 101.548 123.461 103.161 127.778 104.721C128.171 104.864 128.564 105.004 128.955 105.145C132.126 106.276 135.91 107.484 139.94 107.875C140.805 107.96 141.657 108 142.495 108C145.685 108 148.646 107.395 151.168 106.212C151.727 105.948 152.276 105.654 152.807 105.368C153.79 104.841 154.718 104.342 155.73 104.018C157.327 103.505 159.061 103.469 160.737 103.432C166.422 103.309 172.3 103.182 178.05 103.654L178.129 102.696C172.329 102.22 166.424 102.348 160.716 102.473Z" fill="#2B2B2B"/>
</g>
<defs>
<clipPath id="clip0_1186_4772">
<rect width="140" height="140" fill="white"/>
</clipPath>
</defs>
</svg>
