<svg width="140" height="140" viewBox="0 0 140 140" fill="none" xmlns="http://www.w3.org/2000/svg">
<circle cx="69.5" cy="70.5" r="62" stroke="black"/>
<circle cx="117" cy="26" r="13" fill="#70C5A3"/>
<path d="M112 25.08L115.96 29.04L123 22" stroke="white" stroke-width="1.76"/>
<circle cx="108.5" cy="55.5" r="14" stroke="black"/>
<circle cx="50.5" cy="80.5" r="32" stroke="black"/>
<path d="M55.9999 49.5C47.6666 53.8333 32.9999 64 40.9999 70C50.9999 77.5 62 60 64 66.5C66 73 56 82 64 82C70.4 82 78 74 81 70" stroke="black"/>
<path d="M51.1893 92.3416C49.5893 86.3416 58.5227 87.8416 63.1893 89.3416C68.6892 90.5592 66.6895 98.8417 65.6895 101.342C64.6895 103.842 53.1893 99.8416 51.1893 92.3416Z" stroke="black"/>
<path d="M18.5 79C23.6667 81.6667 34.8 88.6 34 95C33.2 101.4 33.6667 106.333 34 108" stroke="black"/>
<path d="M75.6106 23.1462L75.6364 23.3636L75.8538 23.3894L93.6424 25.5L75.8538 27.6106L75.6364 27.6364L75.6106 27.8538L73.5 45.6424L71.3894 27.8538L71.3636 27.6364L71.1462 27.6106L53.3576 25.5L71.1462 23.3894L71.3636 23.3636L71.3894 23.1462L73.5 5.35756L75.6106 23.1462Z" stroke="black" stroke-width="0.555556"/>
<path d="M113.844 88.0585L113.855 88.1454L113.942 88.1557L121.057 89L113.942 89.8443L113.855 89.8546L113.844 89.9415L113 97.057L112.156 89.9415L112.145 89.8546L112.058 89.8443L104.943 89L112.058 88.1557L112.145 88.1454L112.156 88.0585L113 80.943L113.844 88.0585Z" stroke="black" stroke-width="0.222222"/>
<path d="M74.8443 125.058L74.8546 125.145L74.9415 125.156L82.057 126L74.9415 126.844L74.8546 126.855L74.8443 126.942L74 134.057L73.1557 126.942L73.1454 126.855L73.0585 126.844L65.943 126L73.0585 125.156L73.1454 125.145L73.1557 125.058L74 117.943L74.8443 125.058Z" stroke="black" stroke-width="0.222222"/>
</svg>
